<?xml version="1.0" encoding="UTF-8"?>
<!DOCTYPE svg PUBLIC "-//W3C//DTD SVG 1.1//EN" "http://www.w3.org/Graphics/SVG/1.1/DTD/svg11.dtd">
<svg xmlns="http://www.w3.org/2000/svg" version="1.1" width="450px" height="450px" style="shape-rendering:geometricPrecision; text-rendering:geometricPrecision; image-rendering:optimizeQuality; fill-rule:evenodd; clip-rule:evenodd" xmlns:xlink="http://www.w3.org/1999/xlink">
<g><path style="opacity:0.008" fill="#babec5" d="M 216.5,56.5 C 221.65,55.3493 226.984,55.1826 232.5,56C 227.177,56.4994 221.844,56.666 216.5,56.5 Z"/></g>
<g><path style="opacity:0.014" fill="#bdc1c8" d="M 203.5,57.5 C 206.304,56.3622 209.304,56.1955 212.5,57C 209.518,57.498 206.518,57.6646 203.5,57.5 Z"/></g>
<g><path style="opacity:0.014" fill="#bcc0c7" d="M 236.5,57.5 C 239.304,56.3622 242.304,56.1955 245.5,57C 242.518,57.498 239.518,57.6646 236.5,57.5 Z"/></g>
<g><path style="opacity:0.012" fill="#dcdde1" d="M 196.5,58.5 C 198.288,57.3775 200.288,57.2109 202.5,58C 200.527,58.4955 198.527,58.6621 196.5,58.5 Z"/></g>
<g><path style="opacity:0.01" fill="#babfc6" d="M 246.5,58.5 C 248.288,57.3775 250.288,57.2109 252.5,58C 250.527,58.4955 248.527,58.6621 246.5,58.5 Z"/></g>
<g><path style="opacity:0.012" fill="#d8dade" d="M 191.5,59.5 C 192.601,58.4017 193.934,58.235 195.5,59C 194.207,59.49 192.873,59.6567 191.5,59.5 Z"/></g>
<g><path style="opacity:0.004" fill="#bdc1c7" d="M 258.5,59.5 C 256.801,59.6602 255.134,59.4935 253.5,59C 255.387,58.2204 257.054,58.3871 258.5,59.5 Z"/></g>
<g><path style="opacity:0.008" fill="#ced0d6" d="M 190.5,60.5 C 189.127,60.6567 187.793,60.49 186.5,60C 188.066,59.235 189.399,59.4017 190.5,60.5 Z"/></g>
<g><path style="opacity:0.008" fill="#bcc0c8" d="M 258.5,60.5 C 258.5,60.1667 258.5,59.8333 258.5,59.5C 263.833,59.8333 263.833,60.1667 258.5,60.5 Z"/></g>
<g><path style="opacity:0.012" fill="#b7bbc3" d="M 271.5,63.5 C 272.251,62.4265 273.251,62.2599 274.5,63C 273.552,63.4828 272.552,63.6495 271.5,63.5 Z"/></g>
<g><path style="opacity:0.008" fill="#b6bac1" d="M 275.5,64.5 C 275.897,63.475 276.563,63.3083 277.5,64C 276.906,64.4643 276.239,64.631 275.5,64.5 Z"/></g>
<g><path style="opacity:0.012" fill="#e3e4e7" d="M 170.5,65.5 C 169.761,65.631 169.094,65.4643 168.5,65C 169.437,64.3083 170.103,64.475 170.5,65.5 Z"/></g>
<g><path style="opacity:0.008" fill="#b7bbc2" d="M 278.5,65.5 C 278.897,64.475 279.563,64.3083 280.5,65C 279.906,65.4643 279.239,65.631 278.5,65.5 Z"/></g>
<g><path style="opacity:0.012" fill="#e4e5e8" d="M 167.5,66.5 C 166.761,66.631 166.094,66.4643 165.5,66C 166.437,65.3083 167.103,65.475 167.5,66.5 Z"/></g>
<g><path style="opacity:0.008" fill="#b5b9c1" d="M 281.5,66.5 C 281.897,65.475 282.563,65.3083 283.5,66C 282.906,66.4643 282.239,66.631 281.5,66.5 Z"/></g>
<g><path style="opacity:1" fill="#697993" d="M 312.5,92.5 C 318.977,98.1357 325.644,103.636 332.5,109C 338.076,114.071 343.076,119.571 347.5,125.5C 347.565,125.938 347.399,126.272 347,126.5C 329.382,109.618 309.548,96.1181 287.5,86C 280.884,83.8483 274.218,82.015 267.5,80.5C 261.648,78.6081 255.648,76.7748 249.5,75C 227.664,73.5109 205.998,74.6776 184.5,78.5C 177.077,81.6965 169.41,84.1965 161.5,86C 160.058,86.3768 159.058,87.2101 158.5,88.5C 144.254,93.2131 131.587,100.546 120.5,110.5C 115.893,113.931 111.393,117.597 107,121.5C 106.333,120.833 106.333,120.167 107,119.5C 116.101,110.557 125.601,102.223 135.5,94.5C 153.427,80.416 173.761,71.5827 196.5,68C 228.535,63.3369 259.535,67.0035 289.5,79C 297.331,83.3555 304.998,87.8555 312.5,92.5 Z"/></g>
<g><path style="opacity:0.537" fill="#b8bdc5" d="M 258.5,60.5 C 262.615,61.9434 266.948,62.9434 271.5,63.5C 273.515,64.9238 275.848,65.5905 278.5,65.5C 279.209,66.404 280.209,66.7373 281.5,66.5C 283.89,68.0198 286.557,69.0198 289.5,69.5C 292.256,71.2038 295.256,72.5371 298.5,73.5C 299.209,74.404 300.209,74.7373 301.5,74.5C 305.347,77.5926 309.68,79.9259 314.5,81.5C 321.524,86.0134 328.191,91.0134 334.5,96.5C 323.385,89.7708 312.051,83.2708 300.5,77C 266.693,61.1995 231.359,56.3662 194.5,62.5C 194.833,61.8333 195.167,61.1667 195.5,60.5C 216.442,56.6609 237.442,56.6609 258.5,60.5 Z"/></g>
<g><path style="opacity:0.008" fill="#b5b9c0" d="M 289.5,69.5 C 289.897,68.475 290.563,68.3083 291.5,69C 290.906,69.4643 290.239,69.631 289.5,69.5 Z"/></g>
<g><path style="opacity:0.012" fill="#f0f1f2" d="M 154.5,70.5 C 154.897,69.475 155.563,69.3083 156.5,70C 155.906,70.4643 155.239,70.631 154.5,70.5 Z"/></g>
<g><path style="opacity:0.004" fill="#b8bbc2" d="M 292.5,70.5 C 292.897,69.475 293.563,69.3083 294.5,70C 293.906,70.4643 293.239,70.631 292.5,70.5 Z"/></g>
<g><path style="opacity:0.012" fill="#a8aeba" d="M 298.5,73.5 C 298.897,72.475 299.563,72.3083 300.5,73C 299.906,73.4643 299.239,73.631 298.5,73.5 Z"/></g>
<g><path style="opacity:0.012" fill="#f3f4f4" d="M 146.5,73.5 C 147.833,74.1667 147.833,74.1667 146.5,73.5 Z"/></g>
<g><path style="opacity:0.012" fill="#b0b5bc" d="M 301.5,73.5 C 302.833,74.1667 302.833,74.1667 301.5,73.5 Z"/></g>
<g><path style="opacity:0.012" fill="#f4f5f5" d="M 144.5,74.5 C 145.833,75.1667 145.833,75.1667 144.5,74.5 Z"/></g>
<g><path style="opacity:0.012" fill="#b0b5bc" d="M 303.5,74.5 C 304.833,75.1667 304.833,75.1667 303.5,74.5 Z"/></g>
<g><path style="opacity:0.012" fill="#f5f6f6" d="M 142.5,75.5 C 143.833,76.1667 143.833,76.1667 142.5,75.5 Z"/></g>
<g><path style="opacity:0.012" fill="#b0b5bc" d="M 305.5,75.5 C 306.833,76.1667 306.833,76.1667 305.5,75.5 Z"/></g>
<g><path style="opacity:0.012" fill="#afb4ba" d="M 307.5,76.5 C 308.833,77.1667 308.833,77.1667 307.5,76.5 Z"/></g>
<g><path style="opacity:1" fill="#122241" d="M 347.5,125.5 C 343.076,119.571 338.076,114.071 332.5,109C 325.644,103.636 318.977,98.1357 312.5,92.5C 310.921,88.9207 308.255,86.2541 304.5,84.5C 303.105,85.8146 302.105,85.4812 301.5,83.5C 301.624,82.8933 301.957,82.56 302.5,82.5C 311.433,86.2999 319.767,91.1332 327.5,97C 329.833,97.3333 332.167,97.6667 334.5,98C 336.405,99.4213 338.405,100.588 340.5,101.5C 345.785,107.452 351.452,113.119 357.5,118.5C 358.757,121.427 360.757,123.761 363.5,125.5C 363.738,127.404 364.738,128.738 366.5,129.5C 366.5,129.833 366.5,130.167 366.5,130.5C 365.778,130.918 365.278,131.584 365,132.5C 364.385,130.884 363.385,129.551 362,128.5C 360.632,130.494 360.132,132.494 360.5,134.5C 362.727,139.954 365.227,145.287 368,150.5C 368.995,153.126 369.328,155.793 369,158.5C 337.938,117.201 296.771,92.0341 245.5,83C 174.303,77.6759 121.137,105.843 86,167.5C 71.728,195.927 63.8946,225.76 62.5,257C 63.202,260.466 63.8687,263.966 64.5,267.5C 63.3904,269.496 63.7237,271.329 65.5,273C 64.6634,274.011 64.33,275.178 64.5,276.5C 62.0107,269.171 60.6774,261.504 60.5,253.5C 60.3335,241.162 60.5001,228.829 61,216.5C 64.7915,204.335 67.7915,192.001 70,179.5C 81.6941,156.133 97.5274,135.966 117.5,119C 129.776,110.148 142.11,101.482 154.5,93C 162.328,89.3927 170.328,86.3927 178.5,84C 184.601,83.4247 190.267,81.9247 195.5,79.5C 209.778,77.6571 224.111,77.1571 238.5,78C 246.755,79.7984 255.089,81.1318 263.5,82C 269.621,84.4249 275.954,86.0916 282.5,87C 284.456,90.4794 287.456,92.146 291.5,92C 297.654,95.0141 303.654,98.1808 309.5,101.5C 320.933,109.318 332.267,117.318 343.5,125.5C 348.41,130.455 353.243,135.455 358,140.5C 360.184,143.402 362.184,146.402 364,149.5C 364.667,148.5 364.667,147.5 364,146.5C 362.333,143.833 360.667,141.167 359,138.5C 355.301,133.973 351.468,129.639 347.5,125.5 Z"/></g>
<g><path style="opacity:0.012" fill="#acb1b8" d="M 314.5,80.5 C 315.833,81.1667 315.833,81.1667 314.5,80.5 Z"/></g>
<g><path style="opacity:0.008" fill="#b5b9be" d="M 316.5,81.5 C 317.833,82.1667 317.833,82.1667 316.5,81.5 Z"/></g>
<g><path style="opacity:0.012" fill="#fafbfa" d="M 128.5,83.5 C 129.833,84.1667 129.833,84.1667 128.5,83.5 Z"/></g>
<g><path style="opacity:0.999" fill="#1d3156" d="M 302.5,82.5 C 301.957,82.56 301.624,82.8933 301.5,83.5C 302.105,85.4812 303.105,85.8146 304.5,84.5C 308.255,86.2541 310.921,88.9207 312.5,92.5C 304.998,87.8555 297.331,83.3555 289.5,79C 259.535,67.0035 228.535,63.3369 196.5,68C 173.761,71.5827 153.427,80.416 135.5,94.5C 133.345,94.372 131.345,94.872 129.5,96C 127.097,97.853 124.764,99.6863 122.5,101.5C 99.0396,115.626 80.7063,134.626 67.5,158.5C 67.5,157.5 67.5,156.5 67.5,155.5C 80.8381,129.496 99.5048,108.162 123.5,91.5C 125.068,92.4731 126.735,92.6397 128.5,92C 176.51,62.59 227.51,56.2567 281.5,73C 288.828,75.6679 295.828,78.8346 302.5,82.5 Z"/></g>
<g><path style="opacity:0.996" fill="#7c8ba3" d="M 334.5,96.5 C 337.109,97.4431 339.109,99.1097 340.5,101.5C 338.405,100.588 336.405,99.4213 334.5,98C 332.167,97.6667 329.833,97.3333 327.5,97C 319.767,91.1332 311.433,86.2999 302.5,82.5C 295.828,78.8346 288.828,75.6679 281.5,73C 227.51,56.2567 176.51,62.59 128.5,92C 126.735,92.6397 125.068,92.4731 123.5,91.5C 144.877,76.5872 168.544,66.9205 194.5,62.5C 231.359,56.3662 266.693,61.1995 300.5,77C 312.051,83.2708 323.385,89.7708 334.5,96.5 Z"/></g>
<g><path style="opacity:1" fill="#405270" d="M 267.5,80.5 C 258.684,79.5311 250.018,78.0311 241.5,76C 230.5,75.3333 219.5,75.3333 208.5,76C 203.992,76.9238 199.658,78.0905 195.5,79.5C 192.15,79.335 188.817,79.5017 185.5,80C 176.702,83.544 167.702,86.3773 158.5,88.5C 159.058,87.2101 160.058,86.3768 161.5,86C 169.41,84.1965 177.077,81.6965 184.5,78.5C 205.998,74.6776 227.664,73.5109 249.5,75C 255.648,76.7748 261.648,78.6081 267.5,80.5 Z"/></g>
<g><path style="opacity:0.008" fill="#fefffe" d="M 119.5,89.5 C 120.833,90.1667 120.833,90.1667 119.5,89.5 Z"/></g>
<g><path style="opacity:1" fill="#0f1d39" d="M 366.5,130.5 C 367.167,131.833 368.167,132.833 369.5,133.5C 369.427,135.027 370.094,136.027 371.5,136.5C 371.427,138.027 372.094,139.027 373.5,139.5C 373.427,141.027 374.094,142.027 375.5,142.5C 375.427,144.027 376.094,145.027 377.5,145.5C 378.167,146.167 378.833,146.833 379.5,147.5C 379.5,148.167 379.5,148.833 379.5,149.5C 379.427,151.027 380.094,152.027 381.5,152.5C 382.171,157.506 384.171,161.839 387.5,165.5C 390.12,174.362 393.12,183.029 396.5,191.5C 396.505,195.534 396.838,199.534 397.5,203.5C 397.167,203.5 396.833,203.5 396.5,203.5C 396.162,201.146 395.662,198.813 395,196.5C 388.951,190.097 384.118,182.764 380.5,174.5C 379.998,173.479 379.332,173.312 378.5,174C 397.712,232.567 389.545,287.067 354,337.5C 352.961,338.71 351.794,339.71 350.5,340.5C 361.663,324.802 370.497,307.802 377,289.5C 378.711,282.599 380.545,275.766 382.5,269C 381.925,264.804 381.925,260.804 382.5,257C 379.833,256.333 379.833,255.667 382.5,255C 381.91,253.491 381.244,251.991 380.5,250.5C 380.331,251.397 379.998,252.397 379.5,253.5C 377.877,252.524 376.543,253.024 375.5,255C 379.236,256.507 379.236,257.34 375.5,257.5C 370.14,289.452 356.307,317.452 334,341.5C 333.517,342.448 333.351,343.448 333.5,344.5C 332.448,344.351 331.448,344.517 330.5,345C 295.197,377.99 253.531,391.99 205.5,387C 157.526,379.352 119.86,355.519 92.5,315.5C 91.675,314.614 90.675,314.281 89.5,314.5C 89.8186,312.25 89.3186,310.25 88,308.5C 87.3828,309.449 87.5494,310.282 88.5,311C 87.3284,311.353 86.1618,311.187 85,310.5C 83.7263,311.535 82.5596,312.702 81.5,314C 84.5887,321.584 88.2554,328.918 92.5,336C 91.8333,336.667 91.1667,336.667 90.5,336C 81.5642,326.076 73.0642,315.909 65,305.5C 63.213,300.926 61.713,296.259 60.5,291.5C 59.4657,288.875 58.4657,288.875 57.5,291.5C 56.3485,289.221 55.3485,286.888 54.5,284.5C 48.1003,256.868 46.767,228.868 50.5,200.5C 54.4899,188.196 58.4899,175.863 62.5,163.5C 64.1979,160.813 65.8646,158.146 67.5,155.5C 67.5,156.5 67.5,157.5 67.5,158.5C 48.6621,199.231 45.4954,241.231 58,284.5C 63.787,291.627 68.787,299.293 73,307.5C 73.6667,306.167 73.6667,304.833 73,303.5C 69.4519,294.691 66.6186,285.691 64.5,276.5C 64.33,275.178 64.6634,274.011 65.5,273C 63.7237,271.329 63.3904,269.496 64.5,267.5C 63.8687,263.966 63.202,260.466 62.5,257C 63.8946,225.76 71.728,195.927 86,167.5C 121.137,105.843 174.303,77.6759 245.5,83C 296.771,92.0341 337.938,117.201 369,158.5C 369.328,155.793 368.995,153.126 368,150.5C 365.227,145.287 362.727,139.954 360.5,134.5C 360.132,132.494 360.632,130.494 362,128.5C 363.385,129.551 364.385,130.884 365,132.5C 365.278,131.584 365.778,130.918 366.5,130.5 Z"/></g>
<g><path style="opacity:1" fill="#0c1934" d="M 359.5,187.5 C 361.286,193.951 362.619,200.617 363.5,207.5C 363.662,209.527 363.495,211.527 363,213.5C 361.749,209.918 360.749,206.251 360,202.5C 360,205.833 360,209.167 360,212.5C 358.92,207.101 357.587,201.768 356,196.5C 354.692,197.151 353.859,196.485 353.5,194.5C 355.326,192.545 355.826,190.212 355,187.5C 351.821,180.478 348.655,173.478 345.5,166.5C 325.346,127.718 293.68,103.885 250.5,95C 183.148,85.2672 131.648,109.1 96,166.5C 76.6016,203.601 73.6016,241.934 87,281.5C 87.1667,280.833 87.3333,280.167 87.5,279.5C 86.4773,275.183 85.9773,270.849 86,266.5C 91.7698,288.706 101.77,308.706 116,326.5C 118.703,329.371 121.536,332.038 124.5,334.5C 125.5,334.833 126.167,335.5 126.5,336.5C 129.384,339.981 132.384,343.481 135.5,347C 135,347.5 134.5,348 134,348.5C 131.459,346.437 128.625,345.103 125.5,344.5C 121.167,340.833 117.167,336.833 113.5,332.5C 73.9039,285.41 65.4039,233.077 88,175.5C 113.366,124.121 154.366,94.4548 211,86.5C 222.281,86.6025 233.615,86.6025 245,86.5C 283.23,93.2392 315.063,111.239 340.5,140.5C 343.82,145.35 346.82,149.85 349.5,154C 349.167,154.167 348.833,154.333 348.5,154.5C 344.568,149.645 340.401,144.978 336,140.5C 335.333,141.833 335.333,143.167 336,144.5C 339.128,147.86 341.795,151.527 344,155.5C 349.479,166.123 354.646,176.789 359.5,187.5 Z"/></g>
<g><path style="opacity:0.776" fill="#b1b5bb" d="M 340.5,101.5 C 347.188,106.188 352.854,111.854 357.5,118.5C 351.452,113.119 345.785,107.452 340.5,101.5 Z"/></g>
<g><path style="opacity:1" fill="#203152" d="M 195.5,79.5 C 190.267,81.9247 184.601,83.4247 178.5,84C 170.328,86.3927 162.328,89.3927 154.5,93C 142.11,101.482 129.776,110.148 117.5,119C 97.5274,135.966 81.6941,156.133 70,179.5C 67.7915,192.001 64.7915,204.335 61,216.5C 60.5001,228.829 60.3335,241.162 60.5,253.5C 56.0637,207.467 68.0637,166.134 96.5,129.5C 97.2216,129.918 97.7216,130.584 98,131.5C 105.697,124.634 113.197,117.634 120.5,110.5C 131.587,100.546 144.254,93.2131 158.5,88.5C 167.702,86.3773 176.702,83.544 185.5,80C 188.817,79.5017 192.15,79.335 195.5,79.5 Z"/></g>
<g><path style="opacity:1" fill="#233452" d="M 267.5,80.5 C 274.218,82.015 280.884,83.8483 287.5,86C 309.548,96.1181 329.382,109.618 347,126.5C 347.399,126.272 347.565,125.938 347.5,125.5C 351.468,129.639 355.301,133.973 359,138.5C 360.667,141.167 362.333,143.833 364,146.5C 364.667,147.5 364.667,148.5 364,149.5C 362.184,146.402 360.184,143.402 358,140.5C 353.243,135.455 348.41,130.455 343.5,125.5C 332.267,117.318 320.933,109.318 309.5,101.5C 303.654,98.1808 297.654,95.0141 291.5,92C 287.456,92.146 284.456,90.4794 282.5,87C 275.954,86.0916 269.621,84.4249 263.5,82C 255.089,81.1318 246.755,79.7984 238.5,78C 224.111,77.1571 209.778,77.6571 195.5,79.5C 199.658,78.0905 203.992,76.9238 208.5,76C 219.5,75.3333 230.5,75.3333 241.5,76C 250.018,78.0311 258.684,79.5311 267.5,80.5 Z"/></g>
<g><path style="opacity:1" fill="#6d7d95" d="M 122.5,101.5 C 122.938,101.435 123.272,101.601 123.5,102C 113.628,110.371 104.628,119.538 96.5,129.5C 68.0637,166.134 56.0637,207.467 60.5,253.5C 60.6774,261.504 62.0107,269.171 64.5,276.5C 66.6186,285.691 69.4519,294.691 73,303.5C 73.6667,304.833 73.6667,306.167 73,307.5C 68.787,299.293 63.787,291.627 58,284.5C 45.4954,241.231 48.6621,199.231 67.5,158.5C 80.7063,134.626 99.0396,115.626 122.5,101.5 Z"/></g>
<g><path style="opacity:1" fill="#979ca5" d="M 357.5,118.5 C 360.243,120.239 362.243,122.573 363.5,125.5C 360.757,123.761 358.757,121.427 357.5,118.5 Z"/></g>
<g><path style="opacity:0.008" fill="#fefffe" d="M 84.5,122.5 C 85.8333,123.167 85.8333,123.167 84.5,122.5 Z"/></g>
<g><path style="opacity:0.859" fill="#dee1e5" d="M 190.5,60.5 C 192.167,60.5 193.833,60.5 195.5,60.5C 195.167,61.1667 194.833,61.8333 194.5,62.5C 168.544,66.9205 144.877,76.5872 123.5,91.5C 99.5048,108.162 80.8381,129.496 67.5,155.5C 65.8646,158.146 64.1979,160.813 62.5,163.5C 62.5,162.5 62.5,161.5 62.5,160.5C 63.3382,160.158 63.6716,159.492 63.5,158.5C 64.3382,158.158 64.6716,157.492 64.5,156.5C 65.3382,156.158 65.6716,155.492 65.5,154.5C 66.3382,154.158 66.6716,153.492 66.5,152.5C 67.9063,152.027 68.573,151.027 68.5,149.5C 70.0828,147.337 71.4161,145.004 72.5,142.5C 95.834,106.841 127.501,81.5076 167.5,66.5C 168.791,66.7373 169.791,66.404 170.5,65.5C 177.347,64.1216 184.014,62.4549 190.5,60.5 Z"/></g>
<g><path style="opacity:1" fill="#152138" d="M 345.5,166.5 C 324.076,130.439 292.743,108.105 251.5,99.5C 191.457,89.662 143.957,109.329 109,158.5C 96.4512,176.981 88.9512,197.314 86.5,219.5C 83.1373,248.307 88.304,275.64 102,301.5C 108.531,313.251 116.031,324.251 124.5,334.5C 121.536,332.038 118.703,329.371 116,326.5C 101.77,308.706 91.7698,288.706 86,266.5C 85.9773,270.849 86.4773,275.183 87.5,279.5C 87.3333,280.167 87.1667,280.833 87,281.5C 73.6016,241.934 76.6016,203.601 96,166.5C 131.648,109.1 183.148,85.2672 250.5,95C 293.68,103.885 325.346,127.718 345.5,166.5 Z"/></g>
<g><path style="opacity:0.996" fill="#9da1a9" d="M 363.5,125.5 C 364.5,126.167 365.5,126.833 366.5,127.5C 366.5,128.167 366.5,128.833 366.5,129.5C 364.738,128.738 363.738,127.404 363.5,125.5 Z"/></g>
<g><path style="opacity:0.012" fill="#b1b5b7" d="M 367.5,127.5 C 366.833,126.167 366.833,126.167 367.5,127.5 Z"/></g>
<g><path style="opacity:0.008" fill="#c8cac9" d="M 367.5,127.5 C 368.833,128.167 368.833,128.167 367.5,127.5 Z"/></g>
<g><path style="opacity:1" fill="#374a69" d="M 135.5,94.5 C 125.601,102.223 116.101,110.557 107,119.5C 106.333,120.167 106.333,120.833 107,121.5C 111.393,117.597 115.893,113.931 120.5,110.5C 113.197,117.634 105.697,124.634 98,131.5C 97.7216,130.584 97.2216,129.918 96.5,129.5C 104.628,119.538 113.628,110.371 123.5,102C 123.272,101.601 122.938,101.435 122.5,101.5C 124.764,99.6863 127.097,97.853 129.5,96C 131.345,94.872 133.345,94.372 135.5,94.5 Z"/></g>
<g><path style="opacity:1" fill="#091124" d="M 160.5,119.5 C 121.19,146.598 99.5233,184.098 95.5,232C 95.0959,265.437 105.596,295.604 127,322.5C 132.709,328.705 138.209,335.039 143.5,341.5C 141.264,340.611 139.264,339.278 137.5,337.5C 136.707,338.355 137.04,339.189 138.5,340C 138,340.5 137.5,341 137,341.5C 131.333,335.833 125.667,330.167 120,324.5C 119.333,325.167 119.333,325.833 120,326.5C 126.065,332.031 131.231,337.697 135.5,343.5C 132.767,340.761 129.767,338.427 126.5,336.5C 126.167,335.5 125.5,334.833 124.5,334.5C 116.031,324.251 108.531,313.251 102,301.5C 88.304,275.64 83.1373,248.307 86.5,219.5C 86.5659,227.524 87.0659,235.524 88,243.5C 87.8076,226.035 90.4743,209.035 96,192.5C 96.1667,193.167 96.3333,193.833 96.5,194.5C 89.5336,218.959 88.7002,243.626 94,268.5C 95.2205,274.166 97.2205,279.499 100,284.5C 97.8647,274.945 95.8647,265.278 94,255.5C 89.0165,204.812 105.85,162.645 144.5,129C 149.724,125.559 155.057,122.392 160.5,119.5 Z"/></g>
<g><path style="opacity:0.875" fill="#9b9fa7" d="M 366.5,129.5 C 368.262,130.262 369.262,131.596 369.5,133.5C 368.167,132.833 367.167,131.833 366.5,130.5C 366.5,130.167 366.5,129.833 366.5,129.5 Z"/></g>
<g><path style="opacity:0.016" fill="#a0a5a9" d="M 372.5,134.5 C 371.833,133.167 371.833,133.167 372.5,134.5 Z"/></g>
<g><path style="opacity:0.008" fill="#c3c6c5" d="M 372.5,134.5 C 373.833,135.167 373.833,135.167 372.5,134.5 Z"/></g>
<g><path style="opacity:0.741" fill="#a7abb0" d="M 369.5,133.5 C 370.167,133.833 370.833,134.167 371.5,134.5C 371.5,135.167 371.5,135.833 371.5,136.5C 370.094,136.027 369.427,135.027 369.5,133.5 Z"/></g>
<g><path style="opacity:0.729" fill="#a0a4a9" d="M 371.5,136.5 C 372.906,136.973 373.573,137.973 373.5,139.5C 372.094,139.027 371.427,138.027 371.5,136.5 Z"/></g>
<g><path style="opacity:0.012" fill="#fafafa" d="M 72.5,142.5 C 72.1667,142.5 71.8333,142.5 71.5,142.5C 71.8333,139.833 72.1667,139.833 72.5,142.5 Z"/></g>
<g><path style="opacity:0.643" fill="#abafb4" d="M 373.5,139.5 C 374.906,139.973 375.573,140.973 375.5,142.5C 374.094,142.027 373.427,141.027 373.5,139.5 Z"/></g>
<g><path style="opacity:0.012" fill="#fefffe" d="M 71.5,142.5 C 70.8333,143.167 70.8333,143.167 71.5,142.5 Z"/></g>
<g><path style="opacity:0.518" fill="#b7b9bd" d="M 375.5,142.5 C 376.906,142.973 377.573,143.973 377.5,145.5C 376.094,145.027 375.427,144.027 375.5,142.5 Z"/></g>
<g><path style="opacity:0.008" fill="#6c737e" d="M 380.5,147.5 C 380.167,147.5 379.833,147.5 379.5,147.5C 379.833,144.833 380.167,144.833 380.5,147.5 Z"/></g>
<g><path style="opacity:0.012" fill="#b3b6b7" d="M 380.5,147.5 C 381.833,148.167 381.833,148.167 380.5,147.5 Z"/></g>
<g><path style="opacity:0.008" fill="#dadde0" d="M 68.5,149.5 C 68.1667,149.5 67.8333,149.5 67.5,149.5C 67.8333,146.833 68.1667,146.833 68.5,149.5 Z"/></g>
<g><path style="opacity:0.012" fill="#fefffe" d="M 67.5,149.5 C 66.8333,150.167 66.8333,150.167 67.5,149.5 Z"/></g>
<g><path style="opacity:0.012" fill="#fafbfa" d="M 66.5,152.5 C 65.8333,151.167 65.8333,151.167 66.5,152.5 Z"/></g>
<g><path style="opacity:0.478" fill="#b6b9bc" d="M 379.5,149.5 C 380.906,149.973 381.573,150.973 381.5,152.5C 380.094,152.027 379.427,151.027 379.5,149.5 Z"/></g>
<g><path style="opacity:0.012" fill="#f9faf9" d="M 65.5,154.5 C 64.8333,153.167 64.8333,153.167 65.5,154.5 Z"/></g>
<g><path style="opacity:0.012" fill="#fafbfa" d="M 64.5,156.5 C 63.8333,155.167 63.8333,155.167 64.5,156.5 Z"/></g>
<g><path style="opacity:1" fill="#858993" d="M 381.5,152.5 C 383.167,155.167 384.833,157.833 386.5,160.5C 386.629,162.216 386.962,163.883 387.5,165.5C 384.171,161.839 382.171,157.506 381.5,152.5 Z"/></g>
<g><path style="opacity:0.012" fill="#fcfdfb" d="M 63.5,158.5 C 62.8333,157.167 62.8333,157.167 63.5,158.5 Z"/></g>
<g><path style="opacity:0.012" fill="#f6f8f7" d="M 62.5,160.5 C 61.8333,159.167 61.8333,159.167 62.5,160.5 Z"/></g>
<g><path style="opacity:0.012" fill="#9a9da2" d="M 387.5,160.5 C 387.167,160.5 386.833,160.5 386.5,160.5C 386.833,157.833 387.167,157.833 387.5,160.5 Z"/></g>
<g><path style="opacity:0.012" fill="#a6a8ac" d="M 387.5,160.5 C 388.525,160.897 388.692,161.563 388,162.5C 387.536,161.906 387.369,161.239 387.5,160.5 Z"/></g>
<g><path style="opacity:0.012" fill="#797e87" d="M 390.5,167.5 C 390.167,167.5 389.833,167.5 389.5,167.5C 389.833,164.833 390.167,164.833 390.5,167.5 Z"/></g>
<g><path style="opacity:1" fill="#8e9299" d="M 387.5,165.5 C 388.167,166.167 388.833,166.833 389.5,167.5C 389.98,170.443 390.98,173.11 392.5,175.5C 393.261,179.784 394.595,183.784 396.5,187.5C 396.5,188.833 396.5,190.167 396.5,191.5C 393.12,183.029 390.12,174.362 387.5,165.5 Z"/></g>
<g><path style="opacity:0.012" fill="#9fa2a6" d="M 390.5,167.5 C 391.525,167.897 391.692,168.563 391,169.5C 390.536,168.906 390.369,168.239 390.5,167.5 Z"/></g>
<g><path style="opacity:0.012" fill="#edeef0" d="M 57.5,172.5 C 56.475,172.103 56.3083,171.437 57,170.5C 57.4643,171.094 57.631,171.761 57.5,172.5 Z"/></g>
<g><path style="opacity:1" fill="#070f20" d="M 320.5,167.5 C 321.721,166.535 323.054,166.702 324.5,168C 327.211,170.344 330.044,172.511 333,174.5C 334.717,178.543 335.883,182.71 336.5,187C 335.53,212.717 335.196,238.383 335.5,264C 336.791,274.418 337.291,284.918 337,295.5C 333.833,301.333 329.333,305.833 323.5,309C 323.799,310.32 323.966,311.82 324,313.5C 324.388,314.428 325.055,315.095 326,315.5C 328.951,313.553 331.618,311.219 334,308.5C 333.981,310.107 333.815,311.774 333.5,313.5C 330.89,318.109 327.89,322.442 324.5,326.5C 321.786,329.215 318.786,331.549 315.5,333.5C 315.196,332.85 314.863,332.183 314.5,331.5C 315.986,329.698 316.986,327.698 317.5,325.5C 310.339,326.576 303.673,329.076 297.5,333C 294.648,333.269 291.982,334.103 289.5,335.5C 287.992,339.017 285.659,341.851 282.5,344C 279.193,345.284 275.859,346.617 272.5,348C 256.739,350.95 241.239,354.784 226,359.5C 217.694,358.762 210.194,355.929 203.5,351C 194.497,350.555 186.163,347.888 178.5,343C 175.781,341.281 173.781,338.947 172.5,336C 162.65,332.741 153.316,328.408 144.5,323C 142.54,320.134 140.874,317.134 139.5,314C 131.608,309.795 124.441,304.628 118,298.5C 116.937,296.084 116.104,293.584 115.5,291C 116.157,254.36 116.824,217.86 117.5,181.5C 117.333,217.168 117.5,252.835 118,288.5C 119.243,293.412 121.743,297.579 125.5,301C 131.86,304.512 138.194,308.012 144.5,311.5C 144.5,311.833 144.5,312.167 144.5,312.5C 143.45,312.905 143.45,313.571 144.5,314.5C 152.802,322.214 162.802,328.381 174.5,333C 184.122,341.32 195.122,346.987 207.5,350C 215.128,355.995 223.794,358.329 233.5,357C 236.502,354.497 239.835,352.497 243.5,351C 251.848,348.159 260.182,345.159 268.5,342C 271.893,340.273 274.226,337.606 275.5,334C 284.784,330.575 293.784,326.575 302.5,322C 304.353,319.429 306.019,316.762 307.5,314C 314.667,309.5 321.833,305 329,300.5C 331.47,297.686 331.97,294.686 330.5,291.5C 330.5,290.833 330.5,290.167 330.5,289.5C 331.66,252.905 331.826,216.238 331,179.5C 329.066,174.07 325.566,170.07 320.5,167.5 Z"/></g>
<g><path style="opacity:0.012" fill="#797b7d" d="M 393.5,175.5 C 393.167,175.5 392.833,175.5 392.5,175.5C 392.833,171.5 393.167,171.5 393.5,175.5 Z"/></g>
<g><path style="opacity:0.012" fill="#97999e" d="M 393.5,175.5 C 394.525,175.897 394.692,176.563 394,177.5C 393.536,176.906 393.369,176.239 393.5,175.5 Z"/></g>
<g><path style="opacity:0.012" fill="#989ba0" d="M 394.5,178.5 C 395.525,178.897 395.692,179.563 395,180.5C 394.536,179.906 394.369,179.239 394.5,178.5 Z"/></g>
<g><path style="opacity:0.012" fill="#dddfe2" d="M 53.5,184.5 C 53.1667,184.5 52.8333,184.5 52.5,184.5C 52.8333,180.5 53.1667,180.5 53.5,184.5 Z"/></g>
<g><path style="opacity:1" fill="#cfd3d9" d="M 62.5,163.5 C 58.4899,175.863 54.4899,188.196 50.5,200.5C 50.9629,197.518 51.2962,194.518 51.5,191.5C 52.9238,189.485 53.5905,187.152 53.5,184.5C 55.4053,180.784 56.7387,176.784 57.5,172.5C 58.9773,169.409 60.6439,166.409 62.5,163.5 Z"/></g>
<g><path style="opacity:1" fill="#e7e7e8" d="M 192.5,180.5 C 201.167,180.5 209.833,180.5 218.5,180.5C 218.5,181.5 218.5,182.5 218.5,183.5C 206.299,216.769 194.299,250.102 182.5,283.5C 177.185,297.101 171.852,310.768 166.5,324.5C 159.113,320.475 151.779,316.475 144.5,312.5C 144.5,312.167 144.5,311.833 144.5,311.5C 145.345,308.457 146.345,305.457 147.5,302.5C 162.107,261.679 177.107,221.013 192.5,180.5 Z"/></g>
<g><path style="opacity:1" fill="#e6e7e7" d="M 232.5,180.5 C 240.918,180.198 249.252,180.531 257.5,181.5C 239.167,232.167 220.833,282.833 202.5,333.5C 201.233,335.78 200.233,338.28 199.5,341C 199.164,342.03 198.497,342.53 197.5,342.5C 190.5,338.5 183.5,334.5 176.5,330.5C 193.627,281.786 210.961,233.12 228.5,184.5C 229.473,182.861 230.806,181.527 232.5,180.5 Z"/></g>
<g><path style="opacity:1" fill="#16223b" d="M 396.5,203.5 C 401.91,259.433 385.076,307.766 346,348.5C 345.601,348.272 345.435,347.938 345.5,347.5C 347.555,345.445 349.221,343.112 350.5,340.5C 351.794,339.71 352.961,338.71 354,337.5C 389.545,287.067 397.712,232.567 378.5,174C 379.332,173.312 379.998,173.479 380.5,174.5C 384.118,182.764 388.951,190.097 395,196.5C 395.662,198.813 396.162,201.146 396.5,203.5 Z"/></g>
<g><path style="opacity:0.012" fill="#9b9ea2" d="M 395.5,181.5 C 396.525,181.897 396.692,182.563 396,183.5C 395.536,182.906 395.369,182.239 395.5,181.5 Z"/></g>
<g><path style="opacity:0.008" fill="#f0f1f2" d="M 52.5,184.5 C 52.6495,185.552 52.4828,186.552 52,187.5C 51.2599,186.251 51.4265,185.251 52.5,184.5 Z"/></g>
<g><path style="opacity:0.012" fill="#8d9197" d="M 396.5,187.5 C 396.351,186.448 396.517,185.448 397,184.5C 397.74,185.749 397.573,186.749 396.5,187.5 Z"/></g>
<g><path style="opacity:0.012" fill="#e4e6e9" d="M 51.5,191.5 C 50.4265,190.749 50.2599,189.749 51,188.5C 51.4828,189.448 51.6495,190.448 51.5,191.5 Z"/></g>
<g><path style="opacity:0.012" fill="#7c7d81" d="M 398.5,195.5 C 398.343,194.127 398.51,192.793 399,191.5C 399.765,193.066 399.598,194.399 398.5,195.5 Z"/></g>
<g><path style="opacity:0.012" fill="#e8e9eb" d="M 49.5,192.5 C 50.5735,193.251 50.7401,194.251 50,195.5C 49.5172,194.552 49.3505,193.552 49.5,192.5 Z"/></g>
<g><path style="opacity:0.012" fill="#8a8d93" d="M 399.5,196.5 C 400.573,197.251 400.74,198.251 400,199.5C 399.517,198.552 399.351,197.552 399.5,196.5 Z"/></g>
<g><path style="opacity:1" fill="#060c1a" d="M 251.5,99.5 C 251.389,100.117 251.056,100.617 250.5,101C 253.167,101.667 255.833,102.333 258.5,103C 253.508,102.839 248.508,102.339 243.5,101.5C 219.73,100.205 196.73,103.705 174.5,112C 170.256,115.288 165.59,117.788 160.5,119.5C 155.057,122.392 149.724,125.559 144.5,129C 105.85,162.645 89.0165,204.812 94,255.5C 95.8647,265.278 97.8647,274.945 100,284.5C 97.2205,279.499 95.2205,274.166 94,268.5C 88.7002,243.626 89.5336,218.959 96.5,194.5C 96.3333,193.833 96.1667,193.167 96,192.5C 90.4743,209.035 87.8076,226.035 88,243.5C 87.0659,235.524 86.5659,227.524 86.5,219.5C 88.9512,197.314 96.4512,176.981 109,158.5C 143.957,109.329 191.457,89.662 251.5,99.5 Z"/></g>
<g><path style="opacity:0.008" fill="#95989c" d="M 400.5,200.5 C 401.598,201.601 401.765,202.934 401,204.5C 400.51,203.207 400.343,201.873 400.5,200.5 Z"/></g>
<g><path style="opacity:1" fill="#0f1423" d="M 257.5,181.5 C 258.889,186.518 258.389,191.518 256,196.5C 245.637,222.771 235.97,250.104 227,278.5C 218.893,297.506 212.06,316.673 206.5,336C 205.906,336.464 205.239,336.631 204.5,336.5C 202.952,336.179 202.285,335.179 202.5,333.5C 220.833,282.833 239.167,232.167 257.5,181.5 Z"/></g>
<g><path style="opacity:1" fill="#05c1e6" d="M 262.5,201.5 C 263.167,201.833 263.833,202.167 264.5,202.5C 276.461,236.058 288.794,269.391 301.5,302.5C 302.304,305.579 303.304,308.579 304.5,311.5C 297.095,316.226 289.428,320.559 281.5,324.5C 280.659,322.188 279.659,319.855 278.5,317.5C 268.834,290.168 259.167,262.834 249.5,235.5C 252.696,225.078 256.196,214.744 260,204.5C 260.377,203.058 261.21,202.058 262.5,201.5 Z"/></g>
<g><path style="opacity:0.008" fill="#dfe1e4" d="M 46.5,206.5 C 47.6129,207.946 47.7796,209.613 47,211.5C 46.5065,209.866 46.3398,208.199 46.5,206.5 Z"/></g>
<g><path style="opacity:0.016" fill="#8a8d93" d="M 401.5,205.5 C 402.613,206.946 402.78,208.613 402,210.5C 401.506,208.866 401.34,207.199 401.5,205.5 Z"/></g>
<g><path style="opacity:0.929" fill="#888b92" d="M 396.5,191.5 C 397.167,192.833 397.833,194.167 398.5,195.5C 400.044,203.765 401.044,212.099 401.5,220.5C 400.423,214.781 399.089,209.115 397.5,203.5C 396.838,199.534 396.505,195.534 396.5,191.5 Z"/></g>
<g><path style="opacity:0.004" fill="#7d7f82" d="M 402.5,212.5 C 403.629,214.628 403.796,216.961 403,219.5C 402.503,217.19 402.337,214.857 402.5,212.5 Z"/></g>
<g><path style="opacity:0.008" fill="#c9cbd1" d="M 45.5,213.5 C 46.6341,215.966 46.8007,218.633 46,221.5C 45.5026,218.854 45.3359,216.187 45.5,213.5 Z"/></g>
<g><path style="opacity:0.237" fill="#d2d5da" d="M 50.5,200.5 C 46.767,228.868 48.1003,256.868 54.5,284.5C 54.5,285.5 54.5,286.5 54.5,287.5C 54.1667,287.5 53.8333,287.5 53.5,287.5C 53.7678,285.901 53.4345,284.568 52.5,283.5C 52.4349,280.572 51.7682,277.905 50.5,275.5C 50.7678,273.901 50.4345,272.568 49.5,271.5C 48.8537,263.982 47.8537,256.648 46.5,249.5C 46.3336,240.494 46.5002,231.494 47,222.5C 47.3923,214.905 48.5589,207.572 50.5,200.5 Z"/></g>
<g><path style="opacity:0.01" fill="#f7f7f7" d="M 44.5,223.5 C 45.6566,231.656 45.8232,239.99 45,248.5C 44.5003,240.173 44.3336,231.84 44.5,223.5 Z"/></g>
<g><path style="opacity:1" fill="#3d4961" d="M 342.5,301.5 C 358.731,269.319 362.731,235.653 354.5,200.5C 354.435,200.062 354.601,199.728 355,199.5C 363.135,228.556 361.801,257.223 351,285.5C 348.916,291.339 346.083,296.673 342.5,301.5 Z"/></g>
<g><path style="opacity:0.012" fill="#919398" d="M 403.5,222.5 C 404.657,231.324 404.824,240.324 404,249.5C 403.5,240.506 403.334,231.506 403.5,222.5 Z"/></g>
<g><path style="opacity:0.016" fill="#67696d" d="M 402.5,251.5 C 403.629,253.628 403.796,255.961 403,258.5C 402.503,256.19 402.337,253.857 402.5,251.5 Z"/></g>
<g><path style="opacity:0.004" fill="#d2d3d6" d="M 46.5,249.5 C 46.6641,252.187 46.4974,254.854 46,257.5C 45.1993,254.633 45.3659,251.966 46.5,249.5 Z"/></g>
<g><path style="opacity:1" fill="#05bfe4" d="M 268.5,319.5 C 270.217,322.98 271.55,326.647 272.5,330.5C 264.671,334.58 257.004,338.913 249.5,343.5C 248.669,340.341 247.669,337.341 246.5,334.5C 240.868,319.103 235.534,303.603 230.5,288C 233.662,277.013 237.329,266.18 241.5,255.5C 243.347,254.17 244.847,254.503 246,256.5C 253.803,277.41 261.303,298.41 268.5,319.5 Z"/></g>
<g><path style="opacity:0.686" fill="#9c9da1" d="M 401.5,253.5 C 401.5,255.833 401.5,258.167 401.5,260.5C 400.539,262.265 400.205,264.265 400.5,266.5C 399.549,267.919 399.216,269.585 399.5,271.5C 398.549,272.919 398.216,274.585 398.5,276.5C 397.566,277.568 397.232,278.901 397.5,280.5C 396.833,281.5 396.167,282.5 395.5,283.5C 396.933,273.253 398.933,263.253 401.5,253.5 Z"/></g>
<g><path style="opacity:1" fill="#0b1429" d="M 228.5,184.5 C 210.961,233.12 193.627,281.786 176.5,330.5C 173.851,328.86 171.184,327.193 168.5,325.5C 169.242,324.713 170.075,324.047 171,323.5C 172.972,318.346 174.305,313.012 175,307.5C 180.595,300.544 183.095,292.544 182.5,283.5C 194.299,250.102 206.299,216.769 218.5,183.5C 219.156,182.722 219.989,182.056 221,181.5C 223.155,182.579 225.155,183.913 227,185.5C 227.333,184.833 227.667,184.167 228,183.5C 228.399,183.728 228.565,184.062 228.5,184.5 Z"/></g>
<g><path style="opacity:0.012" fill="#ced0d5" d="M 46.5,259.5 C 47.6129,260.946 47.7796,262.613 47,264.5C 46.5065,262.866 46.3398,261.199 46.5,259.5 Z"/></g>
<g><path style="opacity:1" fill="#6a788f" d="M 341.5,323.5 C 333.532,332.301 325.032,340.634 316,348.5C 333.455,330.298 347.122,309.298 357,285.5C 366.35,259.896 368.517,233.896 363.5,207.5C 362.619,200.617 361.286,193.951 359.5,187.5C 358.205,182.798 357.039,178.132 356,173.5C 368.625,197.969 373.292,223.969 370,251.5C 366.851,278.174 357.351,302.174 341.5,323.5 Z"/></g>
<g><path style="opacity:0.008" fill="#808286" d="M 401.5,260.5 C 402.613,261.946 402.78,263.613 402,265.5C 401.506,263.866 401.34,262.199 401.5,260.5 Z"/></g>
<g><path style="opacity:1" fill="#172034" d="M 396.5,203.5 C 396.833,203.5 397.167,203.5 397.5,203.5C 399.089,209.115 400.423,214.781 401.5,220.5C 402.79,231.457 402.79,242.457 401.5,253.5C 398.933,263.253 396.933,273.253 395.5,283.5C 392.527,289.085 390.527,295.085 389.5,301.5C 383.439,313.287 377.106,324.954 370.5,336.5C 368.1,338.296 366.433,340.63 365.5,343.5C 363.413,344.585 362.08,346.251 361.5,348.5C 358.757,350.239 356.757,352.573 355.5,355.5C 354.833,356.833 353.833,357.833 352.5,358.5C 351.094,358.973 350.427,359.973 350.5,361.5C 348.973,361.427 347.973,362.094 347.5,363.5C 346.504,363.586 345.671,363.252 345,362.5C 341.833,365 338.667,367.5 335.5,370C 336.609,371.813 335.942,372.646 333.5,372.5C 333.646,374.942 332.813,375.609 331,374.5C 330.5,375 330,375.5 329.5,376C 330.833,376.667 330.833,377.333 329.5,378C 328.207,378.49 326.873,378.657 325.5,378.5C 324.969,381.779 322.969,383.113 319.5,382.5C 319.567,383.959 319.234,385.292 318.5,386.5C 318.5,386.833 318.5,387.167 318.5,387.5C 317.833,387.5 317.167,387.5 316.5,387.5C 313.669,388.079 311.336,389.412 309.5,391.5C 300.314,395.264 291.314,399.264 282.5,403.5C 280.786,404.738 278.786,405.405 276.5,405.5C 275.833,405.5 275.167,405.5 274.5,405.5C 274.577,404.25 275.244,403.417 276.5,403C 270.115,403.576 263.782,404.743 257.5,406.5C 254.033,405.212 250.7,405.212 247.5,406.5C 242.156,406.666 236.823,406.499 231.5,406C 237.03,404.127 242.697,402.961 248.5,402.5C 275.319,396.41 299.652,385.243 321.5,369C 330.064,362.259 338.064,355.092 345.5,347.5C 345.435,347.938 345.601,348.272 346,348.5C 385.076,307.766 401.91,259.433 396.5,203.5 Z"/></g>
<g><path style="opacity:0.004" fill="#ececee" d="M 47.5,266.5 C 48.5983,267.601 48.765,268.934 48,270.5C 47.51,269.207 47.3433,267.873 47.5,266.5 Z"/></g>
<g><path style="opacity:0.008" fill="#8a8c90" d="M 400.5,266.5 C 401.833,268.167 401.833,269.833 400.5,271.5C 400.5,269.833 400.5,268.167 400.5,266.5 Z"/></g>
<g><path style="opacity:0.004" fill="#e5e6e8" d="M 49.5,271.5 C 49.5,272.833 49.5,274.167 49.5,275.5C 48.1667,274.167 48.1667,272.833 49.5,271.5 Z"/></g>
<g><path style="opacity:0.004" fill="#838589" d="M 399.5,271.5 C 399.833,271.5 400.167,271.5 400.5,271.5C 400.167,276.833 399.833,276.833 399.5,271.5 Z"/></g>
<g><path style="opacity:0.012" fill="#7a7d82" d="M 398.5,276.5 C 399.573,277.251 399.74,278.251 399,279.5C 398.517,278.552 398.351,277.552 398.5,276.5 Z"/></g>
<g><path style="opacity:0.004" fill="#c0c1c3" d="M 49.5,275.5 C 49.8333,275.5 50.1667,275.5 50.5,275.5C 50.1667,280.833 49.8333,280.833 49.5,275.5 Z"/></g>
<g><path style="opacity:0.012" fill="#c8cace" d="M 50.5,280.5 C 51.525,280.897 51.6917,281.563 51,282.5C 50.5357,281.906 50.369,281.239 50.5,280.5 Z"/></g>
<g><path style="opacity:0.012" fill="#808388" d="M 397.5,280.5 C 398.573,281.251 398.74,282.251 398,283.5C 397.517,282.552 397.351,281.552 397.5,280.5 Z"/></g>
<g><path style="opacity:0.012" fill="#8b8d90" d="M 52.5,283.5 C 52.6495,284.552 52.4828,285.552 52,286.5C 51.2599,285.251 51.4265,284.251 52.5,283.5 Z"/></g>
<g><path style="opacity:1" fill="#09162c" d="M 257.5,181.5 C 261.313,180.081 263.646,181.581 264.5,186C 262.556,191.101 261.889,196.268 262.5,201.5C 261.21,202.058 260.377,203.058 260,204.5C 256.196,214.744 252.696,225.078 249.5,235.5C 259.167,262.834 268.834,290.168 278.5,317.5C 275.412,317.377 272.745,318.377 270.5,320.5C 269.817,320.137 269.15,319.804 268.5,319.5C 261.303,298.41 253.803,277.41 246,256.5C 244.847,254.503 243.347,254.17 241.5,255.5C 237.329,266.18 233.662,277.013 230.5,288C 235.534,303.603 240.868,319.103 246.5,334.5C 245.514,336.408 243.848,337.408 241.5,337.5C 241.953,336.542 242.619,335.708 243.5,335C 239.005,322.85 234.505,310.683 230,298.5C 229.313,296.445 228.146,294.779 226.5,293.5C 223.744,295.091 221.911,297.424 221,300.5C 216.403,313.129 212.237,325.462 208.5,337.5C 206.901,337.768 205.568,337.434 204.5,336.5C 205.239,336.631 205.906,336.464 206.5,336C 212.06,316.673 218.893,297.506 227,278.5C 235.97,250.104 245.637,222.771 256,196.5C 258.389,191.518 258.889,186.518 257.5,181.5 Z"/></g>
<g><path style="opacity:0.008" fill="#97999c" d="M 396.5,287.5 C 396.351,286.448 396.517,285.448 397,284.5C 397.74,285.749 397.573,286.749 396.5,287.5 Z"/></g>
<g><path style="opacity:0.647" fill="#929498" d="M 395.5,283.5 C 395.5,284.833 395.5,286.167 395.5,287.5C 394.596,288.209 394.263,289.209 394.5,290.5C 393.596,291.209 393.263,292.209 393.5,293.5C 392.596,294.209 392.263,295.209 392.5,296.5C 391.069,297.78 390.402,299.447 390.5,301.5C 390.167,301.5 389.833,301.5 389.5,301.5C 390.527,295.085 392.527,289.085 395.5,283.5 Z"/></g>
<g><path style="opacity:0.008" fill="#acaeb4" d="M 53.5,287.5 C 53.631,288.239 53.4643,288.906 53,289.5C 52.3083,288.563 52.475,287.897 53.5,287.5 Z"/></g>
<g><path style="opacity:0.012" fill="#87898e" d="M 395.5,287.5 C 395.833,287.5 396.167,287.5 396.5,287.5C 396.737,288.791 396.404,289.791 395.5,290.5C 395.5,289.5 395.5,288.5 395.5,287.5 Z"/></g>
<g><path style="opacity:0.008" fill="#9fa2a7" d="M 54.5,290.5 C 54.631,291.239 54.4643,291.906 54,292.5C 53.3083,291.563 53.475,290.897 54.5,290.5 Z"/></g>
<g><path style="opacity:1" fill="#0a162e" d="M 350.5,340.5 C 349.221,343.112 347.555,345.445 345.5,347.5C 338.064,355.092 330.064,362.259 321.5,369C 299.652,385.243 275.319,396.41 248.5,402.5C 249.263,401.732 250.263,401.232 251.5,401C 195.751,407.225 145.751,392.892 101.5,358C 95.6126,352.113 89.7792,346.279 84,340.5C 80.4576,336.301 77.7909,331.635 76,326.5C 75.1841,325.177 74.0174,324.511 72.5,324.5C 65.7784,314.357 60.7784,303.357 57.5,291.5C 58.4657,288.875 59.4657,288.875 60.5,291.5C 61.713,296.259 63.213,300.926 65,305.5C 73.0642,315.909 81.5642,326.076 90.5,336C 91.1667,336.667 91.8333,336.667 92.5,336C 88.2554,328.918 84.5887,321.584 81.5,314C 82.5596,312.702 83.7263,311.535 85,310.5C 86.1618,311.187 87.3284,311.353 88.5,311C 87.5494,310.282 87.3828,309.449 88,308.5C 89.3186,310.25 89.8186,312.25 89.5,314.5C 90.675,314.281 91.675,314.614 92.5,315.5C 119.86,355.519 157.526,379.352 205.5,387C 253.531,391.99 295.197,377.99 330.5,345C 331.448,344.517 332.448,344.351 333.5,344.5C 333.351,343.448 333.517,342.448 334,341.5C 356.307,317.452 370.14,289.452 375.5,257.5C 379.236,257.34 379.236,256.507 375.5,255C 376.543,253.024 377.877,252.524 379.5,253.5C 379.998,252.397 380.331,251.397 380.5,250.5C 381.244,251.991 381.91,253.491 382.5,255C 379.833,255.667 379.833,256.333 382.5,257C 381.925,260.804 381.925,264.804 382.5,269C 380.545,275.766 378.711,282.599 377,289.5C 370.497,307.802 361.663,324.802 350.5,340.5 Z"/></g>
<g><path style="opacity:0.012" fill="#84868b" d="M 394.5,290.5 C 394.833,290.5 395.167,290.5 395.5,290.5C 395.737,291.791 395.404,292.791 394.5,293.5C 394.5,292.5 394.5,291.5 394.5,290.5 Z"/></g>
<g><path style="opacity:0.008" fill="#93969c" d="M 55.5,293.5 C 55.631,294.239 55.4643,294.906 55,295.5C 54.3083,294.563 54.475,293.897 55.5,293.5 Z"/></g>
<g><path style="opacity:0.012" fill="#7b7e84" d="M 393.5,293.5 C 393.833,293.5 394.167,293.5 394.5,293.5C 394.737,294.791 394.404,295.791 393.5,296.5C 393.5,295.5 393.5,294.5 393.5,293.5 Z"/></g>
<g><path style="opacity:0.008" fill="#9d9fa4" d="M 56.5,296.5 C 56.5,297.167 56.5,297.833 56.5,298.5C 55.1667,297.833 55.1667,297.167 56.5,296.5 Z"/></g>
<g><path style="opacity:0.008" fill="#85878b" d="M 392.5,296.5 C 392.833,296.5 393.167,296.5 393.5,296.5C 393.167,299.167 392.833,299.167 392.5,296.5 Z"/></g>
<g><path style="opacity:0.012" fill="#77787e" d="M 56.5,298.5 C 56.8333,298.5 57.1667,298.5 57.5,298.5C 57.5,299.5 57.5,300.5 57.5,301.5C 56.596,300.791 56.2627,299.791 56.5,298.5 Z"/></g>
<g><path style="opacity:1" fill="#091429" d="M 251.5,99.5 C 292.743,108.105 324.076,130.439 345.5,166.5C 348.655,173.478 351.821,180.478 355,187.5C 355.826,190.212 355.326,192.545 353.5,194.5C 352.97,192.076 352.136,189.743 351,187.5C 351.466,192.058 352.632,196.391 354.5,200.5C 362.731,235.653 358.731,269.319 342.5,301.5C 339.5,305.5 336.5,309.5 333.5,313.5C 333.815,311.774 333.981,310.107 334,308.5C 331.618,311.219 328.951,313.553 326,315.5C 325.055,315.095 324.388,314.428 324,313.5C 323.966,311.82 323.799,310.32 323.5,309C 329.333,305.833 333.833,301.333 337,295.5C 337.291,284.918 336.791,274.418 335.5,264C 335.196,238.383 335.53,212.717 336.5,187C 335.883,182.71 334.717,178.543 333,174.5C 330.044,172.511 327.211,170.344 324.5,168C 323.054,166.702 321.721,166.535 320.5,167.5C 291.131,150.485 261.798,133.485 232.5,116.5C 232.811,115.522 233.478,114.855 234.5,114.5C 253.79,124.478 272.79,134.978 291.5,146C 299.744,150.541 308.244,154.374 317,157.5C 316.954,155.687 317.12,154.021 317.5,152.5C 308.928,138.76 297.594,127.927 283.5,120C 245.879,100.689 208.212,100.689 170.5,120C 156.711,128.789 145.211,139.956 136,153.5C 135.692,157.367 137.359,158.367 141,156.5C 141.513,157.527 142.013,158.527 142.5,159.5C 136.363,162.736 130.363,166.236 124.5,170C 121.115,173.213 118.782,177.046 117.5,181.5C 116.824,217.86 116.157,254.36 115.5,291C 116.104,293.584 116.937,296.084 118,298.5C 124.441,304.628 131.608,309.795 139.5,314C 140.874,317.134 142.54,320.134 144.5,323C 153.316,328.408 162.65,332.741 172.5,336C 173.781,338.947 175.781,341.281 178.5,343C 186.163,347.888 194.497,350.555 203.5,351C 210.194,355.929 217.694,358.762 226,359.5C 241.239,354.784 256.739,350.95 272.5,348C 275.859,346.617 279.193,345.284 282.5,344C 285.659,341.851 287.992,339.017 289.5,335.5C 291.982,334.103 294.648,333.269 297.5,333C 303.673,329.076 310.339,326.576 317.5,325.5C 316.986,327.698 315.986,329.698 314.5,331.5C 314.863,332.183 315.196,332.85 315.5,333.5C 311.357,337.733 307.023,341.733 302.5,345.5C 294.32,350.424 285.987,355.09 277.5,359.5C 242.155,372.833 206.821,372.833 171.5,359.5C 164.174,355.504 156.841,351.504 149.5,347.5C 147.5,345.5 145.5,343.5 143.5,341.5C 138.209,335.039 132.709,328.705 127,322.5C 105.596,295.604 95.0959,265.437 95.5,232C 99.5233,184.098 121.19,146.598 160.5,119.5C 165.59,117.788 170.256,115.288 174.5,112C 196.73,103.705 219.73,100.205 243.5,101.5C 248.508,102.339 253.508,102.839 258.5,103C 255.833,102.333 253.167,101.667 250.5,101C 251.056,100.617 251.389,100.117 251.5,99.5 Z"/></g>
<g><path style="opacity:1" fill="#0c1a37" d="M 316.5,292.5 C 312.053,296.564 307.053,299.898 301.5,302.5C 288.794,269.391 276.461,236.058 264.5,202.5C 267.267,201.068 269.934,201.401 272.5,203.5C 281.764,227.823 292.264,251.489 304,274.5C 306.233,276.478 307.4,278.645 307.5,281C 308.448,281.483 309.448,281.649 310.5,281.5C 309.923,284.55 311.09,286.55 314,287.5C 314.847,289.193 315.68,290.86 316.5,292.5 Z"/></g>
<g><path style="opacity:1" fill="#a5c7d6" d="M 330.5,289.5 C 330.5,290.167 330.5,290.833 330.5,291.5C 329.218,295.304 326.885,298.471 323.5,301C 317.14,304.512 310.806,308.012 304.5,311.5C 303.304,308.579 302.304,305.579 301.5,302.5C 307.053,299.898 312.053,296.564 316.5,292.5C 318.163,290.507 319.33,288.174 320,285.5C 320.831,251.664 320.664,217.998 319.5,184.5C 318.523,181.011 316.523,178.177 313.5,176C 285.94,160.392 258.607,144.559 231.5,128.5C 231.735,127.903 232.235,127.57 233,127.5C 259.116,142.473 285.283,157.307 311.5,172C 314.78,174.862 318.28,177.362 322,179.5C 323.399,182.363 324.399,185.363 325,188.5C 325.035,218.539 326.035,248.539 328,278.5C 328.333,263.833 328.667,249.167 329,234.5C 329.168,253.005 329.668,271.338 330.5,289.5 Z"/></g>
<g><path style="opacity:1" fill="#0f2040" d="M 192.5,180.5 C 177.107,221.013 162.107,261.679 147.5,302.5C 141.434,299.808 136.1,296.141 131.5,291.5C 131.705,289.215 132.038,286.882 132.5,284.5C 134.278,284.569 136.111,284.903 138,285.5C 142.354,279.856 146.354,273.856 150,267.5C 162.22,240.537 173.887,213.204 185,185.5C 186.33,181.993 188.83,180.327 192.5,180.5 Z"/></g>
<g><path style="opacity:1" fill="#0f2042" d="M 319.5,184.5 C 320.664,217.998 320.831,251.664 320,285.5C 319.33,288.174 318.163,290.507 316.5,292.5C 315.68,290.86 314.847,289.193 314,287.5C 311.09,286.55 309.923,284.55 310.5,281.5C 309.448,281.649 308.448,281.483 307.5,281C 307.4,278.645 306.233,276.478 304,274.5C 292.264,251.489 281.764,227.823 272.5,203.5C 269.934,201.401 267.267,201.068 264.5,202.5C 263.833,202.167 263.167,201.833 262.5,201.5C 261.889,196.268 262.556,191.101 264.5,186C 263.646,181.581 261.313,180.081 257.5,181.5C 249.252,180.531 240.918,180.198 232.5,180.5C 241.513,179.768 250.68,179.101 260,178.5C 266.052,179.429 269.552,182.929 270.5,189C 269.595,192.566 268.928,195.9 268.5,199C 271.576,199.346 274.576,200.012 277.5,201C 278.622,203.124 280.122,204.957 282,206.5C 282.974,204.122 283.641,204.456 284,207.5C 284.333,207.167 284.667,206.833 285,206.5C 285.956,207.579 286.789,208.745 287.5,210C 290.733,212.56 294.233,214.726 298,216.5C 299.113,215.24 299.28,214.073 298.5,213C 301.72,212.357 303.887,210.524 305,207.5C 305.915,208.328 306.581,209.328 307,210.5C 307.084,206.057 309.084,204.39 313,205.5C 313.617,204.551 313.451,203.718 312.5,203C 314.081,202.293 315.581,201.46 317,200.5C 316.464,202.447 316.798,204.447 318,206.5C 318.171,198.989 318.671,191.655 319.5,184.5 Z"/></g>
<g><path style="opacity:1" fill="#b4d1de" d="M 232.5,116.5 C 261.798,133.485 291.131,150.485 320.5,167.5C 325.566,170.07 329.066,174.07 331,179.5C 331.826,216.238 331.66,252.905 330.5,289.5C 329.668,271.338 329.168,253.005 329,234.5C 328.667,249.167 328.333,263.833 328,278.5C 326.035,248.539 325.035,218.539 325,188.5C 324.399,185.363 323.399,182.363 322,179.5C 318.28,177.362 314.78,174.862 311.5,172C 285.283,157.307 259.116,142.473 233,127.5C 232.235,127.57 231.735,127.903 231.5,128.5C 225.605,126.756 219.938,127.256 214.5,130C 188.5,145 162.5,160 136.5,175C 132.61,177.596 129.777,181.096 128,185.5C 127.333,218.5 127.333,251.5 128,284.5C 128.67,287.174 129.837,289.507 131.5,291.5C 136.1,296.141 141.434,299.808 147.5,302.5C 146.345,305.457 145.345,308.457 144.5,311.5C 138.194,308.012 131.86,304.512 125.5,301C 121.743,297.579 119.243,293.412 118,288.5C 117.5,252.835 117.333,217.168 117.5,181.5C 118.782,177.046 121.115,173.213 124.5,170C 130.363,166.236 136.363,162.736 142.5,159.5C 167.473,145.012 192.473,130.512 217.5,116C 222.552,115.274 227.552,115.441 232.5,116.5 Z"/></g>
<g><path style="opacity:1" fill="#112448" d="M 231.5,128.5 C 258.607,144.559 285.94,160.392 313.5,176C 316.523,178.177 318.523,181.011 319.5,184.5C 318.671,191.655 318.171,198.989 318,206.5C 316.798,204.447 316.464,202.447 317,200.5C 315.581,201.46 314.081,202.293 312.5,203C 313.451,203.718 313.617,204.551 313,205.5C 309.084,204.39 307.084,206.057 307,210.5C 306.581,209.328 305.915,208.328 305,207.5C 303.887,210.524 301.72,212.357 298.5,213C 299.28,214.073 299.113,215.24 298,216.5C 294.233,214.726 290.733,212.56 287.5,210C 286.789,208.745 285.956,207.579 285,206.5C 284.667,206.833 284.333,207.167 284,207.5C 283.641,204.456 282.974,204.122 282,206.5C 280.122,204.957 278.622,203.124 277.5,201C 274.576,200.012 271.576,199.346 268.5,199C 268.928,195.9 269.595,192.566 270.5,189C 269.552,182.929 266.052,179.429 260,178.5C 250.68,179.101 241.513,179.768 232.5,180.5C 230.806,181.527 229.473,182.861 228.5,184.5C 228.565,184.062 228.399,183.728 228,183.5C 227.667,184.167 227.333,184.833 227,185.5C 225.155,183.913 223.155,182.579 221,181.5C 219.989,182.056 219.156,182.722 218.5,183.5C 218.5,182.5 218.5,181.5 218.5,180.5C 209.833,180.5 201.167,180.5 192.5,180.5C 188.83,180.327 186.33,181.993 185,185.5C 173.887,213.204 162.22,240.537 150,267.5C 146.354,273.856 142.354,279.856 138,285.5C 136.111,284.903 134.278,284.569 132.5,284.5C 132.038,286.882 131.705,289.215 131.5,291.5C 129.837,289.507 128.67,287.174 128,284.5C 127.333,251.5 127.333,218.5 128,185.5C 129.777,181.096 132.61,177.596 136.5,175C 162.5,160 188.5,145 214.5,130C 219.938,127.256 225.605,126.756 231.5,128.5 Z"/></g>
<g><path style="opacity:1" fill="#0f1b35" d="M 232.5,116.5 C 227.552,115.441 222.552,115.274 217.5,116C 192.473,130.512 167.473,145.012 142.5,159.5C 142.013,158.527 141.513,157.527 141,156.5C 137.359,158.367 135.692,157.367 136,153.5C 145.211,139.956 156.711,128.789 170.5,120C 208.212,100.689 245.879,100.689 283.5,120C 297.594,127.927 308.928,138.76 317.5,152.5C 317.12,154.021 316.954,155.687 317,157.5C 308.244,154.374 299.744,150.541 291.5,146C 272.79,134.978 253.79,124.478 234.5,114.5C 233.478,114.855 232.811,115.522 232.5,116.5 Z"/></g>
<g><path style="opacity:0.004" fill="#a0a0a3" d="M 391.5,301.5 C 391.369,300.761 391.536,300.094 392,299.5C 392.692,300.437 392.525,301.103 391.5,301.5 Z"/></g>
<g><path style="opacity:0.008" fill="#97999f" d="M 57.5,301.5 C 57.8333,301.5 58.1667,301.5 58.5,301.5C 58.1667,304.167 57.8333,304.167 57.5,301.5 Z"/></g>
<g><path style="opacity:0.012" fill="#777a80" d="M 390.5,301.5 C 390.833,301.5 391.167,301.5 391.5,301.5C 391.167,304.167 390.833,304.167 390.5,301.5 Z"/></g>
<g><path style="opacity:0.012" fill="#9ea0a4" d="M 58.5,304.5 C 59.8333,305.167 59.8333,305.167 58.5,304.5 Z"/></g>
<g><path style="opacity:0.004" fill="#9fa1a3" d="M 389.5,304.5 C 390.833,305.167 390.833,305.833 389.5,306.5C 389.5,305.833 389.5,305.167 389.5,304.5 Z"/></g>
<g><path style="opacity:0.004" fill="#a3a4a8" d="M 60.5,306.5 C 60.5,307.167 60.5,307.833 60.5,308.5C 59.1667,307.833 59.1667,307.167 60.5,306.5 Z"/></g>
<g><path style="opacity:0.008" fill="#929497" d="M 388.5,306.5 C 388.833,306.5 389.167,306.5 389.5,306.5C 389.672,307.492 389.338,308.158 388.5,308.5C 388.5,307.833 388.5,307.167 388.5,306.5 Z"/></g>
<g><path style="opacity:0.008" fill="#98999f" d="M 60.5,308.5 C 60.8333,308.5 61.1667,308.5 61.5,308.5C 61.5,309.167 61.5,309.833 61.5,310.5C 60.6618,310.158 60.3284,309.492 60.5,308.5 Z"/></g>
<g><path style="opacity:0.008" fill="#797c82" d="M 387.5,308.5 C 387.833,308.5 388.167,308.5 388.5,308.5C 388.167,311.167 387.833,311.167 387.5,308.5 Z"/></g>
<g><path style="opacity:0.008" fill="#80838a" d="M 61.5,310.5 C 61.8333,310.5 62.1667,310.5 62.5,310.5C 62.5,311.167 62.5,311.833 62.5,312.5C 61.6618,312.158 61.3284,311.492 61.5,310.5 Z"/></g>
<g><path style="opacity:0.012" fill="#999c9e" d="M 386.5,311.5 C 387.833,312.167 387.833,312.167 386.5,311.5 Z"/></g>
<g><path style="opacity:0.008" fill="#71747e" d="M 62.5,312.5 C 62.8333,312.5 63.1667,312.5 63.5,312.5C 63.5,313.167 63.5,313.833 63.5,314.5C 62.6618,314.158 62.3284,313.492 62.5,312.5 Z"/></g>
<g><path style="opacity:0.012" fill="#9a9c9e" d="M 385.5,313.5 C 386.833,314.167 386.833,314.167 385.5,313.5 Z"/></g>
<g><path style="opacity:0.008" fill="#767981" d="M 63.5,314.5 C 63.8333,314.5 64.1667,314.5 64.5,314.5C 64.5,315.167 64.5,315.833 64.5,316.5C 63.6618,316.158 63.3284,315.492 63.5,314.5 Z"/></g>
<g><path style="opacity:1" fill="#070b14" d="M 182.5,283.5 C 183.095,292.544 180.595,300.544 175,307.5C 174.305,313.012 172.972,318.346 171,323.5C 170.075,324.047 169.242,324.713 168.5,325.5C 171.184,327.193 173.851,328.86 176.5,330.5C 183.5,334.5 190.5,338.5 197.5,342.5C 204.235,346.04 210.902,349.873 217.5,354C 222.921,354.839 228.254,354.506 233.5,353C 238.72,349.607 244.053,346.44 249.5,343.5C 257.004,338.913 264.671,334.58 272.5,330.5C 275.709,328.735 278.709,326.735 281.5,324.5C 289.428,320.559 297.095,316.226 304.5,311.5C 310.806,308.012 317.14,304.512 323.5,301C 326.885,298.471 329.218,295.304 330.5,291.5C 331.97,294.686 331.47,297.686 329,300.5C 321.833,305 314.667,309.5 307.5,314C 306.019,316.762 304.353,319.429 302.5,322C 293.784,326.575 284.784,330.575 275.5,334C 274.226,337.606 271.893,340.273 268.5,342C 260.182,345.159 251.848,348.159 243.5,351C 239.835,352.497 236.502,354.497 233.5,357C 223.794,358.329 215.128,355.995 207.5,350C 195.122,346.987 184.122,341.32 174.5,333C 162.802,328.381 152.802,322.214 144.5,314.5C 143.45,313.571 143.45,312.905 144.5,312.5C 151.779,316.475 159.113,320.475 166.5,324.5C 171.852,310.768 177.185,297.101 182.5,283.5 Z"/></g>
<g><path style="opacity:1" fill="#0d1c3a" d="M 241.5,337.5 C 237.367,339.4 233.367,341.567 229.5,344C 221.29,345.599 214.29,343.432 208.5,337.5C 212.237,325.462 216.403,313.129 221,300.5C 221.911,297.424 223.744,295.091 226.5,293.5C 228.146,294.779 229.313,296.445 230,298.5C 234.505,310.683 239.005,322.85 243.5,335C 242.619,335.708 241.953,336.542 241.5,337.5 Z"/></g>
<g><path style="opacity:0.012" fill="#999b9d" d="M 384.5,315.5 C 385.833,316.167 385.833,316.167 384.5,315.5 Z"/></g>
<g><path style="opacity:0.008" fill="#7a7d85" d="M 64.5,316.5 C 64.8333,316.5 65.1667,316.5 65.5,316.5C 65.5,317.167 65.5,317.833 65.5,318.5C 64.6618,318.158 64.3284,317.492 64.5,316.5 Z"/></g>
<g><path style="opacity:0.012" fill="#989a9c" d="M 383.5,317.5 C 384.833,318.167 384.833,318.167 383.5,317.5 Z"/></g>
<g><path style="opacity:0.008" fill="#7a7e86" d="M 65.5,318.5 C 65.8333,318.5 66.1667,318.5 66.5,318.5C 66.5,319.167 66.5,319.833 66.5,320.5C 65.6618,320.158 65.3284,319.492 65.5,318.5 Z"/></g>
<g><path style="opacity:0.012" fill="#9fa1a2" d="M 382.5,319.5 C 383.833,320.167 383.833,320.167 382.5,319.5 Z"/></g>
<g><path style="opacity:1" fill="#739eb4" d="M 278.5,317.5 C 279.659,319.855 280.659,322.188 281.5,324.5C 278.709,326.735 275.709,328.735 272.5,330.5C 271.55,326.647 270.217,322.98 268.5,319.5C 269.15,319.804 269.817,320.137 270.5,320.5C 272.745,318.377 275.412,317.377 278.5,317.5 Z"/></g>
<g><path style="opacity:0.004" fill="#9b9ca1" d="M 66.5,320.5 C 66.8333,320.5 67.1667,320.5 67.5,320.5C 67.5,321.167 67.5,321.833 67.5,322.5C 66.6618,322.158 66.3284,321.492 66.5,320.5 Z"/></g>
<g><path style="opacity:0.008" fill="#73767c" d="M 381.5,320.5 C 381.833,320.5 382.167,320.5 382.5,320.5C 382.672,321.492 382.338,322.158 381.5,322.5C 381.5,321.833 381.5,321.167 381.5,320.5 Z"/></g>
<g><path style="opacity:0.012" fill="#8c9094" d="M 67.5,322.5 C 67.8333,322.5 68.1667,322.5 68.5,322.5C 68.3147,323.17 67.9813,323.17 67.5,322.5 Z"/></g>
<g><path style="opacity:0.004" fill="#9a9c9f" d="M 380.5,322.5 C 380.833,322.5 381.167,322.5 381.5,322.5C 381.672,323.492 381.338,324.158 380.5,324.5C 380.5,323.833 380.5,323.167 380.5,322.5 Z"/></g>
<g><path style="opacity:0.016" fill="#888b8e" d="M 379.5,324.5 C 379.833,324.5 380.167,324.5 380.5,324.5C 380.315,325.17 379.981,325.17 379.5,324.5 Z"/></g>
<g><path style="opacity:0.008" fill="#6c6d6e" d="M 70.5,325.5 C 70.5,326.167 70.5,326.833 70.5,327.5C 69.1667,326.833 69.1667,326.167 70.5,325.5 Z"/></g>
<g><path style="opacity:0.012" fill="#9b9d9e" d="M 378.5,326.5 C 379.833,327.167 379.833,327.167 378.5,326.5 Z"/></g>
<g><path style="opacity:0.651" fill="#909296" d="M 389.5,301.5 C 389.5,302.5 389.5,303.5 389.5,304.5C 388.662,304.842 388.328,305.508 388.5,306.5C 387.662,306.842 387.328,307.508 387.5,308.5C 384.992,312.182 382.992,316.182 381.5,320.5C 380.662,320.842 380.328,321.508 380.5,322.5C 379.662,322.842 379.328,323.508 379.5,324.5C 378.662,324.842 378.328,325.508 378.5,326.5C 377.833,326.5 377.5,326.833 377.5,327.5C 376.662,327.842 376.328,328.508 376.5,329.5C 375.833,329.5 375.5,329.833 375.5,330.5C 374.662,330.842 374.328,331.508 374.5,332.5C 373.662,332.842 373.328,333.508 373.5,334.5C 372.833,334.5 372.5,334.833 372.5,335.5C 371.833,335.833 371.167,336.167 370.5,336.5C 377.106,324.954 383.439,313.287 389.5,301.5 Z"/></g>
<g><path style="opacity:0.004" fill="#a2a3a6" d="M 70.5,327.5 C 70.8333,327.5 71.1667,327.5 71.5,327.5C 71.1667,330.167 70.8333,330.167 70.5,327.5 Z"/></g>
<g><path style="opacity:0.004" fill="#84868b" d="M 377.5,327.5 C 377.833,327.5 378.167,327.5 378.5,327.5C 378.672,328.492 378.338,329.158 377.5,329.5C 377.5,328.833 377.5,328.167 377.5,327.5 Z"/></g>
<g><path style="opacity:0.016" fill="#8e9092" d="M 376.5,329.5 C 376.833,329.5 377.167,329.5 377.5,329.5C 377.315,330.17 376.981,330.17 376.5,329.5 Z"/></g>
<g><path style="opacity:0.004" fill="#8c8e93" d="M 73.5,330.5 C 73.631,331.239 73.4643,331.906 73,332.5C 72.3083,331.563 72.475,330.897 73.5,330.5 Z"/></g>
<g><path style="opacity:0.008" fill="#6d6e6f" d="M 375.5,330.5 C 375.833,330.5 376.167,330.5 376.5,330.5C 376.672,331.492 376.338,332.158 375.5,332.5C 375.5,331.833 375.5,331.167 375.5,330.5 Z"/></g>
<g><path style="opacity:0.737" fill="#94969c" d="M 54.5,284.5 C 55.3485,286.888 56.3485,289.221 57.5,291.5C 60.7784,303.357 65.7784,314.357 72.5,324.5C 76.1023,331.429 80.1023,338.095 84.5,344.5C 82.4727,343.139 80.806,341.473 79.5,339.5C 79.0679,338.29 78.4013,337.29 77.5,336.5C 77.0679,335.29 76.4013,334.29 75.5,333.5C 75.0679,332.29 74.4013,331.29 73.5,330.5C 73.0679,329.29 72.4013,328.29 71.5,327.5C 71.6716,326.508 71.3382,325.842 70.5,325.5C 70.0679,324.29 69.4013,323.29 68.5,322.5C 68.6716,321.508 68.3382,320.842 67.5,320.5C 67.6716,319.508 67.3382,318.842 66.5,318.5C 66.6716,317.508 66.3382,316.842 65.5,316.5C 65.6716,315.508 65.3382,314.842 64.5,314.5C 64.6716,313.508 64.3382,312.842 63.5,312.5C 63.6716,311.508 63.3382,310.842 62.5,310.5C 62.6716,309.508 62.3382,308.842 61.5,308.5C 61.6716,307.508 61.3382,306.842 60.5,306.5C 60.5979,304.447 59.9313,302.78 58.5,301.5C 58.7373,300.209 58.404,299.209 57.5,298.5C 57.6716,297.508 57.3382,296.842 56.5,296.5C 56.7373,295.209 56.404,294.209 55.5,293.5C 55.7373,292.209 55.404,291.209 54.5,290.5C 54.5,289.5 54.5,288.5 54.5,287.5C 54.5,286.5 54.5,285.5 54.5,284.5 Z"/></g>
<g><path style="opacity:0.004" fill="#a8a9ab" d="M 374.5,332.5 C 374.833,332.5 375.167,332.5 375.5,332.5C 375.672,333.492 375.338,334.158 374.5,334.5C 374.5,333.833 374.5,333.167 374.5,332.5 Z"/></g>
<g><path style="opacity:0.008" fill="#707071" d="M 75.5,333.5 C 75.631,334.239 75.4643,334.906 75,335.5C 74.3083,334.563 74.475,333.897 75.5,333.5 Z"/></g>
<g><path style="opacity:0.012" fill="#a5a7a7" d="M 373.5,334.5 C 373.833,334.5 374.167,334.5 374.5,334.5C 374.315,335.17 373.981,335.17 373.5,334.5 Z"/></g>
<g><path style="opacity:0.012" fill="#767a7e" d="M 372.5,335.5 C 372.833,335.5 373.167,335.5 373.5,335.5C 373.315,336.17 372.981,336.17 372.5,335.5 Z"/></g>
<g><path style="opacity:0.004" fill="#7a7c83" d="M 77.5,336.5 C 77.631,337.239 77.4643,337.906 77,338.5C 76.3083,337.563 76.475,336.897 77.5,336.5 Z"/></g>
<g><path style="opacity:0.008" fill="#acaead" d="M 371.5,337.5 C 372.833,338.167 372.833,338.167 371.5,337.5 Z"/></g>
<g><path style="opacity:0.38" fill="#9c9da0" d="M 370.5,336.5 C 370.5,337.167 370.5,337.833 370.5,338.5C 369.833,338.5 369.5,338.833 369.5,339.5C 368.662,339.842 368.328,340.508 368.5,341.5C 367.833,341.5 367.5,341.833 367.5,342.5C 366.833,342.5 366.5,342.833 366.5,343.5C 366.167,343.5 365.833,343.5 365.5,343.5C 366.433,340.63 368.1,338.296 370.5,336.5 Z"/></g>
<g><path style="opacity:0.016" fill="#8b8e90" d="M 370.5,338.5 C 370.833,338.5 371.167,338.5 371.5,338.5C 371.315,339.17 370.981,339.17 370.5,338.5 Z"/></g>
<g><path style="opacity:0.004" fill="#a0a1a4" d="M 79.5,339.5 C 79.631,340.239 79.4643,340.906 79,341.5C 78.3083,340.563 78.475,339.897 79.5,339.5 Z"/></g>
<g><path style="opacity:0.004" fill="#787a7f" d="M 369.5,339.5 C 369.833,339.5 370.167,339.5 370.5,339.5C 370.672,340.492 370.338,341.158 369.5,341.5C 369.5,340.833 369.5,340.167 369.5,339.5 Z"/></g>
<g><path style="opacity:0.012" fill="#9ea0a0" d="M 368.5,341.5 C 368.833,341.5 369.167,341.5 369.5,341.5C 369.315,342.17 368.981,342.17 368.5,341.5 Z"/></g>
<g><path style="opacity:0.016" fill="#777b7e" d="M 367.5,342.5 C 367.833,342.5 368.167,342.5 368.5,342.5C 368.315,343.17 367.981,343.17 367.5,342.5 Z"/></g>
<g><path style="opacity:0.004" fill="#787978" d="M 366.5,343.5 C 366.833,343.5 367.167,343.5 367.5,343.5C 367.672,344.492 367.338,345.158 366.5,345.5C 366.5,344.833 366.5,344.167 366.5,343.5 Z"/></g>
<g><path style="opacity:0.902" fill="#949599" d="M 84.5,345.5 C 86.8333,345.833 88.1667,347.167 88.5,349.5C 86.8333,348.5 85.5,347.167 84.5,345.5 Z"/></g>
<g><path style="opacity:0.012" fill="#a6a8a8" d="M 365.5,345.5 C 365.833,345.5 366.167,345.5 366.5,345.5C 366.315,346.17 365.981,346.17 365.5,345.5 Z"/></g>
<g><path style="opacity:1" fill="#081022" d="M 72.5,324.5 C 74.0174,324.511 75.1841,325.177 76,326.5C 77.7909,331.635 80.4576,336.301 84,340.5C 89.7792,346.279 95.6126,352.113 101.5,358C 145.751,392.892 195.751,407.225 251.5,401C 250.263,401.232 249.263,401.732 248.5,402.5C 242.697,402.961 237.03,404.127 231.5,406C 236.823,406.499 242.156,406.666 247.5,406.5C 241.924,408.121 234.257,409.121 224.5,409.5C 194.254,409.022 165.92,401.522 139.5,387C 135.554,385.519 131.554,384.353 127.5,383.5C 125.359,380.528 122.692,378.028 119.5,376C 118.423,375.53 117.423,375.697 116.5,376.5C 115.089,374.086 113.089,372.419 110.5,371.5C 106.108,366.106 101.108,361.439 95.5,357.5C 93.8536,354.19 91.5203,351.523 88.5,349.5C 88.1667,347.167 86.8333,345.833 84.5,345.5C 84.5,345.167 84.5,344.833 84.5,344.5C 80.1023,338.095 76.1023,331.429 72.5,324.5 Z"/></g>
<g><path style="opacity:0.333" fill="#9d9ea1" d="M 365.5,343.5 C 365.5,344.167 365.5,344.833 365.5,345.5C 364.833,345.5 364.5,345.833 364.5,346.5C 363.833,346.5 363.5,346.833 363.5,347.5C 362.833,347.833 362.167,348.167 361.5,348.5C 362.08,346.251 363.413,344.585 365.5,343.5 Z"/></g>
<g><path style="opacity:0.016" fill="#8e9192" d="M 364.5,346.5 C 364.833,346.5 365.167,346.5 365.5,346.5C 365.315,347.17 364.981,347.17 364.5,346.5 Z"/></g>
<g><path style="opacity:0.012" fill="#55595f" d="M 363.5,347.5 C 363.833,347.5 364.167,347.5 364.5,347.5C 364.315,348.17 363.981,348.17 363.5,347.5 Z"/></g>
<g><path style="opacity:0.008" fill="#b8bab9" d="M 362.5,349.5 C 363.833,350.167 363.833,350.167 362.5,349.5 Z"/></g>
<g><path style="opacity:0.816" fill="#8a8c91" d="M 88.5,349.5 C 91.5203,351.523 93.8536,354.19 95.5,357.5C 95.1667,357.5 94.8333,357.5 94.5,357.5C 94.5,356.833 94.1667,356.5 93.5,356.5C 91.4202,354.427 89.7536,352.093 88.5,349.5 Z"/></g>
<g><path style="opacity:0.012" fill="#aaacac" d="M 361.5,350.5 C 361.833,350.5 362.167,350.5 362.5,350.5C 362.315,351.17 361.981,351.17 361.5,350.5 Z"/></g>
<g><path style="opacity:0.18" fill="#a4a5a7" d="M 361.5,348.5 C 361.5,349.167 361.5,349.833 361.5,350.5C 360.833,350.5 360.5,350.833 360.5,351.5C 359.833,351.5 359.5,351.833 359.5,352.5C 358.833,352.5 358.5,352.833 358.5,353.5C 357.833,353.5 357.5,353.833 357.5,354.5C 356.833,354.833 356.167,355.167 355.5,355.5C 356.757,352.573 358.757,350.239 361.5,348.5 Z"/></g>
<g><path style="opacity:0.016" fill="#9d9fa0" d="M 360.5,351.5 C 360.833,351.5 361.167,351.5 361.5,351.5C 361.315,352.17 360.981,352.17 360.5,351.5 Z"/></g>
<g><path style="opacity:0.016" fill="#8d8f91" d="M 359.5,352.5 C 359.833,352.5 360.167,352.5 360.5,352.5C 360.315,353.17 359.981,353.17 359.5,352.5 Z"/></g>
<g><path style="opacity:0.016" fill="#73777a" d="M 358.5,353.5 C 358.833,353.5 359.167,353.5 359.5,353.5C 359.315,354.17 358.981,354.17 358.5,353.5 Z"/></g>
<g><path style="opacity:0.008" fill="#343942" d="M 357.5,354.5 C 357.833,354.5 358.167,354.5 358.5,354.5C 358.315,355.17 357.981,355.17 357.5,354.5 Z"/></g>
<g><path style="opacity:0.004" fill="#747373" d="M 93.5,356.5 C 94.1667,356.5 94.5,356.833 94.5,357.5C 94.2533,359.975 93.5866,359.975 92.5,357.5C 92.6236,356.893 92.9569,356.56 93.5,356.5 Z"/></g>
<g><path style="opacity:1" fill="#76787e" d="M 95.5,357.5 C 101.108,361.439 106.108,366.106 110.5,371.5C 104.892,367.561 99.8918,362.894 95.5,357.5 Z"/></g>
<g><path style="opacity:0.004" fill="#cdcdcf" d="M 352.5,358.5 C 352.443,359.609 352.11,360.609 351.5,361.5C 351.167,361.5 350.833,361.5 350.5,361.5C 350.427,359.973 351.094,358.973 352.5,358.5 Z"/></g>
<g><path style="opacity:0.012" fill="#abadad" d="M 351.5,361.5 C 352.833,362.167 352.833,362.167 351.5,361.5 Z"/></g>
<g><path style="opacity:0.004" fill="#d4d5d6" d="M 350.5,361.5 C 350.5,361.833 350.5,362.167 350.5,362.5C 349.609,363.11 348.609,363.443 347.5,363.5C 347.973,362.094 348.973,361.427 350.5,361.5 Z"/></g>
<g><path style="opacity:0.008" fill="#acaead" d="M 350.5,362.5 C 350.833,362.5 351.167,362.5 351.5,362.5C 351.315,363.17 350.981,363.17 350.5,362.5 Z"/></g>
<g><path style="opacity:1" fill="#11203d" d="M 306.5,350.5 C 265.838,377.951 222.171,383.784 175.5,368C 162.237,362.705 149.904,355.872 138.5,347.5C 137.5,346.167 136.5,344.833 135.5,343.5C 131.231,337.697 126.065,332.031 120,326.5C 119.333,325.833 119.333,325.167 120,324.5C 125.667,330.167 131.333,335.833 137,341.5C 137.5,341 138,340.5 138.5,340C 137.04,339.189 136.707,338.355 137.5,337.5C 139.264,339.278 141.264,340.611 143.5,341.5C 145.5,343.5 147.5,345.5 149.5,347.5C 155.907,353.04 163.241,357.04 171.5,359.5C 187.994,367.329 205.494,371.329 224,371.5C 229.836,371.129 235.669,370.796 241.5,370.5C 208.927,376.271 177.26,368.938 146.5,348.5C 145.707,349.355 146.04,350.189 147.5,351C 198.836,382.333 250.17,382.333 301.5,351C 302.96,350.189 303.293,349.355 302.5,348.5C 285.246,360.911 266.246,367.911 245.5,369.5C 256.828,367.944 267.494,364.611 277.5,359.5C 286.93,356.623 295.263,351.956 302.5,345.5C 307.023,341.733 311.357,337.733 315.5,333.5C 318.786,331.549 321.786,329.215 324.5,326.5C 325.794,325.71 326.961,324.71 328,323.5C 328.333,324.167 328.667,324.833 329,325.5C 355.052,293.402 365.718,256.068 361,213.5C 366.645,246.024 361.312,276.691 345,305.5C 340.936,311.236 337.27,317.236 334,323.5C 325.602,333.399 316.435,342.399 306.5,350.5 Z"/></g>
<g><path style="opacity:1" fill="#9ec2d2" d="M 202.5,333.5 C 202.285,335.179 202.952,336.179 204.5,336.5C 205.568,337.434 206.901,337.768 208.5,337.5C 214.29,343.432 221.29,345.599 229.5,344C 233.367,341.567 237.367,339.4 241.5,337.5C 243.848,337.408 245.514,336.408 246.5,334.5C 247.669,337.341 248.669,340.341 249.5,343.5C 244.053,346.44 238.72,349.607 233.5,353C 228.254,354.506 222.921,354.839 217.5,354C 210.902,349.873 204.235,346.04 197.5,342.5C 198.497,342.53 199.164,342.03 199.5,341C 200.233,338.28 201.233,335.78 202.5,333.5 Z"/></g>
<g><path style="opacity:0.993" fill="#535761" d="M 347.5,363.5 C 345.833,365.5 344.167,367.5 342.5,369.5C 341.833,369.5 341.5,369.833 341.5,370.5C 340.833,370.5 340.5,370.833 340.5,371.5C 338.246,372.124 336.579,373.457 335.5,375.5C 334.833,375.5 334.5,375.833 334.5,376.5C 332.973,376.427 331.973,377.094 331.5,378.5C 330.833,378.5 330.5,378.833 330.5,379.5C 328.973,379.427 327.973,380.094 327.5,381.5C 326.833,381.5 326.5,381.833 326.5,382.5C 325.508,382.328 324.842,382.662 324.5,383.5C 323.833,383.5 323.5,383.833 323.5,384.5C 322.508,384.328 321.842,384.662 321.5,385.5C 320.833,385.5 320.5,385.833 320.5,386.5C 319.833,386.5 319.167,386.5 318.5,386.5C 319.234,385.292 319.567,383.959 319.5,382.5C 322.969,383.113 324.969,381.779 325.5,378.5C 326.873,378.657 328.207,378.49 329.5,378C 330.833,377.333 330.833,376.667 329.5,376C 330,375.5 330.5,375 331,374.5C 332.813,375.609 333.646,374.942 333.5,372.5C 335.942,372.646 336.609,371.813 335.5,370C 338.667,367.5 341.833,365 345,362.5C 345.671,363.252 346.504,363.586 347.5,363.5 Z"/></g>
<g><path style="opacity:1" fill="#182845" d="M 353.5,194.5 C 353.859,196.485 354.692,197.151 356,196.5C 357.587,201.768 358.92,207.101 360,212.5C 360,209.167 360,205.833 360,202.5C 360.749,206.251 361.749,209.918 363,213.5C 363.495,211.527 363.662,209.527 363.5,207.5C 368.517,233.896 366.35,259.896 357,285.5C 347.122,309.298 333.455,330.298 316,348.5C 325.032,340.634 333.532,332.301 341.5,323.5C 342.362,324.39 342.862,325.39 343,326.5C 340.666,330 337.832,333 334.5,335.5C 323.432,346.714 310.765,355.881 296.5,363C 284.306,367.731 271.973,372.065 259.5,376C 231.074,382.979 203.074,381.645 175.5,372C 156.852,366.182 140.186,357.015 125.5,344.5C 128.625,345.103 131.459,346.437 134,348.5C 134.5,348 135,347.5 135.5,347C 132.384,343.481 129.384,339.981 126.5,336.5C 129.767,338.427 132.767,340.761 135.5,343.5C 136.5,344.833 137.5,346.167 138.5,347.5C 138.062,347.435 137.728,347.601 137.5,348C 171.272,373.972 209.272,383.305 251.5,376C 272.175,371.993 290.841,363.659 307.5,351C 307.272,350.601 306.938,350.435 306.5,350.5C 316.435,342.399 325.602,333.399 334,323.5C 337.27,317.236 340.936,311.236 345,305.5C 361.312,276.691 366.645,246.024 361,213.5C 365.718,256.068 355.052,293.402 329,325.5C 328.667,324.833 328.333,324.167 328,323.5C 326.961,324.71 325.794,325.71 324.5,326.5C 327.89,322.442 330.89,318.109 333.5,313.5C 336.5,309.5 339.5,305.5 342.5,301.5C 346.083,296.673 348.916,291.339 351,285.5C 361.801,257.223 363.135,228.556 355,199.5C 354.601,199.728 354.435,200.062 354.5,200.5C 352.632,196.391 351.466,192.058 351,187.5C 352.136,189.743 352.97,192.076 353.5,194.5 Z"/></g>
<g><path style="opacity:0.016" fill="#656a6d" d="M 342.5,369.5 C 343.833,370.167 343.833,370.167 342.5,369.5 Z"/></g>
<g><path style="opacity:0.016" fill="#848789" d="M 341.5,370.5 C 341.833,370.5 342.167,370.5 342.5,370.5C 342.315,371.17 341.981,371.17 341.5,370.5 Z"/></g>
<g><path style="opacity:0.016" fill="#969899" d="M 340.5,371.5 C 340.833,371.5 341.167,371.5 341.5,371.5C 341.315,372.17 340.981,372.17 340.5,371.5 Z"/></g>
<g><path style="opacity:1" fill="#64738b" d="M 113.5,332.5 C 117.167,336.833 121.167,340.833 125.5,344.5C 140.186,357.015 156.852,366.182 175.5,372C 203.074,381.645 231.074,382.979 259.5,376C 271.973,372.065 284.306,367.731 296.5,363C 310.765,355.881 323.432,346.714 334.5,335.5C 320.56,351.908 303.56,364.408 283.5,373C 230.404,394.592 180.738,388.592 134.5,355C 127.03,348.532 119.864,341.698 113,334.5C 112.308,333.563 112.475,332.897 113.5,332.5 Z"/></g>
<g><path style="opacity:1" fill="#263652" d="M 241.5,370.5 C 242.568,369.566 243.901,369.232 245.5,369.5C 266.246,367.911 285.246,360.911 302.5,348.5C 303.293,349.355 302.96,350.189 301.5,351C 250.17,382.333 198.836,382.333 147.5,351C 146.04,350.189 145.707,349.355 146.5,348.5C 177.26,368.938 208.927,376.271 241.5,370.5 Z"/></g>
<g><path style="opacity:1" fill="#637188" d="M 138.5,347.5 C 149.904,355.872 162.237,362.705 175.5,368C 222.171,383.784 265.838,377.951 306.5,350.5C 306.938,350.435 307.272,350.601 307.5,351C 290.841,363.659 272.175,371.993 251.5,376C 209.272,383.305 171.272,373.972 137.5,348C 137.728,347.601 138.062,347.435 138.5,347.5 Z"/></g>
<g><path style="opacity:1" fill="#3d4a61" d="M 171.5,359.5 C 206.821,372.833 242.155,372.833 277.5,359.5C 267.494,364.611 256.828,367.944 245.5,369.5C 243.901,369.232 242.568,369.566 241.5,370.5C 235.669,370.796 229.836,371.129 224,371.5C 205.494,371.329 187.994,367.329 171.5,359.5 Z"/></g>
<g><path style="opacity:1" fill="#344058" d="M 302.5,345.5 C 295.263,351.956 286.93,356.623 277.5,359.5C 285.987,355.09 294.32,350.424 302.5,345.5 Z"/></g>
<g><path style="opacity:1" fill="#344056" d="M 149.5,347.5 C 156.841,351.504 164.174,355.504 171.5,359.5C 163.241,357.04 155.907,353.04 149.5,347.5 Z"/></g>
<g><path style="opacity:0.808" fill="#959799" d="M 110.5,371.5 C 113.089,372.419 115.089,374.086 116.5,376.5C 113.911,375.581 111.911,373.914 110.5,371.5 Z"/></g>
<g><path style="opacity:0.016" fill="#808385" d="M 335.5,375.5 C 336.833,376.167 336.833,376.167 335.5,375.5 Z"/></g>
<g><path style="opacity:0.012" fill="#9d9f9f" d="M 334.5,376.5 C 334.833,376.5 335.167,376.5 335.5,376.5C 335.315,377.17 334.981,377.17 334.5,376.5 Z"/></g>
<g><path style="opacity:0.008" fill="#b3b4b3" d="M 334.5,377.5 C 333.833,378.167 333.833,378.167 334.5,377.5 Z"/></g>
<g><path style="opacity:0.984" fill="#4d5058" d="M 127.5,383.5 C 127.5,383.833 127.5,384.167 127.5,384.5C 125.5,383.5 123.5,382.5 121.5,381.5C 119.64,380.061 117.973,378.395 116.5,376.5C 117.423,375.697 118.423,375.53 119.5,376C 122.692,378.028 125.359,380.528 127.5,383.5 Z"/></g>
<g><path style="opacity:0.012" fill="#5f6367" d="M 331.5,378.5 C 332.833,379.167 332.833,379.167 331.5,378.5 Z"/></g>
<g><path style="opacity:0.016" fill="#8e9192" d="M 330.5,379.5 C 330.833,379.5 331.167,379.5 331.5,379.5C 331.315,380.17 330.981,380.17 330.5,379.5 Z"/></g>
<g><path style="opacity:0.008" fill="#aaabaa" d="M 330.5,380.5 C 329.833,381.167 329.833,381.167 330.5,380.5 Z"/></g>
<g><path style="opacity:0.016" fill="#8c8e8f" d="M 121.5,381.5 C 121.5,381.833 121.5,382.167 121.5,382.5C 120.83,382.019 120.83,381.685 121.5,381.5 Z"/></g>
<g><path style="opacity:0.016" fill="#7a7d80" d="M 327.5,381.5 C 328.833,382.167 328.833,382.167 327.5,381.5 Z"/></g>
<g><path style="opacity:0.008" fill="#a9aaaa" d="M 121.5,382.5 C 122.833,383.167 122.833,383.167 121.5,382.5 Z"/></g>
<g><path style="opacity:0.012" fill="#a1a3a3" d="M 326.5,382.5 C 326.833,382.5 327.167,382.5 327.5,382.5C 327.315,383.17 326.981,383.17 326.5,382.5 Z"/></g>
<g><path style="opacity:0.004" fill="#999a9b" d="M 324.5,384.5 C 324.5,384.167 324.5,383.833 324.5,383.5C 325.167,383.5 325.833,383.5 326.5,383.5C 326.158,384.338 325.492,384.672 324.5,384.5 Z"/></g>
<g><path style="opacity:0.012" fill="#949697" d="M 323.5,384.5 C 323.833,384.5 324.167,384.5 324.5,384.5C 324.315,385.17 323.981,385.17 323.5,384.5 Z"/></g>
<g><path style="opacity:0.012" fill="#898b8d" d="M 127.5,385.5 C 127.5,385.833 127.5,386.167 127.5,386.5C 124.833,386.167 124.833,385.833 127.5,385.5 Z"/></g>
<g><path style="opacity:0.997" fill="#151a26" d="M 127.5,383.5 C 131.554,384.353 135.554,385.519 139.5,387C 165.92,401.522 194.254,409.022 224.5,409.5C 234.257,409.121 241.924,408.121 247.5,406.5C 250.7,405.212 254.033,405.212 257.5,406.5C 263.782,404.743 270.115,403.576 276.5,403C 275.244,403.417 274.577,404.25 274.5,405.5C 252.302,411.862 229.636,414.195 206.5,412.5C 197.777,409.957 188.777,408.29 179.5,407.5C 171.029,404.12 162.362,401.12 153.5,398.5C 150.503,395.504 146.836,393.837 142.5,393.5C 142.027,392.094 141.027,391.427 139.5,391.5C 137.847,391.34 136.514,390.674 135.5,389.5C 135.027,388.094 134.027,387.427 132.5,387.5C 132.027,386.094 131.027,385.427 129.5,385.5C 128.833,385.5 128.167,385.5 127.5,385.5C 127.5,385.167 127.5,384.833 127.5,384.5C 127.5,384.167 127.5,383.833 127.5,383.5 Z"/></g>
<g><path style="opacity:0.004" fill="#939497" d="M 321.5,386.5 C 321.5,386.167 321.5,385.833 321.5,385.5C 322.167,385.5 322.833,385.5 323.5,385.5C 323.158,386.338 322.492,386.672 321.5,386.5 Z"/></g>
<g><path style="opacity:0.008" fill="#a5a7a7" d="M 127.5,386.5 C 128.833,387.167 128.833,387.167 127.5,386.5 Z"/></g>
<g><path style="opacity:0.675" fill="#959597" d="M 129.5,385.5 C 131.027,385.427 132.027,386.094 132.5,387.5C 130.973,387.573 129.973,386.906 129.5,385.5 Z"/></g>
<g><path style="opacity:0.012" fill="#9c9e9f" d="M 320.5,386.5 C 320.833,386.5 321.167,386.5 321.5,386.5C 321.315,387.17 320.981,387.17 320.5,386.5 Z"/></g>
<g><path style="opacity:0.016" fill="#747779" d="M 318.5,387.5 C 319.833,388.167 319.833,388.167 318.5,387.5 Z"/></g>
<g><path style="opacity:0.478" fill="#a7a7a9" d="M 132.5,387.5 C 134.027,387.427 135.027,388.094 135.5,389.5C 134.833,389.5 134.167,389.5 133.5,389.5C 133.167,388.833 132.833,388.167 132.5,387.5 Z"/></g>
<g><path style="opacity:0.537" fill="#939396" d="M 316.5,387.5 C 316.167,388.167 315.833,388.833 315.5,389.5C 314.508,389.328 313.842,389.662 313.5,390.5C 312.508,390.328 311.842,390.662 311.5,391.5C 310.833,391.5 310.167,391.5 309.5,391.5C 311.336,389.412 313.669,388.079 316.5,387.5 Z"/></g>
<g><path style="opacity:0.008" fill="#a0a2a2" d="M 318.5,388.5 C 317.833,389.167 317.833,389.167 318.5,388.5 Z"/></g>
<g><path style="opacity:0.012" fill="#909293" d="M 133.5,389.5 C 132.833,390.167 132.833,390.167 133.5,389.5 Z"/></g>
<g><path style="opacity:0.012" fill="#888a8c" d="M 315.5,389.5 C 316.833,390.167 316.833,390.167 315.5,389.5 Z"/></g>
<g><path style="opacity:0.004" fill="#999a9c" d="M 313.5,391.5 C 313.5,391.167 313.5,390.833 313.5,390.5C 314.167,390.5 314.833,390.5 315.5,390.5C 315.158,391.338 314.492,391.672 313.5,391.5 Z"/></g>
<g><path style="opacity:0.008" fill="#7b7d81" d="M 311.5,392.5 C 311.5,392.167 311.5,391.833 311.5,391.5C 312.167,391.5 312.833,391.5 313.5,391.5C 313.158,392.338 312.492,392.672 311.5,392.5 Z"/></g>
<g><path style="opacity:0.38" fill="#acadae" d="M 139.5,391.5 C 141.027,391.427 142.027,392.094 142.5,393.5C 141.833,393.5 141.167,393.5 140.5,393.5C 140.167,392.833 139.833,392.167 139.5,391.5 Z"/></g>
<g><path style="opacity:0.012" fill="#97999a" d="M 311.5,392.5 C 310.833,393.167 310.833,393.167 311.5,392.5 Z"/></g>
<g><path style="opacity:0.012" fill="#919394" d="M 140.5,393.5 C 139.833,394.167 139.833,394.167 140.5,393.5 Z"/></g>
<g><path style="opacity:1" fill="#838487" d="M 142.5,394.5 C 142.5,394.167 142.5,393.833 142.5,393.5C 146.836,393.837 150.503,395.504 153.5,398.5C 151.883,397.962 150.216,397.629 148.5,397.5C 148.158,396.662 147.492,396.328 146.5,396.5C 146.158,395.662 145.492,395.328 144.5,395.5C 144.158,394.662 143.492,394.328 142.5,394.5 Z"/></g>
<g><path style="opacity:0.012" fill="#898c8d" d="M 308.5,393.5 C 309.833,394.167 309.833,394.167 308.5,393.5 Z"/></g>
<g><path style="opacity:0.012" fill="#8d8f90" d="M 142.5,394.5 C 141.833,395.167 141.833,395.167 142.5,394.5 Z"/></g>
<g><path style="opacity:0.012" fill="#848789" d="M 306.5,394.5 C 307.833,395.167 307.833,395.167 306.5,394.5 Z"/></g>
<g><path style="opacity:0.012" fill="#8c8d8e" d="M 144.5,395.5 C 143.833,396.167 143.833,396.167 144.5,395.5 Z"/></g>
<g><path style="opacity:0.012" fill="#838587" d="M 304.5,395.5 C 305.833,396.167 305.833,396.167 304.5,395.5 Z"/></g>
<g><path style="opacity:0.012" fill="#898b8c" d="M 146.5,396.5 C 145.833,397.167 145.833,397.167 146.5,396.5 Z"/></g>
<g><path style="opacity:0.004" fill="#9b9c9e" d="M 302.5,397.5 C 302.5,397.167 302.5,396.833 302.5,396.5C 303.167,396.5 303.833,396.5 304.5,396.5C 304.158,397.338 303.492,397.672 302.5,397.5 Z"/></g>
<g><path style="opacity:0.012" fill="#858787" d="M 148.5,397.5 C 147.833,398.167 147.833,398.167 148.5,397.5 Z"/></g>
<g><path style="opacity:0.686" fill="#8c8d90" d="M 309.5,391.5 C 309.167,392.167 308.833,392.833 308.5,393.5C 307.508,393.328 306.842,393.662 306.5,394.5C 305.508,394.328 304.842,394.662 304.5,395.5C 303.508,395.328 302.842,395.662 302.5,396.5C 301.508,396.328 300.842,396.662 300.5,397.5C 298.447,397.402 296.78,398.069 295.5,399.5C 294.508,399.328 293.842,399.662 293.5,400.5C 291.447,400.402 289.78,401.069 288.5,402.5C 287.209,402.263 286.209,402.596 285.5,403.5C 284.5,403.5 283.5,403.5 282.5,403.5C 291.314,399.264 300.314,395.264 309.5,391.5 Z"/></g>
<g><path style="opacity:0.004" fill="#969798" d="M 300.5,397.5 C 301.167,397.5 301.833,397.5 302.5,397.5C 301.833,398.833 301.167,398.833 300.5,397.5 Z"/></g>
<g><path style="opacity:1" fill="#818284" d="M 153.5,398.5 C 162.362,401.12 171.029,404.12 179.5,407.5C 178.167,407.5 176.833,407.5 175.5,407.5C 171.784,405.595 167.784,404.261 163.5,403.5C 162.791,402.596 161.791,402.263 160.5,402.5C 159.22,401.069 157.553,400.402 155.5,400.5C 154.833,399.833 154.167,399.167 153.5,398.5 Z"/></g>
<g><path style="opacity:0.012" fill="#888a8b" d="M 298.5,398.5 C 299.833,399.167 299.833,399.167 298.5,398.5 Z"/></g>
<g><path style="opacity:0.008" fill="#676a6e" d="M 295.5,400.5 C 295.5,400.167 295.5,399.833 295.5,399.5C 298.167,399.833 298.167,400.167 295.5,400.5 Z"/></g>
<g><path style="opacity:0.012" fill="#7d7e80" d="M 155.5,400.5 C 155.5,400.833 155.5,401.167 155.5,401.5C 152.833,401.167 152.833,400.833 155.5,400.5 Z"/></g>
<g><path style="opacity:0.008" fill="#87898b" d="M 293.5,401.5 C 293.5,401.167 293.5,400.833 293.5,400.5C 294.167,400.5 294.833,400.5 295.5,400.5C 295.158,401.338 294.492,401.672 293.5,401.5 Z"/></g>
<g><path style="opacity:0.012" fill="#8d8e8f" d="M 155.5,401.5 C 156.239,401.369 156.906,401.536 157.5,402C 156.563,402.692 155.897,402.525 155.5,401.5 Z"/></g>
<g><path style="opacity:0.004" fill="#909194" d="M 293.5,401.5 C 293.103,402.525 292.437,402.692 291.5,402C 292.094,401.536 292.761,401.369 293.5,401.5 Z"/></g>
<g><path style="opacity:0.012" fill="#76777a" d="M 160.5,402.5 C 160.103,403.525 159.437,403.692 158.5,403C 159.094,402.536 159.761,402.369 160.5,402.5 Z"/></g>
<g><path style="opacity:0.008" fill="#7e7f83" d="M 288.5,403.5 C 288.5,403.167 288.5,402.833 288.5,402.5C 291.167,402.833 291.167,403.167 288.5,403.5 Z"/></g>
<g><path style="opacity:0.008" fill="#303235" d="M 163.5,403.5 C 163.5,403.833 163.5,404.167 163.5,404.5C 160.833,404.167 160.833,403.833 163.5,403.5 Z"/></g>
<g><path style="opacity:0.012" fill="#68686a" d="M 285.5,404.5 C 285.5,404.167 285.5,403.833 285.5,403.5C 286.5,403.5 287.5,403.5 288.5,403.5C 287.791,404.404 286.791,404.737 285.5,404.5 Z"/></g>
<g><path style="opacity:0.012" fill="#868688" d="M 163.5,404.5 C 164.239,404.369 164.906,404.536 165.5,405C 164.563,405.692 163.897,405.525 163.5,404.5 Z"/></g>
<g><path style="opacity:0.008" fill="#8c8c90" d="M 285.5,404.5 C 285.103,405.525 284.437,405.692 283.5,405C 284.094,404.536 284.761,404.369 285.5,404.5 Z"/></g>
<g><path style="opacity:0.012" fill="#838485" d="M 166.5,406.5 C 166.897,405.475 167.563,405.308 168.5,406C 167.906,406.464 167.239,406.631 166.5,406.5 Z"/></g>
<g><path style="opacity:0.008" fill="#89898c" d="M 280.5,406.5 C 280.897,405.475 281.563,405.308 282.5,406C 281.906,406.464 281.239,406.631 280.5,406.5 Z"/></g>
<g><path style="opacity:0.012" fill="#848586" d="M 169.5,407.5 C 169.897,406.475 170.563,406.308 171.5,407C 170.906,407.464 170.239,407.631 169.5,407.5 Z"/></g>
<g><path style="opacity:0.008" fill="#86878a" d="M 277.5,407.5 C 277.897,406.475 278.563,406.308 279.5,407C 278.906,407.464 278.239,407.631 277.5,407.5 Z"/></g>
<g><path style="opacity:0.012" fill="#6e7072" d="M 175.5,407.5 C 174.749,408.573 173.749,408.74 172.5,408C 173.448,407.517 174.448,407.351 175.5,407.5 Z"/></g>
<g><path style="opacity:0.012" fill="#646669" d="M 273.5,408.5 C 273.5,408.167 273.5,407.833 273.5,407.5C 277.5,407.833 277.5,408.167 273.5,408.5 Z"/></g>
<g><path style="opacity:0.012" fill="#5b5c5d" d="M 179.5,408.5 C 179.5,408.833 179.5,409.167 179.5,409.5C 175.5,409.167 175.5,408.833 179.5,408.5 Z"/></g>
<g><path style="opacity:0.008" fill="#88898c" d="M 273.5,408.5 C 272.749,409.573 271.749,409.74 270.5,409C 271.448,408.517 272.448,408.351 273.5,408.5 Z"/></g>
<g><path style="opacity:0.012" fill="#828385" d="M 179.5,409.5 C 180.552,409.351 181.552,409.517 182.5,410C 181.251,410.74 180.251,410.573 179.5,409.5 Z"/></g>
<g><path style="opacity:0.557" fill="#878789" d="M 274.5,405.5 C 275.167,405.5 275.833,405.5 276.5,405.5C 275.5,406.167 274.5,406.833 273.5,407.5C 269.239,407.898 265.239,408.898 261.5,410.5C 259.585,410.216 257.919,410.549 256.5,411.5C 254.265,411.205 252.265,411.539 250.5,412.5C 235.851,413.351 221.184,413.685 206.5,413.5C 206.5,413.167 206.5,412.833 206.5,412.5C 229.636,414.195 252.302,411.862 274.5,405.5 Z"/></g>
<g><path style="opacity:0.012" fill="#7d7e81" d="M 266.5,410.5 C 267.251,409.427 268.251,409.26 269.5,410C 268.552,410.483 267.552,410.649 266.5,410.5 Z"/></g>
<g><path style="opacity:0.008" fill="#6c6d6e" d="M 187.5,410.5 C 186.399,411.598 185.066,411.765 183.5,411C 184.793,410.51 186.127,410.343 187.5,410.5 Z"/></g>
<g><path style="opacity:0.925" fill="#797a7c" d="M 179.5,408.5 C 179.5,408.167 179.5,407.833 179.5,407.5C 188.777,408.29 197.777,409.957 206.5,412.5C 203.833,412.5 201.167,412.5 198.5,412.5C 196.735,411.539 194.735,411.205 192.5,411.5C 191.081,410.549 189.415,410.216 187.5,410.5C 185.095,409.232 182.428,408.565 179.5,408.5 Z"/></g>
<g><path style="opacity:0.004" fill="#79797b" d="M 261.5,410.5 C 262.873,410.343 264.207,410.51 265.5,411C 263.934,411.765 262.601,411.598 261.5,410.5 Z"/></g>
<g><path style="opacity:0.012" fill="#656567" d="M 192.5,411.5 C 191.399,412.598 190.066,412.765 188.5,412C 189.793,411.51 191.127,411.343 192.5,411.5 Z"/></g>
<g><path style="opacity:0.008" fill="#6e6f72" d="M 256.5,411.5 C 257.873,411.343 259.207,411.51 260.5,412C 258.934,412.765 257.601,412.598 256.5,411.5 Z"/></g>
<g><path style="opacity:0.012" fill="#6a6a6c" d="M 198.5,412.5 C 197.054,413.613 195.387,413.78 193.5,413C 195.134,412.506 196.801,412.34 198.5,412.5 Z"/></g>
<g><path style="opacity:0.012" fill="#6e6f71" d="M 250.5,412.5 C 252.199,412.34 253.866,412.506 255.5,413C 253.613,413.78 251.946,413.613 250.5,412.5 Z"/></g>
<g><path style="opacity:0.012" fill="#636365" d="M 206.5,413.5 C 204.372,414.629 202.039,414.796 199.5,414C 201.81,413.503 204.143,413.337 206.5,413.5 Z"/></g>
<g><path style="opacity:0.012" fill="#7d7f80" d="M 243.5,414.5 C 245.288,413.378 247.288,413.211 249.5,414C 247.527,414.495 245.527,414.662 243.5,414.5 Z"/></g>
<g><path style="opacity:0.016" fill="#606162" d="M 207.5,415.5 C 212.65,414.349 217.984,414.183 223.5,415C 218.177,415.499 212.844,415.666 207.5,415.5 Z"/></g>
<g><path style="opacity:0.004" fill="#7d7e80" d="M 225.5,415.5 C 230.985,414.348 236.651,414.182 242.5,415C 236.843,415.499 231.176,415.666 225.5,415.5 Z"/></g>
</svg>
