<?xml version="1.0" encoding="UTF-8"?>
<!DOCTYPE svg PUBLIC "-//W3C//DTD SVG 1.1//EN" "http://www.w3.org/Graphics/SVG/1.1/DTD/svg11.dtd">
<svg xmlns="http://www.w3.org/2000/svg" version="1.1" width="300px" height="300px" style="shape-rendering:geometricPrecision; text-rendering:geometricPrecision; image-rendering:optimizeQuality; fill-rule:evenodd; clip-rule:evenodd" xmlns:xlink="http://www.w3.org/1999/xlink">
<g><path style="opacity:1" fill="#ffb2d2" d="M 136.5,0.5 C 136.5,0.166667 136.5,-0.166667 136.5,-0.5C 146.167,-0.5 155.833,-0.5 165.5,-0.5C 169.851,0.407598 174.184,1.4076 178.5,2.5C 176.821,2.89233 175.154,3.39233 173.5,4C 214,44.5 254.5,85 295,125.5C 295.505,123.482 296.005,121.482 296.5,119.5C 297.684,123.461 298.684,127.461 299.5,131.5C 299.5,142.5 299.5,153.5 299.5,164.5C 299.167,164.5 298.833,164.5 298.5,164.5C 298.666,158.158 298.5,151.825 298,145.5C 297.667,147.167 297.333,148.833 297,150.5C 247.284,100.784 197.784,51.2836 148.5,2C 152.5,1.66667 156.5,1.33333 160.5,1C 152.507,0.500289 144.507,0.333622 136.5,0.5 Z"/></g>
<g><path style="opacity:1" fill="#ffc4dc" d="M 112.5,3.5 C 112.426,5.4109 111.426,6.57756 109.5,7C 135.492,32.6237 161.492,58.2903 187.5,84C 186.906,84.4643 186.239,84.631 185.5,84.5C 181.96,84.2474 178.627,83.5808 175.5,82.5C 174.505,81.4133 172.005,80.7466 168,80.5C 166.45,80.9505 164.95,81.1171 163.5,81C 140.779,57.7892 117.779,34.7892 94.5,12C 95.8333,11.3333 97.1667,10.6667 98.5,10C 97.944,9.61742 97.6107,9.11742 97.5,8.5C 102.437,6.63205 107.437,4.96539 112.5,3.5 Z"/></g>
<g><path style="opacity:1" fill="#ffaace" d="M 178.5,2.5 C 234.063,14.5581 271.896,47.2248 292,100.5C 294.227,106.678 295.727,113.011 296.5,119.5C 296.005,121.482 295.505,123.482 295,125.5C 254.5,85 214,44.5 173.5,4C 175.154,3.39233 176.821,2.89233 178.5,2.5 Z"/></g>
<g><path style="opacity:1" fill="#ffcbe1" d="M 97.5,8.5 C 97.6107,9.11742 97.944,9.61742 98.5,10C 97.1667,10.6667 95.8333,11.3333 94.5,12C 117.779,34.7892 140.779,57.7892 163.5,81C 164.95,81.1171 166.45,80.9505 168,80.5C 172.005,80.7466 174.505,81.4133 175.5,82.5C 167.441,82.7815 159.441,82.7815 151.5,82.5C 141.779,69.4729 128.779,63.1396 112.5,63.5C 113.609,62.71 114.942,62.21 116.5,62C 115.5,61.6667 114.5,61.3333 113.5,61C 100.86,47.6937 87.8604,34.6937 74.5,22C 75.3279,21.0853 76.3279,20.4186 77.5,20C 76.5842,19.7216 75.9175,19.2216 75.5,18.5C 82.5909,14.621 89.9242,11.2877 97.5,8.5 Z"/></g>
<g><path style="opacity:1" fill="#ffddeb" d="M 60.5,28.5 C 61.2389,28.369 61.9056,28.5357 62.5,29C 61.6195,29.7083 60.9528,30.5416 60.5,31.5C 55.1451,34.3416 50.4785,38.1749 46.5,43C 49.1211,44.6179 51.4545,46.6179 53.5,49C 54.448,49.4828 55.448,49.6495 56.5,49.5C 73.7268,70.5632 92.5601,90.2299 113,108.5C 112.983,112.485 110.817,114.652 106.5,115C 104.5,115.667 102.5,115.667 100.5,115C 93,103.5 85.5,92 78,80.5C 82.5181,89.8659 87.3515,99.1993 92.5,108.5C 91.71,109.609 91.21,110.942 91,112.5C 72.1667,93.6667 53.3333,74.8333 34.5,56C 37.3224,53.1446 36.9891,52.3113 33.5,53.5C 41.5722,44.0918 50.5722,35.7585 60.5,28.5 Z"/></g>
<g><path style="opacity:1" fill="#ffe4ef" d="M 92.5,108.5 C 93.479,113.757 91.979,118.09 88,121.5C 85.9716,125.432 84.4716,129.432 83.5,133.5C 82.5826,133.494 82.0826,134.494 82,136.5C 61.9393,116.108 41.4393,95.9411 20.5,76C 23.4411,70.728 26.7744,65.728 30.5,61C 29.944,60.6174 29.6107,60.1174 29.5,59.5C 30.4411,57.2279 31.7745,55.2279 33.5,53.5C 36.9891,52.3113 37.3224,53.1446 34.5,56C 53.3333,74.8333 72.1667,93.6667 91,112.5C 91.21,110.942 91.71,109.609 92.5,108.5 Z"/></g>
<g><path style="opacity:1" fill="#ff137c" d="M 56.5,49.5 C 79.0507,67.2117 100.551,86.2117 121,106.5C 122.13,112.768 119.963,117.601 114.5,121C 111.15,122.486 107.816,123.653 104.5,124.5C 101.138,124.07 98.3046,125.07 96,127.5C 94.3248,133.389 93.1581,139.389 92.5,145.5C 90.2912,151.589 87.7912,157.589 85,163.5C 84.1131,168.072 84.7798,172.405 87,176.5C 92.3333,181.167 97.6667,185.833 103,190.5C 104.932,195.139 104.932,199.806 103,204.5C 100.228,207.783 97.0614,210.45 93.5,212.5C 86.4882,215.755 79.1548,218.088 71.5,219.5C 69.476,213.788 66.6427,208.455 63,203.5C 61.3158,199.284 60.1491,194.951 59.5,190.5C 59.1908,185.733 59.6908,181.066 61,176.5C 65.3309,170.01 69.8309,163.676 74.5,157.5C 80.2324,150.649 83.2324,142.649 83.5,133.5C 84.4716,129.432 85.9716,125.432 88,121.5C 91.979,118.09 93.479,113.757 92.5,108.5C 87.3515,99.1993 82.5181,89.8659 78,80.5C 85.5,92 93,103.5 100.5,115C 102.5,115.667 104.5,115.667 106.5,115C 110.817,114.652 112.983,112.485 113,108.5C 92.5601,90.2299 73.7268,70.5632 56.5,49.5 Z"/></g>
<g><path style="opacity:1" fill="#ffb8d6" d="M 136.5,0.5 C 144.507,0.333622 152.507,0.500289 160.5,1C 156.5,1.33333 152.5,1.66667 148.5,2C 197.784,51.2836 247.284,100.784 297,150.5C 297.333,148.833 297.667,147.167 298,145.5C 298.5,151.825 298.666,158.158 298.5,164.5C 298.607,166.379 298.107,166.712 297,165.5C 296.667,167.5 296.333,169.5 296,171.5C 272.25,147.234 248.75,124.234 225.5,102.5C 220.524,96.6826 215.691,90.6826 211,84.5C 210.392,81.1827 209.892,77.8494 209.5,74.5C 209.404,72.0741 210.07,69.9074 211.5,68C 210.668,67.3123 210.002,67.479 209.5,68.5C 208.902,69.7946 208.402,71.1279 208,72.5C 207.823,76.3563 207.323,80.023 206.5,83.5C 182.146,57.6271 156.313,31.2937 129,4.5C 128.833,4.16667 128.667,3.83333 128.5,3.5C 131.325,2.74519 133.991,1.74519 136.5,0.5 Z"/></g>
<g><path style="opacity:1" fill="#ff157d" d="M 111.5,69.5 C 118.004,69.6102 123.171,72.2769 127,77.5C 129.619,83.9768 131.619,90.6435 133,97.5C 134.357,100.898 136.19,103.898 138.5,106.5C 137.848,107.725 136.681,108.392 135,108.5C 128.788,107.559 123.788,104.559 120,99.5C 113.821,90.4609 110.988,80.4609 111.5,69.5 Z"/></g>
<g><path style="opacity:1" fill="#ff127c" d="M 112.5,63.5 C 128.779,63.1396 141.779,69.4729 151.5,82.5C 159.441,82.7815 167.441,82.7815 175.5,82.5C 178.627,83.5808 181.96,84.2474 185.5,84.5C 192.319,86.6157 198.819,89.6157 205,93.5C 207.207,100.226 206.707,106.726 203.5,113C 205.313,116.911 207.813,117.411 211,114.5C 213.059,111.051 214.559,107.384 215.5,103.5C 218.19,105.356 220.356,107.689 222,110.5C 225.193,115.615 227.693,120.948 229.5,126.5C 229.649,127.552 229.483,128.552 229,129.5C 226.382,124.884 222.549,121.717 217.5,120C 210.248,118.472 202.915,117.639 195.5,117.5C 182.706,117.183 171.54,112.85 162,104.5C 154.544,94.7088 146.711,85.2088 138.5,76C 130.93,69.3805 122.264,65.2139 112.5,63.5 Z"/></g>
<g><path style="opacity:1" fill="#ffd0e4" d="M 75.5,18.5 C 75.9175,19.2216 76.5842,19.7216 77.5,20C 76.3279,20.4186 75.3279,21.0853 74.5,22C 87.8604,34.6937 100.86,47.6937 113.5,61C 114.5,61.3333 115.5,61.6667 116.5,62C 114.942,62.21 113.609,62.71 112.5,63.5C 122.264,65.2139 130.93,69.3805 138.5,76C 146.711,85.2088 154.544,94.7088 162,104.5C 171.54,112.85 182.706,117.183 195.5,117.5C 186.608,117.66 186.275,119.494 194.5,123C 193.552,123.483 192.552,123.649 191.5,123.5C 182.832,123.611 175.165,120.944 168.5,115.5C 166.418,126.082 169.751,134.582 178.5,141C 181.167,142.667 183.833,144.333 186.5,146C 200.506,151.56 214.173,157.893 227.5,165C 233.004,169.177 236.004,174.677 236.5,181.5C 249.977,197.234 264.311,211.901 279.5,225.5C 275.733,231.38 271.733,237.046 267.5,242.5C 267.702,240.011 267.202,237.677 266,235.5C 255.667,225.833 245.667,215.833 236,205.5C 236.024,203.237 236.191,200.903 236.5,198.5C 236.553,195.215 235.886,192.215 234.5,189.5C 231.616,182.428 227.283,176.261 221.5,171C 212.331,165.248 202.998,159.748 193.5,154.5C 192.818,155.243 192.151,155.909 191.5,156.5C 190.559,159.125 189.393,159.125 188,156.5C 187.601,156.728 187.435,157.062 187.5,157.5C 186.536,154.926 185.036,152.592 183,150.5C 182.601,150.728 182.435,151.062 182.5,151.5C 168.173,138.205 154.007,124.539 140,110.5C 139.79,108.942 139.29,107.609 138.5,106.5C 136.19,103.898 134.357,100.898 133,97.5C 131.619,90.6435 129.619,83.9768 127,77.5C 123.171,72.2769 118.004,69.6102 111.5,69.5C 110.186,72.277 109.186,75.277 108.5,78.5C 92.506,62.8394 76.506,47.1728 60.5,31.5C 60.9528,30.5416 61.6195,29.7083 62.5,29C 61.9056,28.5357 61.2389,28.369 60.5,28.5C 65.2911,24.9317 70.2911,21.5984 75.5,18.5 Z"/></g>
<g><path style="opacity:1" fill="#ff2984" d="M 225.5,102.5 C 221.888,99.0225 217.888,96.0225 213.5,93.5C 209.301,117.221 207.801,117.221 209,93.5C 208.333,92.1667 207.667,90.8333 207,89.5C 202.341,85.5084 197.174,82.3417 191.5,80C 196.439,81.1176 201.439,82.2842 206.5,83.5C 207.323,80.023 207.823,76.3563 208,72.5C 208.402,71.1279 208.902,69.7946 209.5,68.5C 210.002,67.479 210.668,67.3123 211.5,68C 210.07,69.9074 209.404,72.0741 209.5,74.5C 209.892,77.8494 210.392,81.1827 211,84.5C 215.691,90.6826 220.524,96.6826 225.5,102.5 Z"/></g>
<g><path style="opacity:1" fill="#feebf3" d="M 29.5,59.5 C 29.6107,60.1174 29.944,60.6174 30.5,61C 26.7744,65.728 23.4411,70.728 20.5,76C 41.4393,95.9411 61.9393,116.108 82,136.5C 82.0826,134.494 82.5826,133.494 83.5,133.5C 83.2324,142.649 80.2324,150.649 74.5,157.5C 53.5332,138.042 32.6999,117.709 12,96.5C 11.6667,95.5 11.3333,94.5 11,93.5C 10.7645,95.1193 9.93112,96.1193 8.5,96.5C 13.716,83.0582 20.716,70.7249 29.5,59.5 Z"/></g>
<g><path style="opacity:1" fill="#ffbed9" d="M 133.5,-0.5 C 134.5,-0.5 135.5,-0.5 136.5,-0.5C 136.5,-0.166667 136.5,0.166667 136.5,0.5C 133.991,1.74519 131.325,2.74519 128.5,3.5C 128.667,3.83333 128.833,4.16667 129,4.5C 156.313,31.2937 182.146,57.6271 206.5,83.5C 201.439,82.2842 196.439,81.1176 191.5,80C 197.174,82.3417 202.341,85.5084 207,89.5C 207.667,90.8333 208.333,92.1667 209,93.5C 207.801,117.221 209.301,117.221 213.5,93.5C 217.888,96.0225 221.888,99.0225 225.5,102.5C 248.75,124.234 272.25,147.234 296,171.5C 296.333,169.5 296.667,167.5 297,165.5C 298.107,166.712 298.607,166.379 298.5,164.5C 298.833,164.5 299.167,164.5 299.5,164.5C 299.5,165.5 299.5,166.5 299.5,167.5C 298.105,174.796 296.438,182.129 294.5,189.5C 293.603,188.402 292.77,188.402 292,189.5C 271.052,168.551 250.386,147.217 230,125.5C 229.601,125.728 229.435,126.062 229.5,126.5C 227.693,120.948 225.193,115.615 222,110.5C 220.356,107.689 218.19,105.356 215.5,103.5C 214.559,107.384 213.059,111.051 211,114.5C 207.813,117.411 205.313,116.911 203.5,113C 206.707,106.726 207.207,100.226 205,93.5C 198.819,89.6157 192.319,86.6157 185.5,84.5C 186.239,84.631 186.906,84.4643 187.5,84C 161.492,58.2903 135.492,32.6237 109.5,7C 111.426,6.57756 112.426,5.4109 112.5,3.5C 119.644,2.25672 126.644,0.923386 133.5,-0.5 Z"/></g>
<g><path style="opacity:1" fill="#fff1f7" d="M 74.5,157.5 C 69.8309,163.676 65.3309,170.01 61,176.5C 59.6908,181.066 59.1908,185.733 59.5,190.5C 58.6805,187.695 58.1805,184.695 58,181.5C 57.6667,183.167 57.3333,184.833 57,186.5C 36.613,166.292 17.7797,147.292 0.5,129.5C 1.75696,118.139 4.42363,107.139 8.5,96.5C 9.93112,96.1193 10.7645,95.1193 11,93.5C 11.3333,94.5 11.6667,95.5 12,96.5C 32.6999,117.709 53.5332,138.042 74.5,157.5 Z"/></g>
<g><path style="opacity:1" fill="#ffd7e8" d="M 60.5,31.5 C 76.506,47.1728 92.506,62.8394 108.5,78.5C 109.186,75.277 110.186,72.277 111.5,69.5C 110.988,80.4609 113.821,90.4609 120,99.5C 123.788,104.559 128.788,107.559 135,108.5C 136.681,108.392 137.848,107.725 138.5,106.5C 139.29,107.609 139.79,108.942 140,110.5C 154.007,124.539 168.173,138.205 182.5,151.5C 183.55,156.114 183.717,160.78 183,165.5C 182.246,168.684 180.746,171.351 178.5,173.5C 165.47,160.518 152.637,147.184 140,133.5C 139.722,134.416 139.222,135.082 138.5,135.5C 137.201,126.837 132.201,123.67 123.5,126C 119.507,128.819 117.84,132.653 118.5,137.5C 117.71,136.391 117.21,135.058 117,133.5C 116.667,134.833 116.333,136.167 116,137.5C 112.667,134.167 109.333,130.833 106,127.5C 105.544,126.256 106.044,125.423 107.5,125C 106.552,124.517 105.552,124.351 104.5,124.5C 107.816,123.653 111.15,122.486 114.5,121C 119.963,117.601 122.13,112.768 121,106.5C 100.551,86.2117 79.0507,67.2117 56.5,49.5C 55.448,49.6495 54.448,49.4828 53.5,49C 51.4545,46.6179 49.1211,44.6179 46.5,43C 50.4785,38.1749 55.1451,34.3416 60.5,31.5 Z"/></g>
<g><path style="opacity:1" fill="#ff0c7b" d="M 191.5,123.5 C 202.438,124.862 213.105,127.695 223.5,132C 233.352,137.869 239.686,146.369 242.5,157.5C 243.035,164.784 241.868,171.784 239,178.5C 238.623,179.942 237.79,180.942 236.5,181.5C 236.004,174.677 233.004,169.177 227.5,165C 214.173,157.893 200.506,151.56 186.5,146C 183.833,144.333 181.167,142.667 178.5,141C 169.751,134.582 166.418,126.082 168.5,115.5C 175.165,120.944 182.832,123.611 191.5,123.5 Z"/></g>
<g><path style="opacity:1" fill="#ffc4dc" d="M 195.5,117.5 C 202.915,117.639 210.248,118.472 217.5,120C 222.549,121.717 226.382,124.884 229,129.5C 229.483,128.552 229.649,127.552 229.5,126.5C 229.435,126.062 229.601,125.728 230,125.5C 250.386,147.217 271.052,168.551 292,189.5C 292.77,188.402 293.603,188.402 294.5,189.5C 293.567,193.965 292.234,198.299 290.5,202.5C 289.778,202.082 289.278,201.416 289,200.5C 288.333,201.833 287.667,203.167 287,204.5C 275.667,192.5 264,180.833 252,169.5C 248.175,165.862 245.009,161.862 242.5,157.5C 239.686,146.369 233.352,137.869 223.5,132C 213.105,127.695 202.438,124.862 191.5,123.5C 192.552,123.649 193.552,123.483 194.5,123C 186.275,119.494 186.608,117.66 195.5,117.5 Z"/></g>
<g><path style="opacity:1" fill="#ffe3ef" d="M 104.5,124.5 C 105.552,124.351 106.552,124.517 107.5,125C 106.044,125.423 105.544,126.256 106,127.5C 109.333,130.833 112.667,134.167 116,137.5C 116.333,136.167 116.667,134.833 117,133.5C 117.21,135.058 117.71,136.391 118.5,137.5C 120.197,142.024 123.531,143.691 128.5,142.5C 127.319,143.397 125.319,143.897 122.5,144C 134.5,156 146.5,168 158.5,180C 161.665,179.633 164.665,179.799 167.5,180.5C 159.89,182.189 152.223,183.689 144.5,185C 141.022,186.24 137.689,187.74 134.5,189.5C 120.132,175.133 106.132,160.466 92.5,145.5C 93.1581,139.389 94.3248,133.389 96,127.5C 98.3046,125.07 101.138,124.07 104.5,124.5 Z"/></g>
<g><path style="opacity:1" fill="#ff197d" d="M 138.5,135.5 C 138.489,137.017 137.823,138.184 136.5,139C 133.691,140.093 131.024,141.26 128.5,142.5C 123.531,143.691 120.197,142.024 118.5,137.5C 117.84,132.653 119.507,128.819 123.5,126C 132.201,123.67 137.201,126.837 138.5,135.5 Z"/></g>
<g><path style="opacity:1" fill="#fff7fa" d="M 59.5,190.5 C 60.1491,194.951 61.3158,199.284 63,203.5C 66.6427,208.455 69.476,213.788 71.5,219.5C 79.1548,218.088 86.4882,215.755 93.5,212.5C 95.3786,212.393 95.7119,212.893 94.5,214C 95.4695,215.758 96.6361,216.258 98,215.5C 99.049,217.107 100.549,217.773 102.5,217.5C 103.5,217.5 104.5,217.5 105.5,217.5C 103.708,218.309 101.708,218.809 99.5,219C 125.796,244.793 151.462,270.96 176.5,297.5C 172.64,297.808 168.974,298.475 165.5,299.5C 154.833,299.5 144.167,299.5 133.5,299.5C 133.5,299.167 133.5,298.833 133.5,298.5C 143.172,298.666 152.839,298.5 162.5,298C 155.117,297.8 147.784,297.3 140.5,296.5C 94.5127,250.937 48.3461,204.937 2,158.5C 1.66667,150.5 1.33333,142.5 1,134.5C 0.813823,137.036 0.313823,139.369 -0.5,141.5C -0.5,138.167 -0.5,134.833 -0.5,131.5C 0.338246,131.158 0.67158,130.492 0.5,129.5C 17.7797,147.292 36.613,166.292 57,186.5C 57.3333,184.833 57.6667,183.167 58,181.5C 58.1805,184.695 58.6805,187.695 59.5,190.5 Z"/></g>
<g><path style="opacity:0.996" fill="#fefcfd" d="M 133.5,298.5 C 80.0676,291.713 40.5676,264.713 15,217.5C 7.33617,201.485 2.16951,184.818 -0.5,167.5C -0.5,158.833 -0.5,150.167 -0.5,141.5C 0.313823,139.369 0.813823,137.036 1,134.5C 1.33333,142.5 1.66667,150.5 2,158.5C 48.3461,204.937 94.5127,250.937 140.5,296.5C 147.784,297.3 155.117,297.8 162.5,298C 152.839,298.5 143.172,298.666 133.5,298.5 Z"/></g>
<g><path style="opacity:1" fill="#ffddeb" d="M 178.5,173.5 C 175.689,177.078 172.022,179.411 167.5,180.5C 164.665,179.799 161.665,179.633 158.5,180C 146.5,168 134.5,156 122.5,144C 125.319,143.897 127.319,143.397 128.5,142.5C 131.024,141.26 133.691,140.093 136.5,139C 137.823,138.184 138.489,137.017 138.5,135.5C 139.222,135.082 139.722,134.416 140,133.5C 152.637,147.184 165.47,160.518 178.5,173.5 Z"/></g>
<g><path style="opacity:1" fill="#ff0f7b" d="M 234.5,189.5 C 236.063,200.789 233.73,211.123 227.5,220.5C 223.916,226.285 218.916,229.785 212.5,231C 217.615,222.618 217.782,214.118 213,205.5C 206.416,195.334 200.082,185 194,174.5C 191.849,168.7 191.016,162.7 191.5,156.5C 192.151,155.909 192.818,155.243 193.5,154.5C 202.998,159.748 212.331,165.248 221.5,171C 227.283,176.261 231.616,182.428 234.5,189.5 Z"/></g>
<g><path style="opacity:1" fill="#ff2781" d="M 187.5,157.5 C 189.895,174.035 182.895,184.035 166.5,187.5C 158.832,187.905 151.165,188.405 143.5,189C 141.942,189.21 140.609,189.71 139.5,190.5C 136.61,190.278 133.943,190.945 131.5,192.5C 131.167,192.333 130.833,192.167 130.5,192C 131.693,190.905 133.027,190.072 134.5,189.5C 137.689,187.74 141.022,186.24 144.5,185C 152.223,183.689 159.89,182.189 167.5,180.5C 172.022,179.411 175.689,177.078 178.5,173.5C 180.746,171.351 182.246,168.684 183,165.5C 183.717,160.78 183.55,156.114 182.5,151.5C 182.435,151.062 182.601,150.728 183,150.5C 185.036,152.592 186.536,154.926 187.5,157.5 Z"/></g>
<g><path style="opacity:1" fill="#ffebf3" d="M 92.5,145.5 C 106.132,160.466 120.132,175.133 134.5,189.5C 133.027,190.072 131.693,190.905 130.5,192C 130.833,192.167 131.167,192.333 131.5,192.5C 133.943,190.945 136.61,190.278 139.5,190.5C 140.239,190.369 140.906,190.536 141.5,191C 140.167,191.333 138.833,191.667 137.5,192C 140.52,195.209 143.52,197.376 146.5,198.5C 128.306,197.599 112.64,203.432 99.5,216C 100.737,216.232 101.737,216.732 102.5,217.5C 100.549,217.773 99.049,217.107 98,215.5C 96.6361,216.258 95.4695,215.758 94.5,214C 95.7119,212.893 95.3786,212.393 93.5,212.5C 97.0614,210.45 100.228,207.783 103,204.5C 104.932,199.806 104.932,195.139 103,190.5C 97.6667,185.833 92.3333,181.167 87,176.5C 84.7798,172.405 84.1131,168.072 85,163.5C 87.7912,157.589 90.2912,151.589 92.5,145.5 Z"/></g>
<g><path style="opacity:1" fill="#ffcbe1" d="M 242.5,157.5 C 245.009,161.862 248.175,165.862 252,169.5C 264,180.833 275.667,192.5 287,204.5C 287.667,203.167 288.333,201.833 289,200.5C 289.278,201.416 289.778,202.082 290.5,202.5C 287.405,210.459 283.738,218.126 279.5,225.5C 264.311,211.901 249.977,197.234 236.5,181.5C 237.79,180.942 238.623,179.942 239,178.5C 241.868,171.784 243.035,164.784 242.5,157.5 Z"/></g>
<g><path style="opacity:1" fill="#ffe4ef" d="M 166.5,187.5 C 191.504,213.006 217.004,238.673 243,264.5C 246.297,262.205 249.297,259.538 252,256.5C 252.464,257.094 252.631,257.761 252.5,258.5C 243.993,267.338 234.326,274.671 223.5,280.5C 223.649,279.448 223.483,278.448 223,277.5C 212.913,266.909 202.413,256.909 191.5,247.5C 198.488,243.681 198.154,242.847 190.5,245C 186.833,245.667 183.167,245.667 179.5,245C 177.714,244.215 176.214,243.049 175,241.5C 172.059,231.915 169.392,222.248 167,212.5C 162.055,204.953 155.222,200.286 146.5,198.5C 143.52,197.376 140.52,195.209 137.5,192C 138.833,191.667 140.167,191.333 141.5,191C 140.906,190.536 140.239,190.369 139.5,190.5C 140.609,189.71 141.942,189.21 143.5,189C 151.165,188.405 158.832,187.905 166.5,187.5 Z"/></g>
<g><path style="opacity:1" fill="#ff1a7d" d="M 146.5,198.5 C 155.222,200.286 162.055,204.953 167,212.5C 169.392,222.248 172.059,231.915 175,241.5C 176.214,243.049 177.714,244.215 179.5,245C 183.167,245.667 186.833,245.667 190.5,245C 198.154,242.847 198.488,243.681 191.5,247.5C 183.977,250.794 176.977,249.961 170.5,245C 165.287,236.744 160.454,228.244 156,219.5C 148.741,212.472 141.074,211.806 133,217.5C 130.007,227.01 133.507,231.843 143.5,232C 148.143,229.928 149.643,226.428 148,221.5C 141.858,216.518 138.191,217.851 137,225.5C 134.768,221.942 135.601,219.109 139.5,217C 146.847,215.379 151.181,218.212 152.5,225.5C 151.97,228.89 150.637,231.89 148.5,234.5C 144.057,236.466 139.39,236.966 134.5,236C 128.208,231.377 122.208,226.377 116.5,221C 112.968,219.368 109.301,218.201 105.5,217.5C 104.5,217.5 103.5,217.5 102.5,217.5C 101.737,216.732 100.737,216.232 99.5,216C 112.64,203.432 128.306,197.599 146.5,198.5 Z"/></g>
<g><path style="opacity:1" fill="#ffd7e8" d="M 234.5,189.5 C 235.886,192.215 236.553,195.215 236.5,198.5C 236.191,200.903 236.024,203.237 236,205.5C 245.667,215.833 255.667,225.833 266,235.5C 267.202,237.677 267.702,240.011 267.5,242.5C 266.136,244.191 264.803,245.858 263.5,247.5C 263.631,246.761 263.464,246.094 263,245.5C 261,247.5 259,249.5 257,251.5C 246.544,241.55 236.711,231.216 227.5,220.5C 233.73,211.123 236.063,200.789 234.5,189.5 Z"/></g>
<g><path style="opacity:1" fill="#fff0f6" d="M 105.5,217.5 C 109.301,218.201 112.968,219.368 116.5,221C 122.208,226.377 128.208,231.377 134.5,236C 139.39,236.966 144.057,236.466 148.5,234.5C 167.851,252.185 186.518,270.518 204.5,289.5C 195.447,293.097 186.114,295.764 176.5,297.5C 151.462,270.96 125.796,244.793 99.5,219C 101.708,218.809 103.708,218.309 105.5,217.5 Z"/></g>
<g><path style="opacity:1" fill="#ffddeb" d="M 191.5,156.5 C 191.016,162.7 191.849,168.7 194,174.5C 200.082,185 206.416,195.334 213,205.5C 217.782,214.118 217.615,222.618 212.5,231C 218.916,229.785 223.916,226.285 227.5,220.5C 236.711,231.216 246.544,241.55 257,251.5C 259,249.5 261,247.5 263,245.5C 263.464,246.094 263.631,246.761 263.5,247.5C 260.167,251.5 256.5,255.167 252.5,258.5C 252.631,257.761 252.464,257.094 252,256.5C 249.297,259.538 246.297,262.205 243,264.5C 217.004,238.673 191.504,213.006 166.5,187.5C 182.895,184.035 189.895,174.035 187.5,157.5C 187.435,157.062 187.601,156.728 188,156.5C 189.393,159.125 190.559,159.125 191.5,156.5 Z"/></g>
<g><path style="opacity:1" fill="#ffebf3" d="M 191.5,247.5 C 202.413,256.909 212.913,266.909 223,277.5C 223.483,278.448 223.649,279.448 223.5,280.5C 217.288,283.773 210.954,286.773 204.5,289.5C 186.518,270.518 167.851,252.185 148.5,234.5C 150.637,231.89 151.97,228.89 152.5,225.5C 151.181,218.212 146.847,215.379 139.5,217C 135.601,219.109 134.768,221.942 137,225.5C 138.191,217.851 141.858,216.518 148,221.5C 149.643,226.428 148.143,229.928 143.5,232C 133.507,231.843 130.007,227.01 133,217.5C 141.074,211.806 148.741,212.472 156,219.5C 160.454,228.244 165.287,236.744 170.5,245C 176.977,249.961 183.977,250.794 191.5,247.5 Z"/></g>
</svg>
