<?xml version="1.0" encoding="UTF-8"?>
<svg version="1.1" xmlns="http://www.w3.org/2000/svg" width="2000" height="2000">
<path d="M0 0 C2.33403434 0.23228959 4.6690167 0.45079336 7.00469971 0.66583252 C58.75280757 5.46307341 109.91014963 14.53025862 160.28936768 27.22784424 C160.97323547 27.39993408 161.65710327 27.57202393 162.36169434 27.74932861 C180.87275333 32.42086101 199.15381992 37.73447655 217.32244873 43.5949707 C219.34829185 44.24680361 221.37579732 44.89325041 223.40362549 45.53887939 C270.26792184 60.49362956 315.32451307 79.50061165 359.38775635 101.28973389 C361.22085134 102.19404349 363.0562546 103.09343164 364.8928833 103.99053955 C380.34978717 111.54364374 395.41417011 119.58823277 410.28936768 128.22784424 C411.4554812 128.90076488 412.62183127 129.57327575 413.78839111 130.24542236 C428.45000061 138.69746236 442.95146136 147.31394696 457.02911377 156.71905518 C459.28296969 158.22357339 461.54484108 159.71529486 463.80889893 161.20440674 C491.34929219 179.36800886 517.93905457 198.83786654 543.46466064 219.73516846 C545.07160463 221.04970626 546.68215958 222.35982726 548.29327393 223.66925049 C558.35833157 231.85901355 568.25697461 240.19433089 577.81671143 248.97003174 C579.90804706 250.87965575 582.02195632 252.75115676 584.16436768 254.60284424 C592.48165848 261.84418161 600.51715412 269.37469281 608.25811768 277.22784424 C610.14649243 279.08716708 612.0857952 280.82172508 614.10186768 282.54034424 C621.78225547 289.14547774 628.89131498 296.45654021 635.44952393 304.16925049 C637.79433063 306.79284525 640.28587405 309.25752894 642.78936768 311.72784424 C646.4934656 315.38776427 650.04224536 319.11728219 653.42218018 323.07940674 C655.31723683 325.25991126 657.2688886 327.38166955 659.23419189 329.49884033 C663.97318407 334.6067264 668.48193847 339.82789651 672.85186768 345.25909424 C675.71863571 348.75067069 678.68730086 352.1429397 681.66436768 355.54034424 C687.27457453 361.96868936 692.6040485 368.56665635 697.81329346 375.32208252 C699.40808247 377.38111709 701.01749059 379.42813313 702.62921143 381.47393799 C710.24600798 391.16283424 717.59935924 401.00757416 724.74102783 411.05157471 C726.22433548 413.13643821 727.71517418 415.21571944 729.20733643 417.29425049 C748.76548397 444.64855722 766.55817239 473.07645809 783.28936768 502.22784424 C784.26365723 503.92433105 784.26365723 503.92433105 785.25762939 505.65509033 C811.66086464 551.92342328 833.72056422 600.32737425 852.28936768 650.22784424 C852.54806641 650.92144043 852.80676514 651.61503662 853.07330322 652.32965088 C883.21740975 733.31395983 902.18554214 818.91010997 910.07647705 904.93835449 C910.28995507 907.23416128 910.5154738 909.52855553 910.74249268 911.82305908 C916.20834239 968.25175037 916.19599496 1027.52943285 910.51721191 1083.93847656 C910.28492233 1086.2725109 910.06641856 1088.60749326 909.85137939 1090.94317627 C903.77032899 1156.53980975 890.74106867 1221.02504222 872.28936768 1284.22784424 C871.75907959 1286.05436523 871.75907959 1286.05436523 871.21807861 1287.91778564 C850.77858415 1357.69298878 821.58753147 1427.02861533 784.72930908 1489.75811768 C783.24784153 1492.29906812 781.80161804 1494.85739803 780.36358643 1497.42315674 C768.64070852 1518.30422919 755.72879489 1538.4160976 742.28936768 1558.22784424 C741.80516357 1558.94375732 741.32095947 1559.65967041 740.82208252 1560.39727783 C729.52342328 1577.07850927 717.64610452 1593.31610929 705.28936768 1609.22784424 C704.79662354 1609.86238525 704.30387939 1610.49692627 703.79620361 1611.1506958 C694.70814229 1622.83010749 685.33444241 1634.25728316 675.73956299 1645.52325439 C674.27133729 1647.24903753 672.80763235 1648.97858696 671.34405518 1650.70831299 C665.41777892 1657.69084372 659.34393946 1664.50273381 653.09796143 1671.20050049 C650.57935833 1673.90332921 648.11698582 1676.65237722 645.66436768 1679.41534424 C641.80333163 1683.73103127 637.73634287 1687.80015708 633.61749268 1691.86846924 C631.62373884 1693.88898487 629.75308632 1695.94279612 627.91436768 1698.10284424 C621.33811642 1705.76736402 614.03674378 1712.85013774 606.34796143 1719.38800049 C603.72436666 1721.7328072 601.25968297 1724.22435062 598.78936768 1726.72784424 C595.12944764 1730.43194216 591.39992972 1733.98072192 587.43780518 1737.36065674 C585.25730065 1739.2557134 583.13554236 1741.20736516 581.01837158 1743.17266846 C575.91048552 1747.91166063 570.68931541 1752.42041503 565.25811768 1756.79034424 C561.76654123 1759.65711227 558.37427221 1762.62577742 554.97686768 1765.60284424 C548.54852255 1771.21305109 541.95055556 1776.54252506 535.19512939 1781.75177002 C533.13609482 1783.34655903 531.08907878 1784.95596715 529.04327393 1786.56768799 C519.35437768 1794.18448455 509.50963776 1801.53783581 499.46563721 1808.67950439 C497.3807737 1810.16281204 495.30149247 1811.65365074 493.22296143 1813.14581299 C465.89348432 1832.68810712 437.48036548 1850.60788847 408.28936768 1867.22784424 C407.23314209 1867.83144775 406.1769165 1868.43505127 405.08868408 1869.0569458 C322.45327437 1916.07682609 233.51024353 1949.77055729 9.78936768 1993.54034424 C9.03222473 1993.61588531 8.27508179 1993.69142639 7.49499512 1993.76925659 C1.76516929 1994.3307433 -3.96977319 1994.79496196 -9.71063232 1995.22784424 C-10.82305298 1995.3139798 -11.93547363 1995.40011536 -13.081604 1995.48886108 C-36.41666368 1997.24728262 -59.68822803 1997.59180839 -83.08294296 1997.54590225 C-86.00535894 1997.54025785 -88.9277691 1997.53743996 -91.85018921 1997.53482056 C-119.04782296 1997.49938437 -146.11989101 1997.23912332 -173.20196533 1994.4810791 C-175.85468015 1994.21330348 -178.50849934 1993.9595752 -181.16278076 1993.70782471 C-252.19101068 1986.90650434 -322.76313208 1972.96441933 -390.65429688 1950.89459229 C-392.72725954 1950.22245301 -394.80234475 1949.55728031 -396.87811279 1948.89385986 C-430.24890291 1938.21015185 -462.67705354 1925.40491184 -494.71063232 1911.22784424 C-495.84839111 1910.72462646 -496.9861499 1910.22140869 -498.15838623 1909.70294189 C-525.67114779 1897.44469759 -552.93399787 1884.06849378 -578.93084717 1868.84649658 C-581.97682768 1867.07284027 -585.03941573 1865.33037859 -588.10516357 1863.59112549 C-608.52869415 1851.97347949 -628.26012512 1839.40077065 -647.71063232 1826.22784424 C-648.71851807 1825.54625244 -648.71851807 1825.54625244 -649.74676514 1824.85089111 C-672.92861831 1809.14012763 -695.41127898 1792.43550153 -717.01922607 1774.6194458 C-719.44740833 1772.62166305 -721.89349647 1770.64603 -724.33563232 1768.66534424 C-733.58739686 1761.08307105 -742.63844801 1753.26692157 -751.49578857 1745.22784424 C-753.48475734 1743.43180895 -755.49626427 1741.66831121 -757.52313232 1739.91534424 C-765.85529855 1732.64578221 -773.91735833 1725.10236133 -781.67938232 1717.22784424 C-783.56775708 1715.3685214 -785.50705985 1713.63396339 -787.52313232 1711.91534424 C-795.20352012 1705.31021074 -802.31257962 1697.99914827 -808.87078857 1690.28643799 C-811.21559528 1687.66284322 -813.7071387 1685.19815954 -816.21063232 1682.72784424 C-819.91473025 1679.0679242 -823.46351001 1675.33840628 -826.84344482 1671.37628174 C-828.73850148 1669.19577721 -830.69015325 1667.07401892 -832.65545654 1664.95684814 C-837.39444871 1659.84896208 -841.90320312 1654.62779197 -846.27313232 1649.19659424 C-849.13990036 1645.70501779 -852.10856551 1642.31274877 -855.08563232 1638.91534424 C-860.69583917 1632.48699912 -866.02531315 1625.88903213 -871.23455811 1619.13360596 C-872.82934712 1617.07457138 -874.43875523 1615.02755534 -876.05047607 1612.98175049 C-883.66397033 1603.29705491 -891.01473241 1593.45681168 -898.15350342 1583.41729736 C-899.66396094 1581.2934681 -901.18103469 1579.17449805 -902.69891357 1577.05596924 C-931.37419219 1536.88970373 -956.61108334 1494.5130351 -979.01239014 1450.5569458 C-980.11916957 1448.3873017 -981.23028943 1446.21986458 -982.34637451 1444.05499268 C-1025.48398715 1360.37589121 -1055.28815866 1268.39056378 -1083.02313232 1094.22784424 C-1083.0986734 1093.49461945 -1083.17421448 1092.76139465 -1083.25204468 1092.00595093 C-1083.81782217 1086.41902712 -1084.28182548 1080.82682799 -1084.71063232 1075.22784424 C-1084.79676788 1074.12783081 -1084.88290344 1073.02781738 -1084.97164917 1071.89447021 C-1086.76822647 1048.2403625 -1087.07406938 1024.64271074 -1087.02869034 1000.92780304 C-1087.02304934 997.93380174 -1087.02022935 994.9398061 -1087.01760864 991.94580078 C-1086.98262728 964.46028558 -1086.80320698 937.0757515 -1083.96710205 909.70977783 C-1083.69480028 907.07463288 -1083.43415397 904.43848265 -1083.17449951 901.80206299 C-1074.52618659 814.96543984 -1055.23167617 729.69827398 -983.50213623 552.82550049 C-981.8167119 549.44809947 -980.15801415 546.05805612 -978.50360107 542.66534424 C-972.260497 529.92266699 -965.53959378 517.51896223 -958.44207764 505.23321533 C-956.63060286 502.08893241 -954.83748731 498.9346578 -953.04656982 495.77862549 C-945.00600437 481.65537018 -936.61568199 467.82240189 -927.71063232 454.22784424 C-927.13458252 453.34789795 -926.55853271 452.46795166 -925.96502686 451.56134033 C-906.78406066 422.35383839 -886.33941186 394.09132723 -864.20330811 367.05255127 C-862.8887703 365.44560728 -861.57864931 363.83505233 -860.26922607 362.22393799 C-852.07946302 352.15888035 -843.74414567 342.2602373 -834.96844482 332.70050049 C-833.05882081 330.60916485 -831.18731981 328.4952556 -829.33563232 326.35284424 C-822.09429495 318.03555344 -814.56378376 310.00005779 -806.71063232 302.25909424 C-804.85130949 300.37071948 -803.11675148 298.43141671 -801.39813232 296.41534424 C-794.79299882 288.73495644 -787.48193635 281.62589694 -779.76922607 275.06768799 C-777.14563131 272.72288128 -774.68094762 270.23133786 -772.21063232 267.72784424 C-768.55071229 264.02374632 -764.82119437 260.47496655 -760.85906982 257.09503174 C-758.6785653 255.19997508 -756.55680701 253.24832332 -754.43963623 251.28302002 C-749.33175017 246.54402785 -744.11058005 242.03527345 -738.67938232 237.66534424 C-735.18780588 234.79857621 -731.79553686 231.82991106 -728.39813232 228.85284424 C-721.9697872 223.24263739 -715.37182021 217.91316341 -708.61639404 212.70391846 C-706.55735947 211.10912945 -704.51034343 209.49972133 -702.46453857 207.88800049 C-692.0738093 199.71946726 -681.48208986 191.88558405 -670.71063232 184.22784424 C-669.2848041 183.20837868 -667.85902227 182.18884824 -666.43328857 181.16925049 C-657.04669571 174.47847236 -647.52859071 168.00241963 -637.89862061 161.66729736 C-636.48673711 160.73843493 -635.07615574 159.80758878 -633.66717529 158.87432861 C-613.89702262 145.7879319 -593.40356211 133.78927863 -572.71063232 122.22784424 C-571.40980713 121.49912109 -571.40980713 121.49912109 -570.08270264 120.75567627 C-491.87233474 77.14219676 -407.82524891 45.18219325 -178.01574707 0.44073486 C-175.73134357 0.22975704 -173.44882597 0.00405391 -171.16619873 -0.22528076 C-115.07394534 -5.77104526 -56.0769595 -5.64535163 0 0 Z M-364.59124756 118.54937744 C-366.66533962 119.21334494 -368.74135452 119.87091173 -370.8180542 120.52667236 C-413.52109446 134.04241005 -454.52298672 151.5132791 -494.71063232 171.22784424 C-495.48938721 171.60892334 -496.26814209 171.99000244 -497.07049561 172.38262939 C-501.63855637 174.62326159 -506.17964965 176.91328465 -510.71063232 179.22784424 C-511.53885498 179.64823975 -512.36707764 180.06863525 -513.22039795 180.50177002 C-528.37535614 188.21233029 -543.12038599 196.49879896 -557.71063232 205.22784424 C-558.71755127 205.82951416 -559.72447021 206.43118408 -560.76190186 207.05108643 C-571.89485955 213.72122521 -582.93296834 220.49064808 -593.6461792 227.81866455 C-596.05245219 229.46116783 -598.4674667 231.09044849 -600.88250732 232.72003174 C-624.07625265 248.40460144 -646.31829945 265.05580837 -667.97088623 282.80401611 C-669.5301156 284.08010728 -671.09464332 285.34971805 -672.65985107 286.61846924 C-683.65000428 295.53894395 -694.32772739 304.7624816 -704.67938232 314.41534424 C-707.405042 316.95516348 -710.17603912 319.44015028 -712.96063232 321.91534424 C-716.98164419 325.51343415 -720.78599381 329.28157028 -724.57391357 333.12237549 C-726.49823941 335.01855762 -728.46721418 336.78963456 -730.52313232 338.54034424 C-738.22630277 345.16507082 -745.3580751 352.5011794 -751.93719482 360.23565674 C-754.10176651 362.66722405 -756.39492686 364.93995505 -758.71063232 367.22784424 C-762.2598139 370.73960974 -765.6303169 374.31793325 -768.87469482 378.11065674 C-771.06269402 380.63383879 -773.32356345 383.08338943 -775.58563232 385.54034424 C-779.65603288 390.00307256 -783.51240142 394.59042424 -787.30438232 399.29034424 C-790.00843622 402.59139705 -792.79222653 405.81506027 -795.58563232 409.04034424 C-801.52502083 415.93130616 -807.16414528 423.01860241 -812.71063232 430.22784424 C-813.62401367 431.41023682 -813.62401367 431.41023682 -814.55584717 432.61651611 C-823.06782589 443.64659562 -831.39953378 454.76932879 -839.32684326 466.22784424 C-840.69162084 468.20036681 -842.06392163 470.16748014 -843.43719482 472.13409424 C-868.17454441 507.6895787 -890.5988572 545.21418831 -909.66375732 584.1194458 C-910.79302637 586.39378523 -911.9524563 588.65099861 -913.11688232 590.90753174 C-952.35481371 667.33760589 -977.79329819 751.05598704 -1002.96063232 904.79034424 C-1003.03785522 905.54147491 -1003.11507812 906.29260559 -1003.19464111 907.0664978 C-1003.77326903 912.78143388 -1004.26174666 918.50133459 -1004.71063232 924.22784424 C-1004.84143692 925.88037201 -1004.84143692 925.88037201 -1004.97488403 927.56628418 C-1006.64580449 949.34650171 -1007.07622943 971.04365609 -1007.02869034 992.88148499 C-1007.02303649 995.52261415 -1007.02022438 998.16373685 -1007.01760864 1000.80487061 C-1006.98061608 1026.52106544 -1006.57911024 1052.10754053 -1003.96710205 1077.71228027 C-1003.69630467 1080.36837597 -1003.43517122 1083.02532671 -1003.17449951 1085.68243408 C-995.01854952 1167.81778441 -976.37512035 1248.72491493 -910.48797607 1407.62628174 C-908.95561101 1410.72687574 -907.43993541 1413.8353058 -905.92938232 1416.94659424 C-885.50801559 1458.76601939 -860.06243636 1498.62874461 -832.71063232 1536.22784424 C-831.91205811 1537.32612549 -831.91205811 1537.32612549 -831.09735107 1538.44659424 C-818.595322 1555.60513526 -805.5533433 1572.23341838 -791.78778076 1588.39874268 C-788.95244409 1591.73454878 -786.19081561 1595.11735128 -783.46063232 1598.54034424 C-778.96690948 1604.07232796 -774.11203955 1609.23479263 -769.20184326 1614.39508057 C-766.12384205 1617.63252779 -763.10617349 1620.89648485 -760.18719482 1624.27862549 C-756.86251791 1628.11044861 -753.33446837 1631.68078013 -749.71063232 1635.22784424 C-746.03615384 1638.85575564 -742.4031835 1642.4522597 -739.08563232 1646.41534424 C-735.85031706 1650.23447579 -732.18633766 1653.53232209 -728.47283936 1656.87213135 C-724.68142425 1660.29524766 -721.04707156 1663.84122907 -717.46063232 1667.47784424 C-713.68395124 1671.29797707 -709.8490237 1674.97935819 -705.75750732 1678.46221924 C-703.25348383 1680.62217843 -700.83065535 1682.86272417 -698.39813232 1685.10284424 C-693.95461583 1689.15625778 -689.38465136 1692.98968301 -684.70281982 1696.76300049 C-681.90530872 1699.06747765 -679.17933859 1701.43240694 -676.46038818 1703.82794189 C-669.23505132 1710.18668998 -661.77766213 1716.12367154 -654.08953857 1721.91143799 C-651.13091163 1724.13950708 -648.20465714 1726.40191848 -645.30047607 1728.70050049 C-636.09736487 1735.97965499 -626.69413126 1742.792303 -616.96063232 1749.34503174 C-613.66980573 1751.56232648 -610.45295098 1753.85291718 -607.27313232 1756.22784424 C-539.88381687 1805.75743356 -460.6072773 1842.26370562 -381.71063232 1869.22784424 C-381.09091553 1869.44078125 -380.47119873 1869.65371826 -379.83270264 1869.87310791 C-300.6080387 1897.07249853 -217.51428224 1912.16842915 -108.78094482 1917.43096924 C-107.11041234 1917.43799334 -105.43988012 1917.44508014 -103.76934814 1917.45222473 C-98.4581056 1917.47162509 -93.14690673 1917.4766593 -87.83563232 1917.47784424 C-86.92992241 1917.47828609 -86.02421249 1917.47872795 -85.09105682 1917.4791832 C-57.1894204 1917.48631972 -29.48795877 1917.10067709 -1.71063232 1914.22784424 C0.07336979 1914.04898552 1.85738717 1913.87027893 3.64141846 1913.69171143 C28.67112067 1911.15218265 53.52927293 1907.67931564 78.28936768 1903.22784424 C78.99096008 1903.10256348 79.69255249 1902.97728271 80.41540527 1902.84820557 C117.8304211 1896.14220232 155.15882246 1887.03921594 191.28936768 1875.22784424 C192.08155701 1874.96958862 192.87374634 1874.71133301 193.68994141 1874.44525146 C237.92992556 1859.99313713 280.48893366 1842.72220124 322.28936768 1822.22784424 C323.42551514 1821.67338623 324.5616626 1821.11892822 325.73223877 1820.54766846 C341.90868807 1812.63694936 357.72575741 1804.2833665 373.28936768 1795.22784424 C374.74229316 1794.39156002 376.19540528 1793.55559991 377.64874268 1792.72003174 C419.12534828 1768.73967542 458.64568936 1741.08809215 495.60235596 1710.61505127 C497.12579926 1709.36234434 498.65823403 1708.12059164 500.19171143 1706.88018799 C511.29862939 1697.89353336 522.03321001 1688.47910588 532.51983643 1678.77862549 C535.12643775 1676.37790523 537.76470591 1674.01830982 540.41436768 1671.66534424 C544.74663262 1667.78435689 548.83591763 1663.70096345 552.92218018 1659.56378174 C554.98570969 1657.52749354 557.08752527 1655.61134798 559.28936768 1653.72784424 C566.19500039 1647.79876564 572.47155037 1641.26997088 578.37921143 1634.35675049 C580.75126257 1631.71305341 583.26218021 1629.22143228 585.78936768 1626.72784424 C589.51535611 1623.04637704 593.08793013 1619.29489277 596.48858643 1615.30987549 C598.6626097 1612.79630845 600.91327256 1610.36008195 603.16436768 1607.91534424 C607.23476824 1603.45261591 611.09113677 1598.86526424 614.88311768 1594.16534424 C617.58716769 1590.86429617 620.37084582 1587.64052336 623.16436768 1584.41534424 C629.10533459 1577.52694006 634.7371481 1570.43128153 640.28936768 1563.22784424 C641.04902832 1562.24775391 641.04902832 1562.24775391 641.82403564 1561.24786377 C665.28476141 1530.97060211 686.9238852 1499.27922222 706.28936768 1466.22784424 C707.15513428 1464.76121338 707.15513428 1464.76121338 708.03839111 1463.26495361 C717.70998283 1446.86283901 726.68542742 1430.2110487 735.28936768 1413.22784424 C735.68172607 1412.45827393 736.07408447 1411.68870361 736.47833252 1410.89581299 C738.42606386 1407.07522793 740.34163482 1403.24054102 742.22735596 1399.38897705 C742.99416414 1397.82856646 743.76669285 1396.27096253 744.54278564 1394.71514893 C759.60451012 1364.48415464 772.02465465 1333.0487458 783.28936768 1301.22784424 C783.54311157 1300.51128662 783.79685547 1299.794729 784.05828857 1299.05645752 C812.62128716 1218.11960844 828.63691762 1133.27968452 741.24639893 591.51690674 C735.72681625 580.00417385 729.94569881 568.70149225 723.62921143 557.60186768 C722.23941668 555.13933777 720.88522816 552.65994853 719.53936768 550.17315674 C695.75404206 506.25107913 667.56526177 464.16644016 636.28936768 425.22784424 C635.78051025 424.59281982 635.27165283 423.95779541 634.74737549 423.30352783 C627.57912032 414.37262269 620.25392704 405.5957376 612.7600708 396.93682861 C611.29571879 395.23522436 609.84532973 393.52269027 608.39874268 391.80596924 C601.26700368 383.36187532 593.80832241 375.27497067 586.20391846 367.25567627 C584.32460387 365.26516531 582.4590059 363.2627792 580.59796143 361.25518799 C573.965239 354.10772125 567.2346108 347.07299749 560.35186768 340.16534424 C559.66624756 339.47513184 558.98062744 338.78491943 558.27423096 338.0737915 C554.32495219 334.13649186 550.25887615 330.40037947 546.03717041 326.75738525 C544.02732359 324.99852363 542.14417814 323.14889793 540.28936768 321.22784424 C537.11820738 318.01349693 533.83354015 315.01033461 530.41046143 312.06768799 C528.06445709 310.03275605 525.77200317 307.94493457 523.47686768 305.85284424 C519.1797694 301.97433697 514.75178013 298.29918456 510.25030518 294.66143799 C507.59158748 292.47623862 504.98870328 290.24370643 502.39459229 287.98321533 C494.66977916 281.26229001 486.63497601 275.02797863 478.45831299 268.86895752 C476.31724894 267.24894035 474.1881319 265.61453242 472.06280518 263.97393799 C454.31375618 250.27675039 436.05232889 237.50078233 417.28936768 225.22784424 C416.38202881 224.63358643 415.47468994 224.03932861 414.53985596 223.42706299 C392.06766785 208.76823091 368.84958398 195.29936967 345.14385986 182.74102783 C342.3151786 181.24152676 339.49365178 179.72913841 336.67218018 178.21612549 C321.81409433 170.30093767 306.64485659 163.12309148 291.28936768 156.22784424 C290.6796814 155.9539386 290.06999512 155.68003296 289.4418335 155.39782715 C271.27083417 147.25000033 252.91739223 139.75057702 234.20227051 132.92645264 C232.25202239 132.21420542 230.30355676 131.49723774 228.35528564 130.77960205 C150.49009238 102.16529783 68.96517392 84.94006938 -364.59124756 118.54937744 Z " fill="#272037" transform="translate(1086.7106323242188,2.77215576171875)"/>
<path d="M0 0 C31.68 0 63.36 0 96 0 C96 51.15 96 102.3 96 155 C121.41 155 146.82 155 173 155 C173 103.85 173 52.7 173 0 C205.01 0 237.02 0 270 0 C270 52.14 270 104.28 270 158 C273.3 158 276.6 158 280 158 C282.6655981 158.24002787 285.32700368 158.53331329 287.98046875 158.8828125 C289.06452751 159.0244709 289.06452751 159.0244709 290.17048645 159.16899109 C292.51078985 159.47878142 294.84921533 159.80034092 297.1875 160.125 C297.99823975 160.23637299 298.80897949 160.34774597 299.64428711 160.4624939 C354.01726796 167.9802224 411.49847335 181.06666673 454 218 C454.97324219 218.84046875 455.94648437 219.6809375 456.94921875 220.546875 C481.55248165 242.20069193 496.57272886 272.13592557 503 304 C503.22647217 305.10384033 503.22647217 305.10384033 503.45751953 306.22998047 C511.863603 349.47551668 506.55460126 398.73378462 482 436 C467.27588686 457.3266399 447.78198189 473.00310528 425 485 C425.76852295 485.22550537 426.5370459 485.45101074 427.32885742 485.68334961 C473.38076069 499.30230528 517.80331347 520.15163739 542.01806641 564.0090332 C550.17629887 579.31456664 555.51231222 595.02213919 559 612 C559.24991699 613.21647217 559.24991699 613.21647217 559.50488281 614.45751953 C567.78720921 657.52390205 562.57347341 706.94755816 548 748 C547.56171875 749.24394531 547.1234375 750.48789063 546.671875 751.76953125 C539.16330378 771.68450605 528.62056666 790.18471178 514.078125 805.76953125 C512.16973109 807.81782622 510.36375274 809.92035597 508.5625 812.0625 C492.61112102 830.23035761 470.67149196 842.86543304 449 853 C448.2457373 853.35562012 447.49147461 853.71124023 446.71435547 854.07763672 C403.97060768 873.98604485 356.33263515 881.3681071 309.8125 886.25 C309.02886078 886.33326538 308.24522156 886.41653076 307.43783569 886.50231934 C294.61437784 887.84666097 281.91257938 888.41306457 269 889 C269 941.8 269 994.6 269 1049 C236.99 1049 204.98 1049 172 1049 C172 996.53 172 944.06 172 890 C146.59 890 121.18 890 95 890 C95 942.47 95 994.94 95 1049 C62.99 1049 30.98 1049 -2 1049 C-2 995.87 -2 942.74 -2 888 C-66.02 888 -130.04 888 -196 888 C-195.39654932 879.55169051 -194.77729306 871.45766329 -193.43359375 863.1550293 C-193.27899689 862.16948059 -193.12440002 861.18393188 -192.96511841 860.16851807 C-192.46173067 856.96946699 -191.94988804 853.77183952 -191.4375 850.57421875 C-191.08220008 848.33224224 -190.72730784 846.09020108 -190.37280273 843.84809875 C-189.63346796 839.18043548 -188.8900697 834.513444 -188.14355469 829.84692383 C-187.18497516 823.85339354 -186.23545424 817.85847014 -185.28874207 811.86305523 C-184.5592563 807.24824175 -183.82571632 802.63408021 -183.09085083 798.02012062 C-182.73887283 795.80779438 -182.38802067 793.59528873 -182.03829956 791.3826046 C-181.5517062 788.30868918 -181.05982624 785.23566773 -180.56640625 782.1628418 C-180.42196075 781.24400711 -180.27751526 780.32517242 -180.12869263 779.37849426 C-179.11436767 773.11436767 -179.11436767 773.11436767 -178 772 C-175.73269434 771.89158964 -173.46200605 771.85367994 -171.19213867 771.84228516 C-170.47975037 771.83720444 -169.76736206 771.83212372 -169.03338623 771.82688904 C-167.47938977 771.8161583 -165.92537759 771.80754881 -164.37135887 771.80076981 C-161.9021386 771.78898696 -159.43309374 771.76952912 -156.96394348 771.74765015 C-149.94062263 771.68606128 -142.91731338 771.63225758 -135.89379883 771.59863281 C-131.60011623 771.57752278 -127.30674307 771.54207582 -123.01323891 771.49787521 C-121.3848266 771.48382578 -119.75635941 771.4750181 -118.12788963 771.47182083 C-103.61802888 771.44035669 -90.98206288 770.4675559 -80 760 C-71.22652404 749.06392375 -71.70641724 736.71431488 -71.73257446 723.41497803 C-71.72883528 721.61393584 -71.72423269 719.81289528 -71.71884382 718.01185727 C-71.70663169 713.07478295 -71.70687218 708.13777648 -71.70923257 703.20069051 C-71.70964118 697.87129632 -71.69859734 692.54192375 -71.68911743 687.21253967 C-71.67251645 676.77588873 -71.6670083 666.33926038 -71.66589268 655.90259734 C-71.66494181 647.4179845 -71.6608296 638.9333791 -71.65449142 630.44876862 C-71.63688177 606.38529188 -71.62765217 582.32183297 -71.62915237 558.25834975 C-71.62927224 556.3131302 -71.62927224 556.3131302 -71.62939453 554.32861328 C-71.62951717 552.38101462 -71.62951717 552.38101462 -71.62964229 550.39407054 C-71.6304552 529.35161742 -71.61131561 508.30923588 -71.5831178 487.26680347 C-71.5543828 465.65270348 -71.54057783 444.0386384 -71.54230535 422.42451882 C-71.54296902 410.29298902 -71.53748674 398.16153426 -71.51594925 386.03002167 C-71.49772943 375.70121458 -71.49339679 365.37251657 -71.5069681 355.04370037 C-71.51349352 349.77625783 -71.51363011 344.50902452 -71.4962616 339.24160194 C-71.4805074 334.41401631 -71.48341857 329.58680537 -71.50082986 324.75922874 C-71.50389456 323.01836108 -71.50028747 321.2774653 -71.48910971 319.53663084 C-71.39278046 303.46201186 -74.24093213 290.41307382 -85 278 C-91.8456373 271.61136028 -98.98936543 267.48978061 -108 265 C-108.62067856 264.8279454 -109.24135712 264.65589081 -109.88084412 264.47862244 C-113.77241888 263.59968993 -117.74704516 263.60655814 -121.72265625 263.44140625 C-122.72273209 263.39915421 -123.72280792 263.35690216 -124.75318909 263.31336975 C-138.97608296 262.77809919 -153.2072809 262.89470747 -167.4375 262.9375 C-177.193125 262.958125 -186.94875 262.97875 -197 263 C-197 228.68 -197 194.36 -197 159 C-131.99 159 -66.98 159 0 159 C0 106.53 0 54.06 0 0 Z M99 270 C99 333.36 99 396.72 99 462 C106.50625488 462.68238681 113.75209699 463.15861003 121.25390625 463.16796875 C122.82396927 463.17432091 122.82396927 463.17432091 124.42575073 463.18080139 C127.80470846 463.19064671 131.18353051 463.19072623 134.5625 463.1875 C135.72105499 463.18689575 136.87960999 463.1862915 138.07327271 463.18566895 C193.36248394 463.10746301 260.30501019 462.22658334 302.8125 421.625 C318.48123125 405.4377352 324.54340291 384.77011136 324.21484375 362.6171875 C323.47856305 340.9494984 315.24731766 320.58327967 299.55957031 305.42285156 C259.36491888 268.75183896 196.49228894 268.6084091 145.54394531 268.80438232 C141.94899155 268.81531648 138.35407512 268.81484734 134.75910759 268.81424427 C131.27437272 268.81451614 127.78966222 268.8199962 124.30493546 268.82724571 C122.65199084 268.83040949 120.99904351 268.83239438 119.34609604 268.83313942 C117.05083228 268.83531408 114.75568729 268.8440756 112.46044922 268.85473633 C110.51052567 268.86045403 110.51052567 268.86045403 108.52120972 268.86628723 C104.56623693 268.94191951 104.56623693 268.94191951 99 270 Z M98 560 C98 629.96 98 699.92 98 772 C102.7608561 772.6801223 106.81774851 773.12887422 111.54150391 773.14526367 C113.43569313 773.15468239 113.43569313 773.15468239 115.3681488 773.16429138 C116.73761976 773.16579741 118.10709105 773.16701509 119.4765625 773.16796875 C120.91296954 773.17204302 122.34937601 773.17632498 123.78578186 773.18080139 C128.39886758 773.19240807 133.01190441 773.19097787 137.625 773.1875 C138.40813694 773.18723312 139.19127388 773.18696625 139.99814224 773.18669128 C163.70344568 773.17649995 187.37250459 773.14322566 211 771 C212.0560141 770.90525391 212.0560141 770.90525391 213.13336182 770.80859375 C233.73436741 768.93070166 253.85576014 765.77514501 274 761 C274.88059082 760.79262207 275.76118164 760.58524414 276.66845703 760.37158203 C299.2426094 754.92202284 320.91364377 745.69349472 339 731 C339.73863281 730.41476562 340.47726562 729.82953125 341.23828125 729.2265625 C357.25120559 715.98092023 366.3180943 696.7989569 368.72265625 676.39453125 C370.74167407 651.68289063 364.67693073 628.53337836 348.875 609.3125 C315.56961999 570.72423768 256.93045107 564.00438058 209.26641846 560.43128967 C172.23332888 557.76473595 135.07313698 559.21120985 98 560 Z " fill="#F09241" transform="translate(842,494)"/>
<path d="M0 0 C6.52878733 5.37193906 12.44579862 11.31785074 18.40234375 17.3046875 C19.49071139 18.39492365 20.57930257 19.48493669 21.66810608 20.57473755 C24.51269535 23.42311794 27.35426681 26.27449004 30.19519043 29.12652588 C33.10289665 32.04452 36.01348824 34.95963304 38.92382812 37.875 C44.61869081 43.58053984 50.31036412 49.28924794 56 55 C54.22496395 58.80133753 51.8094048 61.54924975 48.9375 64.5625 C44.52184378 69.28520038 40.35157459 74.1361635 36.296875 79.17578125 C34.27467062 81.66226725 32.20838121 84.10285799 30.11791992 86.53198242 C23.66281515 94.04930504 17.62098801 101.8497197 11.67382812 109.77294922 C10.58015313 111.22809847 9.48265315 112.68038287 8.38085938 114.12939453 C-12.95881976 142.19739451 -31.84326259 172.22382614 -49 203 C-49.50998535 203.91023926 -50.0199707 204.82047852 -50.54541016 205.75830078 C-90.48154621 277.28515175 -118.03849479 355.50279287 -142.74285889 499.65356445 C-142.98855105 501.8955273 -143.24392416 504.13621288 -143.50048828 506.37695312 C-149.03988781 555.86490882 -148.67791479 608.54863218 -143 658 C-142.82100297 659.6134123 -142.64230086 661.22685733 -142.46386719 662.84033203 C-133.4939304 742.91189587 -112.98197953 821.42815425 -80 895 C-79.5064502 896.10134277 -79.01290039 897.20268555 -78.50439453 898.33740234 C-68.21054262 921.18620282 -57.17886912 943.54997978 -44.6015625 965.23242188 C-43.07454184 967.87118806 -41.56724743 970.52036441 -40.0625 973.171875 C-21.18474853 1006.10071545 1.05866132 1037.57210453 25 1067 C25.680625 1067.84304688 26.36125 1068.68609375 27.0625 1069.5546875 C36.36081192 1081.01153611 45.9960499 1092.15500985 56 1103 C51.65852929 1112.87157709 41.4308716 1120.67740087 33.875 1128.125 C28.28719764 1133.63332803 22.7789121 1139.13288379 17.67578125 1145.09716797 C14.63129607 1148.55414895 11.33925978 1151.76504383 8.0625 1155 C7.37865234 1155.67933594 6.69480469 1156.35867188 5.99023438 1157.05859375 C4.32912841 1158.70808359 2.66571487 1160.3551668 1 1162 C-5.4014387 1156.78269391 -5.4014387 1156.78269391 -8.0625 1153.625 C-8.6503125 1152.93535156 -9.238125 1152.24570313 -9.84375 1151.53515625 C-10.5553125 1150.69855469 -11.266875 1149.86195312 -12 1149 C-12.94646036 1147.91409357 -13.89450458 1146.82956646 -14.84375 1145.74609375 C-27.17414055 1131.65421883 -39.02217681 1117.22955282 -50.28759766 1102.27148438 C-52.10644734 1099.85879868 -53.93394148 1097.45280291 -55.76171875 1095.046875 C-63.46178637 1084.88146049 -70.89224246 1074.5871951 -78 1064 C-78.82533469 1062.78112394 -79.65085399 1061.56237285 -80.4765625 1060.34375 C-100.68350302 1030.39789743 -118.57254035 999.16153373 -135 967 C-135.56146729 965.90993652 -135.56146729 965.90993652 -136.13427734 964.79785156 C-138.48744362 960.22906405 -140.76551853 955.62794558 -143 951 C-143.44746582 950.07606445 -143.89493164 949.15212891 -144.35595703 948.20019531 C-158.44626462 918.93109812 -170.58649886 888.76659057 -181 858 C-181.43662661 856.72003175 -181.87331442 855.44008439 -182.31005859 854.16015625 C-210.03860405 772.60313921 -224.76769343 686.77264662 -226.625 600.6875 C-226.64712555 599.66931183 -226.6692511 598.65112366 -226.69204712 597.6020813 C-228.5239133 509.29340888 -216.94265371 420.44948111 -183 310 C-182.78901672 309.35716064 -182.57803345 308.71432129 -182.36065674 308.05200195 C-167.57004101 263.01513246 -148.76085248 218.60954259 -126 177 C-125.09749138 175.33342261 -124.19515317 173.66675292 -123.29296875 172 C-109.46320884 146.55605673 -94.31248104 121.92708736 -78 98 C-77.43168457 97.1661377 -76.86336914 96.33227539 -76.27783203 95.47314453 C-67.27556182 82.32032691 -57.76970266 69.59090022 -48 57 C-47.19272461 55.95875977 -47.19272461 55.95875977 -46.36914062 54.89648438 C-34.46166067 39.56926244 -22.0895622 24.64114155 -9.046875 10.265625 C-5.98877053 6.88070021 -2.99414536 3.44142161 0 0 Z " fill="#595463" transform="translate(369,420)"/>
<path d="M0 0 C1.96393117 0.95261622 3.27506331 1.96310568 4.83946228 3.48503113 C5.68214661 4.29025208 5.68214661 4.29025208 6.54185486 5.11174011 C7.13377625 5.68867615 7.72569763 6.26561218 8.33555603 6.86003113 C13.32074017 11.60172133 18.37523673 16.12768606 23.74961853 20.43034363 C26.07671765 22.30044137 28.37950856 24.18984022 30.67149353 26.10221863 C39.50811869 33.46777555 48.47725413 40.57924002 57.75596619 47.38005066 C59.75056158 48.84352649 61.73643304 50.31830241 63.72227478 51.79362488 C93.30378576 73.61258672 124.55913894 93.29613996 157.06993103 110.43278503 C159.61299437 111.7755188 162.14729407 113.13331917 164.67930603 114.49674988 C240.64621539 155.23228497 324.27548889 181.01112586 439.71055603 198.11003113 C440.40538086 198.18725403 441.10020569 198.26447693 441.81608582 198.34403992 C447.12894533 198.92532944 452.44724793 199.41366918 457.77305603 199.86003113 C458.80844513 199.94723419 459.84383423 200.03443726 460.91059875 200.12428284 C481.07342356 201.76787055 501.12588444 202.22554989 521.34457016 202.17788696 C523.75132656 202.17243884 526.15807312 202.17007716 528.56483459 202.16801453 C551.7199322 202.13710715 574.69579027 201.66915751 597.72795105 199.0846405 C599.80939609 198.85603998 601.89192765 198.64447786 603.97569275 198.43815613 C640.33627203 194.83086207 676.15821446 188.17373074 711.61070251 179.39524841 C713.65294631 178.88976021 715.69628371 178.38893716 717.73985291 177.88883972 C764.12518029 166.42586872 809.16518717 149.8072587 852.35948181 129.46403503 C855.32181569 128.07206439 858.29203372 126.7004586 861.26914978 125.34049988 C872.4024995 120.2216796 883.14006755 114.45334398 893.84141541 108.48991394 C896.84885854 106.81788776 899.86501096 105.16241231 902.88243103 103.50846863 C943.55841835 81.11024608 982.13829305 54.64352386 1017.77305603 24.86003113 C1018.28674744 24.43125671 1018.80043884 24.0024823 1019.32969666 23.56071472 C1025.03710963 18.78930393 1030.69113954 13.97405324 1036.21055603 8.98503113 C1037.00590759 8.26831238 1037.80125916 7.55159363 1038.62071228 6.81315613 C1039.95134659 5.60568398 1041.27353435 4.38873837 1042.58164978 3.15690613 C1044.14805603 1.73503113 1044.14805603 1.73503113 1046.77305603 -0.13996887 C1049.99236181 0.20382839 1051.62419386 1.34329384 1053.85411072 3.61637878 C1054.71585907 4.48330856 1054.71585907 4.48330856 1055.59501648 5.36775208 C1056.20548828 5.99684479 1056.81596008 6.6259375 1057.44493103 7.27409363 C1058.0861792 7.92195831 1058.72742737 8.569823 1059.3881073 9.23731995 C1061.44030498 11.31291808 1063.48211841 13.39836495 1065.52305603 15.48503113 C1067.55133027 17.54859231 1069.58178943 19.60993071 1071.61515808 21.66847229 C1072.87854947 22.94856978 1074.1388266 24.23175173 1075.39530945 25.51863098 C1079.11087711 29.29595693 1082.96615664 32.83237278 1086.97721863 36.29374695 C1089.0859902 38.13296444 1091.08416457 40.05706557 1093.05430603 42.04362488 C1093.75039978 42.74294128 1094.44649353 43.44225769 1095.16368103 44.1627655 C1095.85977478 44.86723816 1096.55586853 45.57171082 1097.27305603 46.29753113 C1098.36360291 47.39484558 1098.36360291 47.39484558 1099.47618103 48.514328 C1101.24415102 50.29392937 1103.00971981 52.07584031 1104.77305603 53.86003113 C1102.90249108 57.96629619 1100.14991259 60.5688478 1096.83555603 63.54753113 C1096.25217468 64.07862488 1095.66879333 64.60971863 1095.06773376 65.15690613 C1090.70534574 69.09735729 1086.21392585 72.85299848 1081.62852478 76.53190613 C1079.00134238 78.67390437 1076.43966573 80.870857 1073.88511658 83.0978241 C1066.86981714 89.20502926 1059.61031412 94.90699771 1052.18711853 100.50846863 C1049.21710984 102.7514508 1046.27740453 105.02688347 1043.35899353 107.33659363 C1033.51767627 115.1199845 1023.42827931 122.36194652 1013.00889587 129.3502655 C1010.27783093 131.19443515 1007.57609041 133.07849033 1004.87437439 134.96525574 C936.01894741 182.8979085 858.70563694 218.8541965 603.77305603 278.86003113 C602.94984863 278.93521973 602.12664124 279.01040833 601.27848816 279.08787537 C553.59388645 283.36334431 504.49774709 284.08960217 456.77305603 279.86003113 C455.25466552 279.72980625 453.73627354 279.59959857 452.21788025 279.46940613 C373.71928414 272.62820403 296.67817236 255.35079619 88.54844666 163.51530457 C85.89583866 161.93326004 83.23442959 160.36725602 80.56993103 158.80534363 C68.33344965 151.59859618 56.49897398 143.8670563 44.77305603 135.86003113 C43.84058044 135.22549011 42.90810486 134.5909491 41.94737244 133.93717957 C28.66446409 124.87726553 15.73140911 115.44512913 3.02207947 105.5978241 C1.03304438 104.06092095 -0.9644597 102.53659799 -2.96913147 101.02018738 C-9.52814895 96.05022008 -15.85721606 90.86280924 -22.10585022 85.51237488 C-24.95806266 83.07451894 -27.8664215 80.71270775 -30.78944397 78.36003113 C-35.8465434 74.24653042 -40.63340014 69.88791284 -45.41053772 65.45768738 C-48.95582082 62.18776607 -52.57365199 59.00830922 -56.22694397 55.86003113 C-54.63888379 52.01919925 -52.19301516 49.55375113 -49.28993225 46.61662292 C-48.7888797 46.10724686 -48.28782715 45.59787079 -47.77159119 45.07305908 C-46.11889872 43.39633078 -44.45869915 41.72730542 -42.79725647 40.05924988 C-41.64376786 38.89679449 -40.49035709 37.73426186 -39.33702087 36.57165527 C-36.92139358 34.13955604 -34.50142265 31.71186941 -32.07899475 29.2865448 C-28.97100844 26.17315737 -25.87952329 23.04391274 -22.79171944 19.91052532 C-20.41699057 17.50611635 -18.03114893 15.11297749 -15.64204025 12.72286415 C-14.49684042 11.57344886 -13.35577638 10.41989787 -12.21892166 9.26222801 C-10.63172529 7.64828806 -9.02961775 6.05078322 -7.42274475 4.45646667 C-6.51388519 3.54253647 -5.60502563 2.62860626 -4.66862488 1.6869812 C-2.22694397 -0.13996887 -2.22694397 -0.13996887 0 0 Z " fill="#595463" transform="translate(476.22694396972656,1575.1399688720703)"/>
<path d="M0 0 C3.01233253 1.32801757 4.83758368 2.66425838 6.9375 5.1875 C7.53949219 5.8990625 8.14148437 6.610625 8.76171875 7.34375 C9.50035156 8.2203125 10.23898437 9.096875 11 10 C12.52088872 11.75798545 14.04790332 13.5105465 15.57495117 15.26318359 C25.4896432 26.65330202 35.23004907 38.12478121 44.48730469 50.05761719 C46.11039835 52.14175747 47.74583896 54.21580916 49.3828125 56.2890625 C56.74919945 65.64529091 63.81355282 75.15560611 70.58398438 84.95166016 C71.96165402 86.94453055 73.34729061 88.93164395 74.734375 90.91796875 C96.75709233 122.56816868 116.46973455 155.66689319 134 190 C134.54019775 191.05550049 134.54019775 191.05550049 135.09130859 192.13232422 C137.04714789 195.96530287 138.96443399 199.81578296 140.85839844 203.6796875 C141.68732145 205.36447883 142.52207771 207.04640413 143.36035156 208.7265625 C165.41560181 252.98149816 182.41753254 299.48999011 196 347 C196.29716919 348.03559052 196.29716919 348.03559052 196.6003418 349.09210205 C213.57332327 408.40844476 223.88576109 470.37594011 227 532 C227.04130035 532.79180664 227.08260071 533.58361328 227.12515259 534.39941406 C227.8966643 549.43652581 228.20300553 564.44398439 228.1875 579.5 C228.18689575 580.6005069 228.1862915 581.70101379 228.18566895 582.83486938 C228.11776065 628.87131214 224.29705079 674.54531475 217 720 C216.89298767 720.66847961 216.78597534 721.33695923 216.67572021 722.0256958 C208.8110847 770.821542 195.79496656 818.36603523 179.67840576 865.03509521 C179.04538809 866.86853993 178.41539898 868.70302952 177.78564453 870.53759766 C149.33156961 953.03589819 105.97672421 1030.80304344 53 1100 C52.48324707 1100.67530762 51.96649414 1101.35061523 51.43408203 1102.04638672 C44.65141773 1110.88803956 37.7701158 1119.60579288 30.5078125 1128.05859375 C28.14106999 1130.8345394 25.84617969 1133.65563193 23.5625 1136.5 C19.64542727 1141.32046968 15.50031477 1145.88646198 11.24829102 1150.41015625 C8.03002334 1153.84008796 4.98077699 1157.36105875 2 1161 C-1.85308766 1159.42476254 -4.44743914 1156.82252556 -7.31933594 1153.90771484 C-7.83685928 1153.39048355 -8.35438263 1152.87325226 -8.8875885 1152.34034729 C-10.59130289 1150.63524329 -12.28782978 1148.92317232 -13.984375 1147.2109375 C-15.16649407 1146.025087 -16.34905645 1144.83967826 -17.53204346 1143.6546936 C-20.64028728 1140.53882362 -23.74247737 1137.41699366 -26.84344482 1134.29388428 C-30.01048502 1131.10636381 -33.18321387 1127.9245168 -36.35546875 1124.7421875 C-42.57589403 1118.50033024 -48.78993537 1112.25216515 -55 1106 C-54.03618192 1104.87439997 -53.07220246 1103.74893813 -52.1081543 1102.62353516 C-51.57135544 1101.99677887 -51.03455658 1101.37002258 -50.48149109 1100.72427368 C-48.93884611 1098.92882438 -47.38017725 1097.14861877 -45.8125 1095.375 C-21.96878137 1068.13994283 0.30147831 1039.38460207 20 1009 C20.51643066 1008.20674316 21.03286133 1007.41348633 21.56494141 1006.59619141 C38.11583169 981.11062151 53.52854346 954.76380021 66.81542969 927.41796875 C68.20488857 924.58177732 69.62318555 921.76059411 71.0390625 918.9375 C107.13731045 846.31399078 130.32715267 766.88893695 147 630 C147.04732269 629.27661438 147.09464539 628.55322876 147.1434021 627.80792236 C148.10324429 612.66906332 148.20100773 597.54030023 148.1875 582.375 C148.18659363 580.48882462 148.18659363 580.48882462 148.18566895 578.56454468 C148.15973502 558.6303696 147.76810808 538.86123802 146 519 C145.90525391 517.91147736 145.90525391 517.91147736 145.80859375 516.80096436 C139.18485996 441.06027309 122.38391162 365.93940015 38 182 C37.47857422 181.12698242 36.95714844 180.25396484 36.41992188 179.35449219 C22.87215369 156.76622735 7.90420625 134.98936693 -8 114 C-8.44601562 113.40767578 -8.89203125 112.81535156 -9.3515625 112.20507812 C-22.14026423 95.2384723 -35.6829099 78.73921971 -50.16015625 63.18359375 C-52.07422443 60.91190774 -53.50073227 58.55850711 -55 56 C-54.3257045 55.32792511 -53.651409 54.65585022 -52.9566803 53.96340942 C-46.61172462 47.63869903 -40.26939099 41.31136984 -33.92963505 34.98144722 C-30.66998802 31.72702548 -27.40941451 28.47354324 -24.14672852 25.22216797 C-20.99987249 22.08615334 -17.85544412 18.94772363 -14.71270561 15.80758286 C-13.51145551 14.60818473 -12.30932361 13.40966912 -11.10630989 12.21203995 C-9.42540356 10.53836062 -7.7476203 8.86161053 -6.07055664 7.18408203 C-5.31853973 6.43745804 -5.31853973 6.43745804 -4.55133057 5.67575073 C-1.94718915 3.08556841 -1.94718915 3.08556841 0 0 Z " fill="#595463" transform="translate(1630,418)"/>
<path d="M0 0 C1.02791656 0.08960999 1.02791656 0.08960999 2.07659912 0.18103027 C69.25431311 6.07451307 134.98778889 19.89773526 199 41 C199.64283936 41.21098328 200.28567871 41.42196655 200.94799805 41.63934326 C237.99528084 53.80608863 273.62933348 69.16962086 308.61572266 86.33935547 C311.71323763 87.85928743 314.81527441 89.3695874 317.91796875 90.87890625 C365.36183531 114.11090728 410.41151119 143.46373201 452 176 C453.15083467 176.89219415 454.30188232 177.78411363 455.453125 178.67578125 C461.86008074 183.65494155 468.14866853 188.74468005 474.31640625 194.01757812 C477.66707476 196.88199108 481.06270943 199.67672393 484.5 202.4375 C489.32046968 206.35457273 493.88646198 210.49968523 498.41015625 214.75170898 C501.84008796 217.96997666 505.36105875 221.01922301 509 224 C503.62806094 230.52878733 497.68214926 236.44579862 491.6953125 242.40234375 C490.60507635 243.49071139 489.51506331 244.57930257 488.42526245 245.66810608 C485.57688206 248.51269535 482.72550996 251.35426681 479.87347412 254.19519043 C476.95548 257.10289665 474.04036696 260.01348824 471.125 262.92382812 C465.41946016 268.61869081 459.71075206 274.31036412 454 280 C450.19866247 278.22496395 447.45075025 275.8094048 444.4375 272.9375 C439.71479962 268.52184378 434.8638365 264.35157459 429.82421875 260.296875 C427.33773275 258.27467062 424.89714201 256.20838121 422.46801758 254.11791992 C414.95069496 247.66281515 407.1502803 241.62098801 399.22705078 235.67382812 C397.77190153 234.58015313 396.31961713 233.48265315 394.87060547 232.38085938 C373.23153754 215.92900079 350.33814065 200.92332255 327 187 C326.04867187 186.43039551 325.09734375 185.86079102 324.1171875 185.27392578 C254.01956497 143.51195396 177.19782287 113.29919342 -260.63323975 100.17581177 C-329.54654613 117.72936341 -396.48523367 144.2452754 -458 180 C-458.92022949 180.53238281 -459.84045898 181.06476563 -460.78857422 181.61328125 C-493.78501366 200.73760575 -525.25273857 222.12130207 -555 246 C-555.62970703 246.50354004 -556.25941406 247.00708008 -556.90820312 247.52587891 C-569.94467551 257.96468968 -582.56862833 268.84882379 -595 280 C-598.4534417 278.51891127 -600.64921326 276.57178301 -603.265625 273.89453125 C-604.07386719 273.07533203 -604.88210938 272.25613281 -605.71484375 271.41210938 C-606.55144531 270.55423828 -607.38804687 269.69636719 -608.25 268.8125 C-614.79457844 262.07637765 -614.79457844 262.07637765 -621.734375 255.7578125 C-628.17340827 250.23944802 -634.02866367 244.07535835 -640 238.0625 C-641.2640885 236.79338627 -642.52840956 235.52450411 -643.79296875 234.25585938 C-646.86466724 231.1732368 -649.93320008 228.08749572 -653 225 C-646.76734748 217.56354493 -646.76734748 217.56354493 -643.5 214.8125 C-642.47712891 213.94238281 -642.47712891 213.94238281 -641.43359375 213.0546875 C-640.22896484 212.03761719 -640.22896484 212.03761719 -639 211 C-637.98988901 210.12875805 -636.98085225 209.25626975 -635.97265625 208.3828125 C-595.47598629 173.35497436 -552.22798299 142.0468199 -506 115 C-505.16581543 114.51080078 -504.33163086 114.02160156 -503.47216797 113.51757812 C-489.8735749 105.56977796 -476.02698732 98.1615815 -462 91 C-460.92854736 90.45182617 -460.92854736 90.45182617 -459.83544922 89.89257812 C-455.98141964 87.92676438 -452.11068258 85.99788005 -448.22558594 84.09423828 C-446.6378945 83.31362913 -445.05289136 82.52754229 -443.46972656 81.73779297 C-363.85364754 42.07146951 -276.84872096 17.59339086 0 0 Z " fill="#595463" transform="translate(1072,145)"/>
</svg>
