<?xml version="1.0" encoding="UTF-8"?>
<!DOCTYPE svg PUBLIC "-//W3C//DTD SVG 1.1//EN" "http://www.w3.org/Graphics/SVG/1.1/DTD/svg11.dtd">
<svg xmlns="http://www.w3.org/2000/svg" version="1.1" width="225px" height="225px" style="shape-rendering:geometricPrecision; text-rendering:geometricPrecision; image-rendering:optimizeQuality; fill-rule:evenodd; clip-rule:evenodd" xmlns:xlink="http://www.w3.org/1999/xlink">
<g><path style="opacity:1" fill="#fefefe" d="M -0.5,-0.5 C 33.1667,-0.5 66.8333,-0.5 100.5,-0.5C 50.9634,7.52504 18.4634,35.525 3,83.5C 1.81608,89.3014 0.649417,94.9681 -0.5,100.5C -0.5,66.8333 -0.5,33.1667 -0.5,-0.5 Z"/></g>
<g><path style="opacity:1" fill="#bdc2d1" d="M 100.5,-0.5 C 106.833,-0.5 113.167,-0.5 119.5,-0.5C 171.19,5.67271 205.024,33.6727 221,83.5C 222.184,89.3014 223.351,94.9681 224.5,100.5C 224.5,108.167 224.5,115.833 224.5,123.5C 217.696,167.816 193.696,198.983 152.5,217C 141.63,220.637 130.63,223.137 119.5,224.5C 113.167,224.5 106.833,224.5 100.5,224.5C 52.1233,216.967 19.9566,189.967 4,143.5C 2.54087,136.688 1.04087,130.021 -0.5,123.5C -0.5,115.833 -0.5,108.167 -0.5,100.5C 0.649417,94.9681 1.81608,89.3014 3,83.5C 18.4634,35.525 50.9634,7.52504 100.5,-0.5 Z"/></g>
<g><path style="opacity:1" fill="#fefefe" d="M 119.5,-0.5 C 154.5,-0.5 189.5,-0.5 224.5,-0.5C 224.5,33.1667 224.5,66.8333 224.5,100.5C 223.351,94.9681 222.184,89.3014 221,83.5C 205.024,33.6727 171.19,5.67271 119.5,-0.5 Z"/></g>
<g><path style="opacity:1" fill="#ccd0db" d="M 115.5,29.5 C 114.503,48.9929 114.17,68.6596 114.5,88.5C 113.172,68.6627 113.172,48.6627 114.5,28.5C 115.107,28.6236 115.44,28.9569 115.5,29.5 Z"/></g>
<g><path style="opacity:1" fill="#fefefe" d="M 115.5,29.5 C 130.606,55.7794 145.94,81.946 161.5,108C 145.923,101.553 130.256,95.0529 114.5,88.5C 114.17,68.6596 114.503,48.9929 115.5,29.5 Z"/></g>
<g><path style="opacity:1" fill="#fefefe" d="M 108.5,31.5 C 109.497,50.326 109.83,69.326 109.5,88.5C 95.0675,94.3688 80.7342,100.535 66.5,107C 65.365,107.749 64.365,107.583 63.5,106.5C 78.7629,81.638 93.7629,56.638 108.5,31.5 Z"/></g>
<g><path style="opacity:1" fill="#ccd0db" d="M 108.5,31.5 C 108.56,30.9569 108.893,30.6236 109.5,30.5C 110.828,49.9959 110.828,69.3292 109.5,88.5C 109.83,69.326 109.497,50.326 108.5,31.5 Z"/></g>
<g><path style="opacity:1" fill="#fefefe" d="M 108.5,93.5 C 109.496,108.658 109.83,123.991 109.5,139.5C 94.0308,130.931 78.6975,122.098 63.5,113C 78.5259,106.485 93.5259,99.9852 108.5,93.5 Z"/></g>
<g><path style="opacity:1" fill="#cbcfda" d="M 108.5,93.5 C 108.56,92.9569 108.893,92.6236 109.5,92.5C 110.827,108.328 110.827,123.995 109.5,139.5C 109.83,123.991 109.496,108.658 108.5,93.5 Z"/></g>
<g><path style="opacity:1" fill="#cccfdb" d="M 115.5,93.5 C 114.504,108.658 114.17,123.991 114.5,139.5C 113.173,123.995 113.173,108.328 114.5,92.5C 115.107,92.6236 115.44,92.9569 115.5,93.5 Z"/></g>
<g><path style="opacity:1" fill="#fefefe" d="M 115.5,93.5 C 130.474,99.9852 145.474,106.485 160.5,113C 145.303,122.098 129.969,130.931 114.5,139.5C 114.17,123.991 114.504,108.658 115.5,93.5 Z"/></g>
<g><path style="opacity:1" fill="#fefefe" d="M -0.5,123.5 C 1.04087,130.021 2.54087,136.688 4,143.5C 19.9566,189.967 52.1233,216.967 100.5,224.5C 66.8333,224.5 33.1667,224.5 -0.5,224.5C -0.5,190.833 -0.5,157.167 -0.5,123.5 Z"/></g>
<g><path style="opacity:1" fill="#fefefe" d="M 224.5,123.5 C 224.5,157.167 224.5,190.833 224.5,224.5C 189.5,224.5 154.5,224.5 119.5,224.5C 130.63,223.137 141.63,220.637 152.5,217C 193.696,198.983 217.696,167.816 224.5,123.5 Z"/></g>
<g><path style="opacity:1" fill="#fdfdfe" d="M 109.5,154.5 C 109.828,166.345 109.495,178.012 108.5,189.5C 94.9145,169.241 80.9145,149.241 66.5,129.5C 80.9865,136.932 95.3199,145.266 109.5,154.5 Z"/></g>
<g><path style="opacity:1" fill="#fdfdfe" d="M 115.5,189.5 C 114.505,178.012 114.172,166.345 114.5,154.5C 128.786,145.428 143.119,137.095 157.5,129.5C 143.49,149.529 129.49,169.529 115.5,189.5 Z"/></g>
<g><path style="opacity:1" fill="#cbcfda" d="M 109.5,154.5 C 110.825,166.34 110.825,178.34 109.5,190.5C 108.893,190.376 108.56,190.043 108.5,189.5C 109.495,178.012 109.828,166.345 109.5,154.5 Z"/></g>
<g><path style="opacity:1" fill="#ccd0db" d="M 114.5,154.5 C 114.172,166.345 114.505,178.012 115.5,189.5C 115.44,190.043 115.107,190.376 114.5,190.5C 113.175,178.34 113.175,166.34 114.5,154.5 Z"/></g>
</svg>
