<svg width="17" height="16" viewBox="0 0 17 16" fill="none" xmlns="http://www.w3.org/2000/svg">
<path d="M10.1001 4.80005H2.10012C1.21772 4.80005 0.500122 5.51765 0.500122 6.40005V14.4C0.500122 15.2824 1.21772 16 2.10012 16H10.1001C10.9825 16 11.7001 15.2824 11.7001 14.4V6.40005C11.7001 5.51765 10.9825 4.80005 10.1001 4.80005Z" fill="#8F7DF8"/>
<path d="M14.8996 -7.62939e-05H6.89962C6.47528 -7.62939e-05 6.06831 0.168495 5.76825 0.468553C5.46819 0.768611 5.29962 1.17558 5.29962 1.59992V3.19992H11.6996C12.124 3.19992 12.5309 3.36849 12.831 3.66855C13.1311 3.96861 13.2996 4.37558 13.2996 4.79992V11.1999H14.8996C15.324 11.1999 15.7309 11.0314 16.031 10.7313C16.3311 10.4312 16.4996 10.0243 16.4996 9.59992V1.59992C16.4996 1.17558 16.3311 0.768611 16.031 0.468553C15.7309 0.168495 15.324 -7.62939e-05 14.8996 -7.62939e-05Z" fill="#8F7DF8"/>
</svg>
