<svg width="16" height="16" viewBox="0 0 16 16" fill="none" xmlns="http://www.w3.org/2000/svg">
<path d="M14.72 3.52H1.92C1.75026 3.52 1.58748 3.45257 1.46745 3.33255C1.34743 3.21252 1.28 3.04974 1.28 2.88C1.28 2.71026 1.34743 2.54748 1.46745 2.42745C1.58748 2.30743 1.75026 2.24 1.92 2.24H12.8C12.9697 2.24 13.1325 2.17257 13.2525 2.05255C13.3726 1.93252 13.44 1.76974 13.44 1.6C13.44 1.43026 13.3726 1.26748 13.2525 1.14745C13.1325 1.02743 12.9697 0.96 12.8 0.96H1.92C1.41078 0.96 0.922425 1.16229 0.562355 1.52236C0.202285 1.88242 0 2.37078 0 2.88V13.12C0 13.6292 0.202285 14.1176 0.562355 14.4776C0.922425 14.8377 1.41078 15.04 1.92 15.04H14.72C15.0595 15.04 15.385 14.9051 15.6251 14.6651C15.8651 14.425 16 14.0995 16 13.76V4.8C16 4.46052 15.8651 4.13495 15.6251 3.8949C15.385 3.65486 15.0595 3.52 14.72 3.52ZM14.72 13.76H1.92C1.75026 13.76 1.58748 13.6926 1.46745 13.5725C1.34743 13.4525 1.28 13.2897 1.28 13.12V4.6904C1.48548 4.76331 1.70196 4.80038 1.92 4.8H14.72V13.76ZM10.88 8.96C10.88 8.77013 10.9363 8.58452 11.0418 8.42665C11.1473 8.26878 11.2972 8.14574 11.4726 8.07308C11.648 8.00042 11.8411 7.9814 12.0273 8.01845C12.2135 8.05549 12.3846 8.14692 12.5188 8.28118C12.6531 8.41544 12.7445 8.58649 12.7816 8.77271C12.8186 8.95894 12.7996 9.15196 12.7269 9.32738C12.6543 9.50279 12.5312 9.65272 12.3733 9.75821C12.2155 9.8637 12.0299 9.92 11.84 9.92C11.5854 9.92 11.3412 9.81886 11.1612 9.63882C10.9811 9.45879 10.88 9.21461 10.88 8.96Z" fill="#EDEEF4"/>
</svg>
