<?xml version="1.0" encoding="UTF-8"?>
<!DOCTYPE svg PUBLIC "-//W3C//DTD SVG 1.1//EN" "http://www.w3.org/Graphics/SVG/1.1/DTD/svg11.dtd">
<svg xmlns="http://www.w3.org/2000/svg" version="1.1" width="270px" height="270px" style="shape-rendering:geometricPrecision; text-rendering:geometricPrecision; image-rendering:optimizeQuality; fill-rule:evenodd; clip-rule:evenodd" xmlns:xlink="http://www.w3.org/1999/xlink">
<g><path style="opacity:0.985" fill="#0e3832" d="M 118.5,-0.5 C 129.167,-0.5 139.833,-0.5 150.5,-0.5C 203.198,7.68913 240.031,36.3558 261,85.5C 264.93,96.3558 267.764,107.356 269.5,118.5C 269.5,129.167 269.5,139.833 269.5,150.5C 261.311,203.198 232.644,240.031 183.5,261C 172.644,264.93 161.644,267.764 150.5,269.5C 139.833,269.5 129.167,269.5 118.5,269.5C 65.8022,261.311 28.9688,232.644 8,183.5C 4.06957,172.644 1.23624,161.644 -0.5,150.5C -0.5,139.833 -0.5,129.167 -0.5,118.5C 7.68913,65.8022 36.3558,28.9688 85.5,8C 96.3558,4.06957 107.356,1.23624 118.5,-0.5 Z"/></g>
<g><path style="opacity:1" fill="#072723" d="M 120.5,4.5 C 181.881,2.09219 226.381,28.0922 254,82.5C 271.886,128.525 266.886,171.858 239,212.5C 202.26,256.415 155.76,272.248 99.5,260C 39.6647,239.499 7.99808,197.665 4.5,134.5C 8.01889,71.2723 39.6856,29.439 99.5,9C 106.728,7.90566 113.728,6.40566 120.5,4.5 Z"/></g>
<g><path style="opacity:1" fill="#96fae2" d="M 178.5,63.5 C 192.816,62.0757 204.316,67.0757 213,78.5C 224.056,94.7088 229.222,112.709 228.5,132.5C 228.542,150.867 224.376,168.201 216,184.5C 208.097,198.201 196.264,204.701 180.5,204C 173.899,201.78 168.399,197.947 164,192.5C 158.083,183.669 152.417,174.669 147,165.5C 135.323,148.873 120.489,145.04 102.5,154C 94.5279,161.633 87.6946,170.133 82,179.5C 71.3646,190.105 60.698,190.105 50,179.5C 41.4565,165.05 37.6232,149.383 38.5,132.5C 38.0072,120.794 40.5072,109.794 46,99.5C 54.9237,88.5253 65.4237,86.692 77.5,94C 85.5244,103.023 93.8577,111.69 102.5,120C 118.112,127.629 131.612,124.795 143,111.5C 150.253,99.3291 157.253,86.9957 164,74.5C 167.906,69.4044 172.739,65.7377 178.5,63.5 Z"/></g>
</svg>
