<svg width="26" height="26" viewBox="0 0 26 26" fill="none" xmlns="http://www.w3.org/2000/svg">
<rect x="1" y="1" width="24" height="24" rx="2" fill="#FF0420" stroke="#1F1C2A" stroke-width="0.5"/>
<path d="M9.00745 16.5034C8.27051 16.533 7.66711 16.3771 7.19725 16.0357C6.73234 15.689 6.49988 15.1734 6.49988 14.4993C6.49988 14.3552 6.51472 14.1848 6.54439 13.9777C6.62353 13.5114 6.73728 12.9511 6.88566 12.2916C7.30606 10.5045 8.39416 9.57577 10.145 9.50554C10.6198 9.4865 11.0501 9.55158 11.426 9.70632C11.8019 9.85077 12.0986 10.0859 12.3163 10.4065C12.5339 10.722 12.6427 11.1035 12.6427 11.5512C12.6427 11.685 12.6279 11.8555 12.5982 12.0625C12.5042 12.6375 12.3954 13.2027 12.2619 13.7484C12.0442 14.6371 11.6733 15.3158 11.1391 15.7747C10.6099 16.2281 9.89771 16.4677 9.00745 16.5034ZM9.14099 15.1086C9.4872 15.0947 9.77901 14.975 10.0214 14.7543C10.2687 14.5334 10.4467 14.202 10.5506 13.7553C10.694 13.1423 10.8028 12.6131 10.877 12.1572C10.9017 12.0225 10.9166 11.8829 10.9166 11.7388C10.9166 11.1522 10.6248 10.8706 10.0362 10.8942C9.68999 10.9081 9.39323 11.028 9.14594 11.2489C8.90359 11.4696 8.73048 11.8008 8.62662 12.2475C8.51286 12.6843 8.40405 13.2136 8.2903 13.846C8.26557 13.9756 8.25073 14.11 8.25073 14.2541C8.24578 14.8512 8.54748 15.1324 9.14099 15.1086Z" fill="white"/>
<path d="M13.3718 16.4132C13.3025 16.416 13.2531 16.3974 13.2135 16.3527C13.1838 16.3024 13.1739 16.2462 13.1838 16.1789L14.4648 9.84943C14.4747 9.77699 14.5093 9.71899 14.5687 9.6703C14.6231 9.6218 14.6824 9.59884 14.7467 9.59626L17.2147 9.49727C17.9022 9.4697 18.4512 9.59691 18.8667 9.87357C19.2871 10.1552 19.4997 10.5738 19.4997 11.1347C19.4997 11.2942 19.48 11.4648 19.4453 11.6412C19.292 12.3883 18.9804 12.9463 18.5056 13.3204C18.0407 13.6942 17.4027 13.8947 16.5915 13.9272L15.3402 13.9774L14.9149 16.1095C14.9 16.1821 14.8704 16.2399 14.811 16.2886C14.7566 16.3371 14.6973 16.3601 14.633 16.3627L13.3718 16.4132ZM16.6558 12.5918C16.918 12.5813 17.1405 12.5004 17.3334 12.3434C17.5313 12.1862 17.6599 11.9701 17.7242 11.6896C17.7439 11.5808 17.7538 11.4826 17.7538 11.4003C17.7538 11.215 17.6994 11.0731 17.5956 10.9795C17.4917 10.8807 17.3087 10.8366 17.0565 10.8467L15.9436 10.8914L15.5925 12.6345L16.6558 12.5918Z" fill="white"/>
</svg>
